<?xml version="1.0" encoding="UTF-8" standalone="no"?>
<!-- Created with Inkscape (http://www.inkscape.org/) -->

<svg
   xmlns:dc="http://purl.org/dc/elements/1.1/"
   xmlns:cc="http://creativecommons.org/ns#"
   xmlns:rdf="http://www.w3.org/1999/02/22-rdf-syntax-ns#"
   xmlns:svg="http://www.w3.org/2000/svg"
   xmlns="http://www.w3.org/2000/svg"
   xmlns:sodipodi="http://sodipodi.sourceforge.net/DTD/sodipodi-0.dtd"
   xmlns:inkscape="http://www.inkscape.org/namespaces/inkscape"
   id="svg2985"
   version="1.1"
   inkscape:version="0.48.5 r10040"
   width="79.996529"
   height="80.000404"
   xml:space="preserve"
   sodipodi:docname="banana.svg"><metadata
     id="metadata2991"><rdf:RDF><cc:Work
         rdf:about=""><dc:format>image/svg+xml</dc:format><dc:type
           rdf:resource="http://purl.org/dc/dcmitype/StillImage" /><dc:title /></cc:Work></rdf:RDF></metadata><defs
     id="defs2989"><clipPath
       clipPathUnits="userSpaceOnUse"
       id="clipPath2999"><path
         d="m 0,566.93 566.93,0 L 566.93,0 0,0 0,566.93 z"
         id="path3001"
         inkscape:connector-curvature="0" /></clipPath></defs><sodipodi:namedview
     pagecolor="#ffffff"
     bordercolor="#666666"
     borderopacity="1"
     objecttolerance="10"
     gridtolerance="10"
     guidetolerance="10"
     inkscape:pageopacity="0"
     inkscape:pageshadow="2"
     inkscape:window-width="743"
     inkscape:window-height="615"
     id="namedview2987"
     showgrid="false"
     inkscape:zoom="3.7677107"
     inkscape:cx="46.074722"
     inkscape:cy="25.621488"
     inkscape:window-x="619"
     inkscape:window-y="147"
     inkscape:window-maximized="0"
     inkscape:current-layer="g2993"
     fit-margin-top="0"
     fit-margin-left="0"
     fit-margin-right="0"
     fit-margin-bottom="0" /><g
     id="g2993"
     inkscape:groupmode="layer"
     inkscape:label="banana"
     transform="matrix(1.25,0,0,-1.25,-279.60599,408.71017)"><g
       id="g2995"
       transform="matrix(0.17774681,0,0,0.10090928,210.234,265.20037)"><g
         id="g2997"
         clip-path="url(#clipPath2999)"><g
           id="g3003"
           transform="translate(302.1055,506.0298)"><path
             d="m 0,0 c 14.424,-17.41 37.758,-35.237 17.254,-80.28 0,0 51.47,43.288 67.34,-45.103 C 48.989,-28.285 52.429,-29.853 38.795,9.359 38.795,9.359 26.944,-19.82 0,0"
             style="fill:#ffda42;fill-opacity:1;fill-rule:nonzero;stroke:none"
             id="path3005"
             inkscape:connector-curvature="0" /></g><g
           id="g3007"
           transform="translate(302.1055,506.0298)"><path
             d="m 0,0 c 14.424,-17.41 37.758,-35.237 17.254,-80.28 0,0 51.47,43.288 67.34,-45.103 C 48.989,-28.285 52.429,-29.853 38.795,9.359 38.795,9.359 26.944,-19.82 0,0 z"
             style="fill:none;stroke:#fcb24c;stroke-width:1;stroke-linecap:butt;stroke-linejoin:miter;stroke-miterlimit:10;stroke-opacity:1;stroke-dasharray:none"
             id="path3009"
             inkscape:connector-curvature="0" /></g><g
           id="g3011"
           transform="translate(310.4658,496.9844)"><path
             d="M 0,0 C 16.111,-4.666 27.854,-23.779 18.83,-54.934"
             style="fill:none;stroke:#fcb24c;stroke-width:1;stroke-linecap:butt;stroke-linejoin:miter;stroke-miterlimit:10;stroke-opacity:1;stroke-dasharray:none"
             id="path3013"
             inkscape:connector-curvature="0" /></g><g
           id="g3015"
           transform="translate(343.2646,441.811)"><path
             d="M 0,0 C 8.54,7.447 8.118,24.993 -10.95,46.865"
             style="fill:none;stroke:#fcb24c;stroke-width:1;stroke-linecap:butt;stroke-linejoin:miter;stroke-miterlimit:10;stroke-opacity:1;stroke-dasharray:none"
             id="path3017"
             inkscape:connector-curvature="0" /></g><g
           id="g3019"
           transform="translate(319.3594,425.75)"><path
             d="m 0,0 c 0,0 -22.65,-199.993 -195.7,-321.029 0,0 -5.811,-65.177 68.964,-42.04 74.774,23.14 214.978,159.109 195.877,320.921 0,0 -11.805,86.099 -69.141,42.148"
             style="fill:#ffda42;fill-opacity:1;fill-rule:nonzero;stroke:none"
             id="path3021"
             inkscape:connector-curvature="0" /></g><g
           id="g3023"
           transform="translate(319.3594,425.75)"><path
             d="m 0,0 c 0,0 -22.65,-199.993 -195.7,-321.029 0,0 -5.811,-65.177 68.964,-42.04 74.774,23.14 214.978,159.109 195.877,320.921 0,0 -11.805,86.099 -69.141,42.148 z"
             style="fill:none;stroke:#fcb24c;stroke-width:1;stroke-linecap:butt;stroke-linejoin:miter;stroke-miterlimit:10;stroke-opacity:1;stroke-dasharray:none"
             id="path3025"
             inkscape:connector-curvature="0" /></g><g
           id="g3027"
           transform="translate(343.3105,369.9204)"><path
             d="M 0,0 C 34.504,-33.445 -49.162,-194.32 -165.912,-278.162"
             style="fill:none;stroke:#fcb24c;stroke-width:1;stroke-linecap:butt;stroke-linejoin:miter;stroke-miterlimit:10;stroke-opacity:1;stroke-dasharray:none"
             id="path3029"
             inkscape:connector-curvature="0" /></g><g
           id="g3031"
           transform="translate(153.207,99.5967)"><path
             d="M 0,0 C -3.428,4.801 -7.997,6.227 -13.773,5.638 -19.13,5.091 -31.625,2.432 -32.543,-4.46 c -0.37,-2.773 0.924,-4.972 2.166,-7.369 1.421,-2.744 2.428,-5.643 3.94,-8.353 3.097,-5.547 7.883,-10.652 13.797,-13.113 3.765,-1.566 18.298,0.604 18.784,5.792 C 7.132,-16.956 2.663,-3.629 -5.859,3.013 -8.57,5.125 -15.563,2.629 -18.24,1.689 c -0.96,-0.336 -8.431,-3.087 -5.868,-5.085 7.994,-6.229 11.853,-19.472 10.934,-29.283 l 18.783,5.792 c -6.17,2.568 -10.324,7.576 -13.519,13.3 -1.471,2.637 -2.423,5.531 -3.812,8.215 -0.633,1.224 -1.128,2.413 -1.521,3.73 -1.114,3.731 4.259,3.099 -4.075,1.008 -2.347,-0.35 -4.693,-0.7 -7.039,-1.05 2.1,0.1 3.923,-1.93 5.039,-3.492 C -16.114,-9.663 1.195,-1.673 0,0"
             style="fill:#7a563b;fill-opacity:1;fill-rule:nonzero;stroke:none"
             id="path3033"
             inkscape:connector-curvature="0" /></g><g
           id="g3035"
           transform="translate(324.4404,529.897)"><path
             d="m 0,0 c -6.115,3.19 -12.419,3.917 -18.856,0.953 -4.685,-2.157 -7.963,-6.539 -8.631,-11.628 -1.272,-9.679 6.382,-17.298 15.274,-19.119 6.343,-1.299 13.75,0.502 19.278,3.665 5.215,2.983 10.898,8.042 10.767,14.629 -0.122,6.144 -3.811,9.948 -9.05,12.588 -6.44,3.246 -15.442,1.342 -21.451,-1.895 -3.743,-2.017 -8.276,-6.65 -4.978,-11.102 3.116,-4.207 10.307,-3.908 14.457,-1.673 0.629,0.34 3.019,1.339 -0.08,0.194 2.881,1.065 -1.468,-0.007 0.242,0.16 2.159,0.212 -2.515,0.235 -0.452,-0.019 -2.745,0.338 -0.864,0.224 0.043,-0.169 -2.276,0.986 -1.008,0.482 -0.4,0.025 1.105,-0.829 -1.234,1.545 0.03,-0.223 0.957,-1.338 -0.682,1.776 -0.104,0.252 0.261,-0.686 0.253,-2.53 0.205,-0.144 0.01,-0.466 -0.081,-0.927 -0.169,-1.382 0.524,2.693 -1.069,-1.116 0.567,1.262 -0.387,-0.562 -1.791,-1.759 0.213,0.021 -0.339,-0.285 -0.692,-0.55 -1.06,-0.797 1.339,0.787 1.479,0.897 0.421,0.332 -2.369,-1.214 2.022,0.569 -0.21,-0.125 -2.934,-0.912 1.669,0.108 -0.093,-0.086 -0.833,-0.091 -2.711,0.137 0.591,-0.074 -2.528,0.162 1.547,-0.545 0.079,-0.098 -0.638,0.194 -2.114,0.989 0.401,-0.328 -0.517,0.271 -0.988,0.622 -1.448,0.979 -1.288,1.003 1.409,-1.49 0.313,-0.297 -0.381,0.415 -0.705,0.88 -1.017,1.348 -0.318,0.472 -1,1.879 0.103,-0.405 -0.238,0.494 -0.419,1.014 -0.589,1.534 -0.263,0.8 -0.542,3.893 -0.388,1.026 -0.046,0.842 0.052,1.684 0.23,2.506 -0.533,-2.457 -0.468,-1.504 -0.172,-0.809 0.753,1.766 -1.258,-1.645 -0.429,-0.66 -1.358,-1.613 -1.081,-1.184 -3.016,-2.263 -2.309,-0.775 -2.942,-1.011 -1.897,-0.705 -2.379,-0.321 -3.019,-0.443 -1.919,-0.367 -0.675,0.012 -1.349,0.023 -2.023,0.035 0.942,-0.143 0.513,-0.028 -1.286,0.347 0.642,-0.165 2.592,-1.153 0.158,0.116 4.917,-2.565 10.741,-2.187 15.25,1.238 C 2.086,-8.742 4.863,-2.538 0,0"
             style="fill:#7a563b;fill-opacity:1;fill-rule:nonzero;stroke:none"
             id="path3037"
             inkscape:connector-curvature="0" /></g></g></g></g></svg>