<?xml version="1.0" encoding="UTF-8" standalone="no"?>
<!-- Created with Inkscape (http://www.inkscape.org/) -->

<svg
   xmlns:dc="http://purl.org/dc/elements/1.1/"
   xmlns:cc="http://creativecommons.org/ns#"
   xmlns:rdf="http://www.w3.org/1999/02/22-rdf-syntax-ns#"
   xmlns:svg="http://www.w3.org/2000/svg"
   xmlns="http://www.w3.org/2000/svg"
   xmlns:sodipodi="http://sodipodi.sourceforge.net/DTD/sodipodi-0.dtd"
   xmlns:inkscape="http://www.inkscape.org/namespaces/inkscape"
   id="svg3063"
   version="1.1"
   inkscape:version="0.48.5 r10040"
   width="80"
   height="80"
   xml:space="preserve"
   sodipodi:docname="čokolada.svg"><metadata
     id="metadata3069"><rdf:RDF><cc:Work
         rdf:about=""><dc:format>image/svg+xml</dc:format><dc:type
           rdf:resource="http://purl.org/dc/dcmitype/StillImage" /><dc:title /></cc:Work></rdf:RDF></metadata><defs
     id="defs3067" /><sodipodi:namedview
     pagecolor="#ffffff"
     bordercolor="#666666"
     borderopacity="1"
     objecttolerance="10"
     gridtolerance="10"
     guidetolerance="10"
     inkscape:pageopacity="0"
     inkscape:pageshadow="2"
     inkscape:window-width="743"
     inkscape:window-height="480"
     id="namedview3065"
     showgrid="false"
     inkscape:zoom="1.3320869"
     inkscape:cx="98.291672"
     inkscape:cy="45.138759"
     inkscape:window-x="403"
     inkscape:window-y="158"
     inkscape:window-maximized="0"
     inkscape:current-layer="g3071"
     fit-margin-top="0"
     fit-margin-left="0"
     fit-margin-right="0"
     fit-margin-bottom="0" /><g
     id="g3071"
     inkscape:groupmode="layer"
     inkscape:label="čokolada"
     transform="matrix(1.25,0,0,-1.25,-315.36313,389.1925)"><path
       d="m 296.2905,255.354 -24,0 0,48 24,0 0,-48 z"
       style="fill:#8f6548;fill-opacity:1;fill-rule:nonzero;stroke:none"
       id="path3073"
       inkscape:connector-curvature="0" /><path
       d="m 277.57018,296.89829 -4.47996,0 0,5.3014 4.47996,0 0,-5.3014 z"
       style="fill:#81492b;fill-opacity:1;fill-rule:nonzero;stroke:none"
       id="path3075"
       inkscape:connector-curvature="0" /><path
       d="m 277.57018,290.08875 -4.47996,0 0,5.3014 4.47996,0 0,-5.3014 z"
       style="fill:#81492b;fill-opacity:1;fill-rule:nonzero;stroke:none"
       id="path3077"
       inkscape:connector-curvature="0" /><path
       d="m 277.57018,283.13559 -4.47996,0 0,5.30159 4.47996,0 0,-5.30159 z"
       style="fill:#81492b;fill-opacity:1;fill-rule:nonzero;stroke:none"
       id="path3079"
       inkscape:connector-curvature="0" /><path
       d="m 277.57018,276.36248 -4.47996,0 0,5.30111 4.47996,0 0,-5.30111 z"
       style="fill:#81492b;fill-opacity:1;fill-rule:nonzero;stroke:none"
       id="path3081"
       inkscape:connector-curvature="0" /><path
       d="m 277.57018,269.66108 -4.47996,0 0,5.30121 4.47996,0 0,-5.30121 z"
       style="fill:#81492b;fill-opacity:1;fill-rule:nonzero;stroke:none"
       id="path3083"
       inkscape:connector-curvature="0" /><path
       d="m 277.57018,263.03217 -4.47996,0 0,5.3015 4.47996,0 0,-5.3015 z"
       style="fill:#81492b;fill-opacity:1;fill-rule:nonzero;stroke:none"
       id="path3085"
       inkscape:connector-curvature="0" /><path
       d="m 277.57018,256.51101 -4.47996,0 0,5.30121 4.47996,0 0,-5.30121 z"
       style="fill:#81492b;fill-opacity:1;fill-rule:nonzero;stroke:none"
       id="path3087"
       inkscape:connector-curvature="0" /><path
       d="m 283.49833,296.89829 -4.47996,0 0,5.3014 4.47996,0 0,-5.3014 z"
       style="fill:#81492b;fill-opacity:1;fill-rule:nonzero;stroke:none"
       id="path3089"
       inkscape:connector-curvature="0" /><path
       d="m 289.35729,296.89829 -4.48024,0 0,5.3014 4.48024,0 0,-5.3014 z"
       style="fill:#81492b;fill-opacity:1;fill-rule:nonzero;stroke:none"
       id="path3091"
       inkscape:connector-curvature="0" /><path
       d="m 295.31975,296.89829 -4.48024,0 0,5.3014 4.48024,0 0,-5.3014 z"
       style="fill:#81492b;fill-opacity:1;fill-rule:nonzero;stroke:none"
       id="path3093"
       inkscape:connector-curvature="0" /><path
       d="m 295.31975,290.08875 -4.48024,0 0,5.3014 4.48024,0 0,-5.3014 z"
       style="fill:#81492b;fill-opacity:1;fill-rule:nonzero;stroke:none"
       id="path3095"
       inkscape:connector-curvature="0" /><path
       d="m 295.31975,283.13559 -4.48024,0 0,5.30159 4.48024,0 0,-5.30159 z"
       style="fill:#81492b;fill-opacity:1;fill-rule:nonzero;stroke:none"
       id="path3097"
       inkscape:connector-curvature="0" /><path
       d="m 295.31975,276.36219 -4.48024,0 0,5.3014 4.48024,0 0,-5.3014 z"
       style="fill:#81492b;fill-opacity:1;fill-rule:nonzero;stroke:none"
       id="path3099"
       inkscape:connector-curvature="0" /><path
       d="m 295.31975,269.66108 -4.48024,0 0,5.30121 4.48024,0 0,-5.30121 z"
       style="fill:#81492b;fill-opacity:1;fill-rule:nonzero;stroke:none"
       id="path3101"
       inkscape:connector-curvature="0" /><path
       d="m 295.31975,263.03217 -4.48024,0 0,5.3015 4.48024,0 0,-5.3015 z"
       style="fill:#81492b;fill-opacity:1;fill-rule:nonzero;stroke:none"
       id="path3103"
       inkscape:connector-curvature="0" /><path
       d="m 295.31975,256.51101 -4.48024,0 0,5.30121 4.48024,0 0,-5.30121 z"
       style="fill:#81492b;fill-opacity:1;fill-rule:nonzero;stroke:none"
       id="path3105"
       inkscape:connector-curvature="0" /><path
       d="m 289.35729,290.08875 -4.48024,0 0,5.3014 4.48024,0 0,-5.3014 z"
       style="fill:#81492b;fill-opacity:1;fill-rule:nonzero;stroke:none"
       id="path3107"
       inkscape:connector-curvature="0" /><path
       d="m 289.35729,283.13559 -4.48024,0 0,5.30159 4.48024,0 0,-5.30159 z"
       style="fill:#81492b;fill-opacity:1;fill-rule:nonzero;stroke:none"
       id="path3109"
       inkscape:connector-curvature="0" /><path
       d="m 289.35729,276.36248 -4.48024,0 0,5.30111 4.48024,0 0,-5.30111 z"
       style="fill:#81492b;fill-opacity:1;fill-rule:nonzero;stroke:none"
       id="path3111"
       inkscape:connector-curvature="0" /><path
       d="m 289.35729,269.66108 -4.48024,0 0,5.30121 4.48024,0 0,-5.30121 z"
       style="fill:#81492b;fill-opacity:1;fill-rule:nonzero;stroke:none"
       id="path3113"
       inkscape:connector-curvature="0" /><path
       d="m 289.35729,263.03217 -4.48024,0 0,5.3015 4.48024,0 0,-5.3015 z"
       style="fill:#81492b;fill-opacity:1;fill-rule:nonzero;stroke:none"
       id="path3115"
       inkscape:connector-curvature="0" /><path
       d="m 289.35729,256.51101 -4.48024,0 0,5.30121 4.48024,0 0,-5.30121 z"
       style="fill:#81492b;fill-opacity:1;fill-rule:nonzero;stroke:none"
       id="path3117"
       inkscape:connector-curvature="0" /><path
       d="m 283.46374,256.51101 -4.48006,0 0,5.30121 4.48006,0 0,-5.30121 z"
       style="fill:#81492b;fill-opacity:1;fill-rule:nonzero;stroke:none"
       id="path3119"
       inkscape:connector-curvature="0" /><path
       d="m 283.49833,290.08875 -4.47996,0 0,5.3014 4.47996,0 0,-5.3014 z"
       style="fill:#81492b;fill-opacity:1;fill-rule:nonzero;stroke:none"
       id="path3121"
       inkscape:connector-curvature="0" /><path
       d="m 283.49833,283.13559 -4.47996,0 0,5.30159 4.47996,0 0,-5.30159 z"
       style="fill:#81492b;fill-opacity:1;fill-rule:nonzero;stroke:none"
       id="path3123"
       inkscape:connector-curvature="0" /><path
       d="m 283.49833,276.36219 -4.47996,0 0,5.3014 4.47996,0 0,-5.3014 z"
       style="fill:#81492b;fill-opacity:1;fill-rule:nonzero;stroke:none"
       id="path3125"
       inkscape:connector-curvature="0" /><path
       d="m 283.49833,269.66108 -4.47996,0 0,5.30121 4.47996,0 0,-5.30121 z"
       style="fill:#81492b;fill-opacity:1;fill-rule:nonzero;stroke:none"
       id="path3127"
       inkscape:connector-curvature="0" /><path
       d="m 283.49833,263.03217 -4.47996,0 0,5.3015 4.47996,0 0,-5.3015 z"
       style="fill:#81492b;fill-opacity:1;fill-rule:nonzero;stroke:none"
       id="path3129"
       inkscape:connector-curvature="0" /></g></svg>