<?xml version="1.0" encoding="UTF-8" standalone="no"?>
<!-- Created with Inkscape (http://www.inkscape.org/) -->

<svg
   xmlns:dc="http://purl.org/dc/elements/1.1/"
   xmlns:cc="http://creativecommons.org/ns#"
   xmlns:rdf="http://www.w3.org/1999/02/22-rdf-syntax-ns#"
   xmlns:svg="http://www.w3.org/2000/svg"
   xmlns="http://www.w3.org/2000/svg"
   xmlns:sodipodi="http://sodipodi.sourceforge.net/DTD/sodipodi-0.dtd"
   xmlns:inkscape="http://www.inkscape.org/namespaces/inkscape"
   id="svg3205"
   version="1.1"
   inkscape:version="0.48.5 r10040"
   width="80.005287"
   height="79.998215"
   xml:space="preserve"
   sodipodi:docname="hot-dog.svg"><metadata
     id="metadata3211"><rdf:RDF><cc:Work
         rdf:about=""><dc:format>image/svg+xml</dc:format><dc:type
           rdf:resource="http://purl.org/dc/dcmitype/StillImage" /><dc:title /></cc:Work></rdf:RDF></metadata><defs
     id="defs3209"><clipPath
       clipPathUnits="userSpaceOnUse"
       id="clipPath3219"><path
         d="m 0,566.93 566.93,0 L 566.93,0 0,0 0,566.93 z"
         id="path3221"
         inkscape:connector-curvature="0" /></clipPath></defs><sodipodi:namedview
     pagecolor="#ffffff"
     bordercolor="#666666"
     borderopacity="1"
     objecttolerance="10"
     gridtolerance="10"
     guidetolerance="10"
     inkscape:pageopacity="0"
     inkscape:pageshadow="2"
     inkscape:window-width="743"
     inkscape:window-height="480"
     id="namedview3207"
     showgrid="false"
     inkscape:zoom="0.94192767"
     inkscape:cx="172.13722"
     inkscape:cy="39.996337"
     inkscape:window-x="0"
     inkscape:window-y="0"
     inkscape:window-maximized="0"
     inkscape:current-layer="g3213"
     fit-margin-top="0"
     fit-margin-left="0"
     fit-margin-right="0"
     fit-margin-bottom="0" /><g
     id="g3213"
     inkscape:groupmode="layer"
     inkscape:label="hot-dog"
     transform="matrix(1.25,0,0,-1.25,-307.20973,394.33313)"><g
       id="g3215"
       transform="matrix(0.10439289,0,0,0.1022766,248.77278,254.47361)"><g
         id="g3217"
         clip-path="url(#clipPath3219)"><g
           id="g3223"
           transform="translate(279.5747,485.0605)"><path
             d="m 0,0 c 0,0 91.837,-197.803 0,-407.378 0,0 31.382,-63.577 87.511,0 C 143.642,-343.798 196.667,-138.93 87.74,0 87.74,0 28.257,73 0,0"
             style="fill:#ffd17b;fill-opacity:1;fill-rule:nonzero;stroke:none"
             id="path3225"
             inkscape:connector-curvature="0" /></g><g
           id="g3227"
           transform="translate(279.5747,485.0605)"><path
             d="m 0,0 c 0,0 91.837,-197.803 0,-407.378 0,0 31.382,-63.577 87.511,0 C 143.642,-343.798 196.667,-138.93 87.74,0 87.74,0 28.257,73 0,0 z"
             style="fill:none;stroke:#8f6548;stroke-width:1;stroke-linecap:butt;stroke-linejoin:miter;stroke-miterlimit:10;stroke-opacity:1;stroke-dasharray:none"
             id="path3229"
             inkscape:connector-curvature="0" /></g><g
           id="g3231"
           transform="translate(275.9644,485.0605)"><path
             d="m 0,0 c 0,0 -91.836,-197.803 0,-407.378 0,0 -31.381,-63.577 -87.511,0 -56.13,63.58 -109.156,268.448 -0.226,407.378 0,0 59.48,73 87.737,0"
             style="fill:#ffd17b;fill-opacity:1;fill-rule:nonzero;stroke:none"
             id="path3233"
             inkscape:connector-curvature="0" /></g><g
           id="g3235"
           transform="translate(275.9644,485.0605)"><path
             d="m 0,0 c 0,0 -91.836,-197.803 0,-407.378 0,0 -31.381,-63.577 -87.511,0 -56.13,63.58 -109.156,268.448 -0.226,407.378 0,0 59.48,73 87.737,0 z"
             style="fill:none;stroke:#8f6548;stroke-width:1;stroke-linecap:butt;stroke-linejoin:miter;stroke-miterlimit:10;stroke-opacity:1;stroke-dasharray:none"
             id="path3237"
             inkscape:connector-curvature="0" /></g><g
           id="g3239"
           transform="translate(327.6523,281.8955)"><path
             d="m 0,0 c 0,-119.646 -23.141,-216.64 -51.688,-216.64 -28.546,0 -51.688,96.994 -51.688,216.64 0,119.648 23.142,216.641 51.688,216.641 C -23.141,216.641 0,119.648 0,0"
             style="fill:#c1343e;fill-opacity:1;fill-rule:nonzero;stroke:none"
             id="path3241"
             inkscape:connector-curvature="0" /></g><g
           id="g3243"
           transform="translate(327.6523,281.8955)"><path
             d="m 0,0 c 0,-119.646 -23.141,-216.64 -51.688,-216.64 -28.546,0 -51.688,96.994 -51.688,216.64 0,119.648 23.142,216.641 51.688,216.641 C -23.141,216.641 0,119.648 0,0 z"
             style="fill:none;stroke:#67462f;stroke-width:1;stroke-linecap:butt;stroke-linejoin:miter;stroke-miterlimit:10;stroke-opacity:1;stroke-dasharray:none"
             id="path3245"
             inkscape:connector-curvature="0" /></g><g
           id="g3247"
           transform="translate(336.9023,90.6074)"><path
             d="m 0,0 c -2.43,-1.561 -5.035,-2.764 -7.656,-3.872 -2.627,-1.101 -5.291,-2.097 -7.981,-3.008 -5.384,-1.801 -10.847,-3.34 -16.351,-4.712 -5.508,-1.358 -11.073,-2.489 -16.666,-3.48 -5.598,-0.969 -11.231,-1.829 -16.912,-2.379 -5.68,-0.569 -11.398,-0.936 -17.164,-1.008 -5.766,-0.056 -11.584,0.135 -17.457,0.945 -5.858,0.847 -11.83,2.135 -17.696,5.077 -2.905,1.499 -5.804,3.488 -8.226,6.285 -2.431,2.765 -4.188,6.432 -4.783,10.138 -0.628,3.714 -0.278,7.318 0.497,10.568 0.779,3.266 1.966,6.25 3.314,9.058 0.339,0.702 0.689,1.394 1.05,2.074 l 0.547,1.014 0.279,0.501 0.141,0.25 0.035,0.063 0.204,0.33 0.071,0.111 c 0.318,0.508 0.905,1.387 1.368,2.012 0.486,0.672 0.996,1.326 1.526,1.964 2.116,2.555 4.564,4.813 7.174,6.728 5.237,3.853 10.975,6.4 16.595,8.399 5.638,2.002 11.249,3.426 16.711,4.83 5.464,1.39 10.802,2.731 15.899,4.329 5.096,1.583 9.949,3.449 14.284,5.864 4.338,2.41 8.095,5.393 11.133,8.972 3.037,3.583 5.289,7.818 6.919,12.459 l 4.237,-8.545 c -8.289,2.869 -17.131,2.981 -26.239,1.063 -9.126,-1.842 -18.423,-5.394 -28.398,-8.266 -4.99,-1.429 -10.176,-2.711 -15.577,-3.354 -2.697,-0.321 -5.44,-0.493 -8.197,-0.464 -0.69,0.009 -1.38,0.025 -2.07,0.059 l -0.635,0.036 -0.234,0.029 -0.467,0.061 -1.055,0.146 c -1.363,0.206 -2.717,0.461 -4.06,0.764 -10.713,2.43 -20.811,7.969 -27.975,16.522 -3.54,4.27 -6.316,9.358 -7.517,14.973 -1.231,5.593 -0.606,11.664 1.754,16.819 2.333,5.187 6.082,9.409 10.233,12.761 2.086,1.683 4.297,3.157 6.57,4.48 1.134,0.665 2.286,1.289 3.451,1.879 l 1.743,0.856 c 0.584,0.279 1.239,0.57 1.839,0.823 4.932,2.08 10.275,3.155 15.548,3.323 5.286,0.178 10.475,-0.52 15.503,-1.469 10.048,-1.95 19.626,-5.059 29.317,-5.977 4.827,-0.453 9.649,-0.302 14.255,0.758 4.609,1.042 8.947,3.055 12.863,5.735 3.92,2.78 7.818,5.927 11.201,9.295 1.69,1.691 3.254,3.478 4.498,5.359 1.243,1.862 2.172,3.852 2.36,5.612 0.185,1.758 -0.309,3.158 -1.518,4.52 -1.211,1.351 -3.064,2.503 -5.09,3.421 -4.107,1.842 -8.863,2.859 -13.623,3.595 -4.783,0.72 -9.672,1.103 -14.574,1.289 -2.453,0.092 -4.911,0.128 -7.37,0.12 l -7.564,-0.008 c -5.064,0.018 -10.166,0.093 -15.329,0.394 -5.166,0.317 -10.39,0.813 -15.753,1.998 -2.681,0.606 -5.404,1.389 -8.16,2.599 -2.731,1.221 -5.597,2.879 -8.034,5.581 -1.208,1.34 -2.269,2.942 -3.022,4.691 -0.761,1.747 -1.196,3.613 -1.357,5.406 -0.322,3.617 0.344,6.862 1.247,9.75 1.889,5.767 4.753,10.481 7.777,14.917 1.533,2.205 3.134,4.315 4.777,6.368 0.822,1.027 1.654,2.039 2.497,3.037 l 1.269,1.489 0.716,0.808 0.651,0.718 c 3.606,3.94 7.45,7.66 11.74,11.062 4.272,3.399 9.008,6.411 14.142,8.77 5.126,2.366 10.655,4.005 16.196,4.874 5.547,0.885 11.065,1.043 16.374,0.875 5.316,-0.169 10.449,-0.64 15.449,-1.079 5.002,-0.445 9.877,-0.855 14.68,-1.064 2.4,-0.102 4.783,-0.153 7.15,-0.133 1.184,0.009 2.363,0.036 3.539,0.08 l 0.883,0.037 0.221,0.01 0.724,0.006 0.495,-0.01 2.062,-0.069 c 5.397,-0.233 10.525,-0.904 14.932,-1.044 2.177,-0.071 4.164,0.034 5.5,0.361 0.67,0.158 1.152,0.357 1.482,0.548 0.334,0.195 0.539,0.373 0.774,0.648 0.459,0.516 1.043,1.696 1.439,3.382 0.408,1.669 0.637,3.712 0.713,5.856 l 0.023,0.812 c 0.002,0.176 0.01,-0.835 0.002,-0.294 l -0.011,0.235 -0.01,0.219 -0.01,0.063 -0.045,0.387 c -0.019,0.146 -0.045,0.285 -0.072,0.418 -0.113,0.53 -0.272,0.947 -0.477,1.324 -0.398,0.732 -1.093,1.47 -2.363,2.246 -1.254,0.762 -2.975,1.452 -4.9,1.997 -1.932,0.543 -4.061,0.954 -6.276,1.253 -4.439,0.602 -9.185,0.805 -13.988,0.832 -4.813,0.016 -9.709,-0.097 -14.639,-0.318 -9.869,-0.429 -19.867,-1.192 -29.976,-1.718 -10.113,-0.525 -20.332,-1.013 -30.777,-0.646 -5.223,0.193 -10.506,0.576 -15.882,1.419 -5.367,0.868 -10.871,2.122 -16.383,4.698 -2.742,1.301 -5.491,2.975 -7.981,5.23 -2.489,2.235 -4.654,5.116 -6.061,8.291 -1.422,3.173 -2.101,6.534 -2.231,9.7 -0.141,3.178 0.194,6.19 0.752,9.038 1.146,5.696 3.133,10.811 5.382,15.657 2.265,4.841 4.835,9.41 7.561,13.829 l 1.029,1.65 1.094,1.703 c 0.71,1.068 1.491,2.207 2.266,3.279 1.57,2.18 3.271,4.327 5.28,6.417 2.027,2.06 4.345,4.182 7.697,5.708 1.669,0.744 3.64,1.255 5.621,1.301 1.983,0.063 3.86,-0.319 5.457,-0.851 3.204,-1.103 5.519,-2.609 7.717,-3.939 2.177,-1.354 4.187,-2.628 6.226,-3.736 4.054,-2.218 8.224,-3.771 12.684,-4.474 2.223,-0.355 4.501,-0.503 6.807,-0.47 1.152,0.015 2.31,0.08 3.472,0.182 1.158,0.107 2.381,0.237 3.33,0.433 4.276,0.83 8.469,2.882 12.256,5.563 7.559,5.414 13.682,13.446 16.451,22.498 1.356,4.519 1.727,9.367 0.547,13.931 -1.127,4.577 -3.951,8.718 -7.771,11.789 l 0.888,1.209 c 2.149,-1.427 4.135,-3.16 5.805,-5.204 1.67,-2.043 3.008,-4.394 3.914,-6.915 1.815,-5.07 1.838,-10.645 0.754,-15.839 -1.078,-5.228 -3.246,-10.158 -6.068,-14.646 -2.836,-4.488 -6.352,-8.568 -10.508,-12.021 -4.154,-3.437 -9.02,-6.247 -14.547,-7.725 -1.494,-0.396 -2.766,-0.6 -4.098,-0.814 -1.332,-0.203 -2.675,-0.365 -4.033,-0.47 -2.711,-0.213 -5.474,-0.217 -8.238,0.044 -2.762,0.256 -5.524,0.779 -8.203,1.557 -2.677,0.785 -5.263,1.825 -7.704,2.996 -2.443,1.165 -4.75,2.469 -6.906,3.655 -2.141,1.179 -4.196,2.243 -5.797,2.662 -0.798,0.211 -1.434,0.266 -1.965,0.205 -0.533,-0.057 -1.031,-0.215 -1.64,-0.529 -1.212,-0.625 -2.696,-1.947 -4.075,-3.551 -2.762,-3.252 -5.397,-7.381 -7.694,-11.524 -2.377,-4.235 -4.558,-8.539 -6.373,-12.882 -1.807,-4.332 -3.251,-8.744 -3.903,-12.946 -0.66,-4.203 -0.376,-8.079 1.002,-10.832 0.687,-1.396 1.633,-2.597 2.914,-3.68 1.274,-1.081 2.876,-2.029 4.695,-2.821 3.655,-1.589 8.066,-2.546 12.622,-3.124 4.574,-0.579 9.34,-0.794 14.159,-0.825 9.653,-0.041 19.525,0.54 29.462,1.286 9.945,0.759 19.98,1.601 30.183,2.171 5.106,0.272 10.254,0.502 15.49,0.48 5.241,-0.024 10.559,-0.215 16.082,-0.946 2.762,-0.371 5.582,-0.887 8.491,-1.698 2.902,-0.818 5.922,-1.937 8.961,-3.8 1.511,-0.936 3.023,-2.073 4.425,-3.472 1.399,-1.396 2.67,-3.068 3.647,-4.907 0.984,-1.837 1.66,-3.817 2.043,-5.748 0.094,-0.483 0.174,-0.964 0.238,-1.44 0.059,-0.485 0.109,-0.914 0.147,-1.487 l 0.037,-0.658 0.008,-0.236 c 10e-4,0.384 0.011,-0.783 0.005,-0.764 l -0.037,-1.071 c -0.134,-2.872 -0.427,-5.853 -1.226,-9.064 -0.403,-1.604 -0.959,-3.271 -1.762,-4.979 -0.803,-1.701 -1.885,-3.458 -3.326,-5.061 -1.432,-1.605 -3.231,-3.006 -5.112,-3.998 -1.88,-1.004 -3.798,-1.623 -5.58,-2.004 -3.584,-0.746 -6.668,-0.705 -9.502,-0.589 -5.634,0.303 -10.474,1.048 -15.115,1.311 l -1.701,0.088 -0.449,0.016 c -0.522,0.001 0.449,0.009 0.256,0.004 l -0.252,-0.007 -1,-0.024 c -1.336,-0.028 -2.668,-0.035 -3.996,-0.023 -2.657,0.024 -5.297,0.127 -7.912,0.284 -10.473,0.608 -20.502,2.26 -29.95,2.772 -4.724,0.255 -9.3,0.2 -13.697,-0.402 -4.399,-0.595 -8.62,-1.747 -12.662,-3.5 -8.078,-3.485 -15.445,-9.337 -22.012,-16.126 l -1.184,-1.246 -1.214,-1.345 c -0.804,-0.899 -1.594,-1.805 -2.368,-2.719 -1.548,-1.826 -3.038,-3.679 -4.428,-5.562 -2.782,-3.734 -5.283,-7.659 -6.666,-11.418 -0.685,-1.862 -1.042,-3.646 -0.973,-5.055 0.068,-1.424 0.438,-2.455 1.319,-3.566 0.881,-1.095 2.348,-2.199 4.148,-3.106 1.801,-0.915 3.888,-1.663 6.078,-2.276 4.398,-1.226 9.181,-1.963 14.019,-2.51 4.85,-0.54 9.793,-0.876 14.771,-1.154 l 7.502,-0.386 c 2.564,-0.126 5.127,-0.3 7.688,-0.527 5.123,-0.458 10.244,-1.118 15.355,-2.153 5.106,-1.058 10.219,-2.412 15.215,-4.873 2.473,-1.268 4.982,-2.837 7.055,-5.319 1.019,-1.241 1.892,-2.745 2.367,-4.42 0.492,-1.668 0.545,-3.441 0.293,-5.049 -0.535,-3.243 -2.039,-5.821 -3.641,-8.064 -1.639,-2.24 -3.469,-4.187 -5.367,-6.007 -3.842,-3.619 -7.875,-6.702 -12.223,-9.623 -4.435,-2.894 -9.449,-5.011 -14.66,-6.121 -5.215,-1.132 -10.568,-1.196 -15.727,-0.659 -5.176,0.517 -10.194,1.6 -15.112,2.76 -4.921,1.157 -9.768,2.368 -14.609,3.27 -4.835,0.911 -9.692,1.421 -14.457,1.18 -4.763,-0.22 -9.412,-1.3 -13.688,-3.261 -4.297,-2.02 -8.506,-4.58 -12.021,-7.663 -3.536,-3.07 -6.446,-6.759 -8.012,-10.873 -1.601,-4.094 -1.802,-8.538 -0.663,-12.716 1.112,-4.191 3.5,-8.073 6.578,-11.332 6.198,-6.555 14.921,-10.696 23.864,-12.141 1.122,-0.182 2.249,-0.323 3.38,-0.425 l 0.817,-0.063 0.47,-0.031 0.235,-0.017 c -0.681,0.043 -0.067,0.015 -0.164,0.024 0.566,0.007 1.132,0.03 1.699,0.057 2.265,0.114 4.537,0.394 6.809,0.806 4.546,0.824 9.103,2.133 13.695,3.711 9.188,3.137 18.555,7.288 29.087,9.791 5.251,1.245 10.804,2.016 16.471,1.955 5.665,-0.044 11.391,-1.032 16.776,-2.794 l 6.365,-2.082 -2.129,-6.463 c -1.97,-5.987 -5.101,-11.828 -9.326,-16.828 -4.207,-5.023 -9.49,-9.016 -14.992,-11.993 -5.518,-2.996 -11.244,-5.084 -16.879,-6.777 -5.646,-1.679 -11.237,-2.95 -16.677,-4.236 -5.438,-1.278 -10.737,-2.575 -15.737,-4.186 -4.987,-1.62 -9.661,-3.621 -13.56,-6.341 -1.948,-1.361 -3.704,-2.887 -5.236,-4.601 -0.383,-0.429 -0.752,-0.869 -1.105,-1.322 -0.385,-0.494 -0.594,-0.773 -1.048,-1.436 l -0.075,-0.108 c 0.325,0.518 0.072,0.114 0.137,0.217 l -0.032,-0.052 -0.124,-0.205 -0.248,-0.409 -0.481,-0.824 c -0.316,-0.549 -0.62,-1.1 -0.91,-1.653 -2.33,-4.392 -3.802,-9.05 -3.332,-12.76 0.225,-1.854 0.896,-3.481 2.09,-5.007 1.187,-1.521 2.914,-2.896 4.94,-4.057 4.08,-2.342 9.164,-3.823 14.351,-4.814 10.463,-1.976 21.569,-2.267 32.589,-1.862 11.048,0.409 22.142,1.495 33.136,3.242 5.502,0.851 10.982,1.869 16.398,3.147 5.401,1.281 10.834,2.685 15.813,5.002 L 0,0 z"
             style="fill:#ee3338;fill-opacity:1;fill-rule:nonzero;stroke:none"
             id="path3249"
             inkscape:connector-curvature="0" /></g><g
           id="g3251"
           transform="translate(214.4814,473.5215)"><path
             d="m 0,0 c 2.395,1.616 4.972,2.878 7.566,4.045 2.601,1.162 5.242,2.218 7.91,3.19 5.342,1.924 10.767,3.587 16.239,5.085 5.476,1.484 11.011,2.742 16.582,3.861 5.574,1.096 11.185,2.085 16.853,2.765 5.665,0.698 11.372,1.195 17.136,1.399 5.762,0.188 11.584,0.131 17.473,-0.545 5.877,-0.713 11.877,-1.863 17.808,-4.671 2.938,-1.43 5.881,-3.353 8.368,-6.094 2.492,-2.709 4.334,-6.335 5.013,-10.026 0.713,-3.699 0.446,-7.309 -0.256,-10.576 -0.703,-3.284 -1.822,-6.293 -3.105,-9.132 -0.322,-0.71 -0.656,-1.409 -1.002,-2.097 l -0.525,-1.027 -0.268,-0.507 -0.135,-0.253 -0.033,-0.063 c -0.084,-0.143 0.141,0.229 -0.195,-0.335 l -0.069,-0.112 c -0.306,-0.516 -0.875,-1.408 -1.322,-2.044 -0.471,-0.682 -0.965,-1.348 -1.48,-1.998 -2.057,-2.603 -4.454,-4.916 -7.02,-6.89 -5.146,-3.972 -10.824,-6.649 -16.396,-8.777 -5.59,-2.13 -11.168,-3.683 -16.596,-5.211 -5.432,-1.515 -10.736,-2.978 -15.796,-4.692 -5.058,-1.699 -9.867,-3.676 -14.146,-6.19 -4.281,-2.508 -7.971,-5.576 -10.923,-9.224 -2.956,-3.651 -5.11,-7.937 -6.635,-12.612 l -4.431,8.445 c 8.355,-2.678 17.196,-2.588 26.257,-0.463 9.082,2.052 18.295,5.815 28.203,8.915 4.955,1.542 10.112,2.942 15.496,3.708 2.688,0.383 5.426,0.617 8.184,0.651 0.689,0.007 1.381,0.007 2.07,-0.011 l 0.635,-0.022 0.234,-0.025 0.469,-0.049 1.059,-0.123 c 1.367,-0.174 2.726,-0.398 4.076,-0.67 10.767,-2.184 20.988,-7.491 28.346,-15.877 3.636,-4.189 6.529,-9.212 7.857,-14.798 1.357,-5.564 0.873,-11.648 -1.369,-16.856 -2.215,-5.238 -5.865,-9.544 -9.94,-12.99 -2.046,-1.73 -4.222,-3.255 -6.464,-4.628 -1.12,-0.691 -2.256,-1.342 -3.409,-1.958 l -1.722,-0.896 c -0.578,-0.292 -1.227,-0.599 -1.821,-0.865 -4.882,-2.193 -10.199,-3.388 -15.466,-3.676 -5.282,-0.3 -10.485,0.279 -15.534,1.113 -10.089,1.719 -19.736,4.608 -29.445,5.304 -4.836,0.342 -9.654,0.08 -14.234,-1.085 -4.585,-1.149 -8.874,-3.26 -12.728,-6.03 -3.855,-2.869 -7.682,-6.105 -10.985,-9.55 -1.65,-1.729 -3.175,-3.551 -4.374,-5.459 -1.199,-1.891 -2.082,-3.902 -2.229,-5.665 -0.144,-1.762 0.382,-3.15 1.622,-4.484 1.243,-1.323 3.122,-2.433 5.17,-3.304 4.147,-1.747 8.926,-2.654 13.7,-3.282 4.8,-0.609 9.696,-0.88 14.601,-0.954 2.454,-0.036 4.912,-0.015 7.37,0.049 l 7.562,0.182 c 5.064,0.097 10.166,0.138 15.334,-0.045 5.172,-0.198 10.406,-0.574 15.795,-1.638 2.693,-0.544 5.435,-1.264 8.218,-2.411 2.758,-1.159 5.66,-2.752 8.159,-5.399 1.238,-1.312 2.335,-2.89 3.126,-4.622 0.799,-1.729 1.278,-3.584 1.479,-5.372 0.402,-3.609 -0.189,-6.867 -1.025,-9.775 -1.758,-5.808 -4.512,-10.588 -7.434,-15.092 -1.482,-2.238 -3.035,-4.384 -4.631,-6.475 -0.797,-1.045 -1.607,-2.076 -2.426,-3.093 l -1.234,-1.517 -0.697,-0.825 -0.635,-0.733 c -3.516,-4.022 -7.275,-7.827 -11.486,-11.326 -4.194,-3.496 -8.86,-6.614 -13.938,-9.091 -5.07,-2.481 -10.562,-4.245 -16.081,-5.241 -5.526,-1.01 -11.038,-1.295 -16.349,-1.247 -5.318,0.047 -10.461,0.4 -15.47,0.725 -5.01,0.33 -9.893,0.628 -14.699,0.727 -2.402,0.047 -4.786,0.043 -7.152,-0.031 -1.183,-0.038 -2.362,-0.09 -3.537,-0.163 l -0.88,-0.056 -0.22,-0.015 -0.727,-0.022 -0.494,-0.002 -2.063,0.022 c -5.401,0.11 -10.545,0.664 -14.952,0.702 -2.178,0.022 -4.161,-0.129 -5.488,-0.486 -0.666,-0.173 -1.143,-0.383 -1.469,-0.581 -0.329,-0.203 -0.529,-0.386 -0.757,-0.667 -0.447,-0.526 -1.005,-1.721 -1.363,-3.415 -0.37,-1.68 -0.55,-3.728 -0.578,-5.873 l -0.005,-0.812 c 0.002,-0.175 -0.029,0.834 -0.007,0.294 l 0.015,-0.235 0.016,-0.217 0.011,-0.062 0.053,-0.387 c 0.024,-0.146 0.053,-0.283 0.082,-0.416 0.127,-0.526 0.294,-0.94 0.508,-1.312 0.415,-0.722 1.126,-1.444 2.414,-2.191 1.272,-0.732 3.008,-1.383 4.946,-1.883 1.943,-0.5 4.083,-0.861 6.304,-1.11 4.452,-0.499 9.201,-0.593 14.004,-0.511 4.811,0.095 9.703,0.32 14.628,0.653 9.855,0.656 19.835,1.647 29.928,2.405 10.098,0.756 20.304,1.477 30.753,1.349 5.227,-0.073 10.518,-0.336 15.91,-1.055 5.387,-0.745 10.918,-1.872 16.489,-4.323 2.769,-1.238 5.556,-2.848 8.097,-5.046 2.539,-2.177 4.77,-5.009 6.248,-8.151 1.495,-3.14 2.25,-6.484 2.452,-9.646 0.212,-3.174 -0.053,-6.193 -0.545,-9.053 -1.016,-5.72 -2.885,-10.879 -5.024,-15.775 -2.154,-4.892 -4.619,-9.518 -7.242,-13.999 l -0.992,-1.672 -1.055,-1.728 c -0.685,-1.084 -1.441,-2.24 -2.189,-3.33 -1.52,-2.215 -3.172,-4.401 -5.133,-6.536 -1.981,-2.106 -4.248,-4.28 -7.565,-5.882 -1.65,-0.782 -3.611,-1.338 -5.589,-1.43 -1.981,-0.108 -3.868,0.232 -5.475,0.727 -3.229,1.028 -5.578,2.481 -7.805,3.761 -2.209,1.304 -4.246,2.532 -6.31,3.592 -4.104,2.125 -8.309,3.581 -12.783,4.183 -2.231,0.304 -4.512,0.399 -6.815,0.315 -1.152,-0.042 -2.309,-0.133 -3.469,-0.262 -1.154,-0.133 -2.374,-0.293 -3.318,-0.51 -4.255,-0.928 -8.401,-3.075 -12.126,-5.843 -7.432,-5.586 -13.37,-13.756 -15.931,-22.869 -1.25,-4.549 -1.51,-9.403 -0.225,-13.939 1.23,-4.55 4.15,-8.626 8.038,-11.609 l -0.861,-1.228 c -2.179,1.377 -4.206,3.063 -5.922,5.069 -1.716,2.004 -3.107,4.324 -4.071,6.824 -1.93,5.028 -2.082,10.6 -1.118,15.818 0.958,5.25 3.012,10.228 5.731,14.781 2.732,4.552 6.153,8.711 10.229,12.259 4.074,3.531 8.874,6.451 14.366,8.055 1.485,0.431 2.751,0.663 4.079,0.909 1.326,0.233 2.666,0.426 4.02,0.562 2.706,0.274 5.468,0.342 8.238,0.145 2.767,-0.194 5.541,-0.654 8.237,-1.37 2.693,-0.722 5.302,-1.703 7.771,-2.818 2.469,-1.109 4.805,-2.359 6.986,-3.496 2.168,-1.13 4.248,-2.146 5.858,-2.529 0.803,-0.193 1.439,-0.233 1.969,-0.16 0.531,0.07 1.025,0.239 1.626,0.566 1.198,0.652 2.653,2.009 3.995,3.644 2.687,3.314 5.224,7.501 7.427,11.697 2.28,4.288 4.362,8.64 6.077,13.024 1.709,4.372 3.05,8.815 3.607,13.031 0.564,4.217 0.191,8.086 -1.248,10.807 -0.719,1.38 -1.693,2.559 -2.998,3.612 -1.299,1.052 -2.92,1.962 -4.758,2.713 -3.689,1.505 -8.123,2.361 -12.689,2.835 -4.586,0.474 -9.358,0.58 -14.174,0.501 -9.653,-0.18 -19.508,-0.987 -29.425,-1.96 -9.925,-0.986 -19.938,-2.057 -30.126,-2.861 -5.097,-0.39 -10.239,-0.736 -15.476,-0.834 -5.238,-0.096 -10.559,-0.027 -16.098,0.576 -2.77,0.309 -5.602,0.759 -8.527,1.502 -2.921,0.752 -5.964,1.801 -9.045,3.593 -1.533,0.901 -3.071,2.003 -4.504,3.369 -1.431,1.362 -2.741,3.005 -3.761,4.82 -1.025,1.814 -1.746,3.779 -2.174,5.701 -0.106,0.48 -0.197,0.959 -0.271,1.434 -0.071,0.484 -0.131,0.91 -0.182,1.482 l -0.052,0.66 -0.014,0.235 c 0.009,-0.384 -0.03,0.783 -0.023,0.764 l 0.014,1.072 c 0.067,2.873 0.293,5.86 1.018,9.089 0.365,1.612 0.884,3.291 1.646,5.016 0.762,1.719 1.804,3.5 3.208,5.136 1.393,1.638 3.158,3.081 5.015,4.116 1.858,1.047 3.762,1.711 5.535,2.134 3.565,0.828 6.651,0.858 9.486,0.807 5.642,-0.174 10.496,-0.808 15.142,-0.966 l 1.704,-0.049 0.448,-0.006 c 0.523,0.012 -0.449,-0.019 -0.256,-0.01 l 0.25,0.012 1.001,0.048 c 1.334,0.059 2.665,0.096 3.994,0.114 2.656,0.037 5.298,-0.005 7.917,-0.101 10.483,-0.367 20.548,-1.789 30.005,-2.085 4.73,-0.148 9.303,0.012 13.686,0.714 4.383,0.694 8.578,1.942 12.578,3.787 7.998,3.668 15.228,9.685 21.64,16.622 l 1.155,1.272 1.181,1.373 c 0.783,0.917 1.553,1.841 2.305,2.773 1.508,1.86 2.953,3.748 4.301,5.662 2.695,3.796 5.105,7.777 6.404,11.567 0.641,1.877 0.959,3.669 0.857,5.078 -0.099,1.421 -0.494,2.445 -1.398,3.535 -0.906,1.075 -2.397,2.144 -4.217,3.01 -1.82,0.874 -3.926,1.574 -6.127,2.137 -4.426,1.126 -9.224,1.754 -14.074,2.189 -4.861,0.429 -9.811,0.652 -14.793,0.817 l -7.508,0.214 c -2.567,0.067 -5.132,0.182 -7.699,0.351 -5.131,0.34 -10.267,0.882 -15.399,1.8 -5.129,0.941 -10.271,2.177 -15.324,4.523 -2.501,1.211 -5.046,2.721 -7.175,5.154 -1.046,1.218 -1.956,2.701 -2.469,4.364 -0.53,1.656 -0.624,3.428 -0.41,5.041 0.459,3.255 1.903,5.867 3.454,8.147 1.586,2.277 3.372,4.265 5.228,6.129 3.757,3.706 7.719,6.88 11.998,9.9 4.369,2.995 9.332,5.226 14.516,6.457 5.188,1.251 10.538,1.438 15.708,1.02 5.185,-0.399 10.228,-1.366 15.172,-2.413 4.945,-1.044 9.818,-2.144 14.68,-2.934 4.853,-0.801 9.72,-1.2 14.48,-0.85 4.756,0.329 9.379,1.515 13.609,3.574 4.25,2.116 8.399,4.772 11.842,7.935 3.465,3.149 6.291,6.904 7.762,11.053 1.508,4.129 1.607,8.577 0.373,12.727 -1.207,4.164 -3.684,7.992 -6.834,11.179 -6.348,6.411 -15.162,10.351 -24.137,11.592 -1.125,0.156 -2.256,0.272 -3.388,0.347 l -0.819,0.045 -0.471,0.02 -0.234,0.011 c 0.68,-0.027 0.067,-0.012 0.164,-0.021 -0.566,-0.019 -1.131,-0.054 -1.697,-0.094 -2.262,-0.167 -4.527,-0.498 -6.789,-0.961 -4.526,-0.928 -9.051,-2.34 -13.606,-4.022 -9.115,-3.347 -18.384,-7.711 -28.856,-10.455 -5.22,-1.364 -10.754,-2.262 -16.422,-2.331 -5.664,-0.086 -11.41,0.771 -16.835,2.409 l -6.411,1.936 1.98,6.509 c 1.834,6.031 4.83,11.943 8.938,17.038 4.092,5.117 9.282,9.23 14.714,12.333 5.449,3.12 11.124,5.339 16.719,7.16 5.606,1.808 11.168,3.207 16.576,4.617 5.408,1.403 10.675,2.82 15.636,4.545 4.95,1.733 9.577,3.842 13.413,6.651 1.916,1.404 3.636,2.97 5.128,4.719 0.373,0.437 0.733,0.886 1.075,1.348 0.373,0.502 0.576,0.785 1.015,1.458 l 0.073,0.11 c -0.315,-0.525 -0.071,-0.116 -0.133,-0.22 l 0.031,0.052 0.119,0.208 0.238,0.416 0.463,0.833 c 0.303,0.557 0.594,1.115 0.871,1.674 2.229,4.444 3.594,9.134 3.039,12.832 -0.267,1.849 -0.974,3.46 -2.203,4.957 -1.222,1.495 -2.978,2.83 -5.033,3.944 -4.131,2.248 -9.248,3.612 -14.455,4.484 C 87.95,12.21 76.841,12.248 65.833,11.59 54.797,10.929 43.731,9.589 32.781,7.59 27.3,6.615 21.843,5.471 16.459,4.07 11.089,2.666 5.688,1.138 0.764,-1.291 L 0,0 z"
             style="fill:#fcb530;fill-opacity:1;fill-rule:nonzero;stroke:none"
             id="path3253"
             inkscape:connector-curvature="0" /></g></g></g></g></svg>