<?xml version="1.0" encoding="UTF-8" standalone="no"?>
<!-- Created with Inkscape (http://www.inkscape.org/) -->

<svg
   xmlns:dc="http://purl.org/dc/elements/1.1/"
   xmlns:cc="http://creativecommons.org/ns#"
   xmlns:rdf="http://www.w3.org/1999/02/22-rdf-syntax-ns#"
   xmlns:svg="http://www.w3.org/2000/svg"
   xmlns="http://www.w3.org/2000/svg"
   xmlns:sodipodi="http://sodipodi.sourceforge.net/DTD/sodipodi-0.dtd"
   xmlns:inkscape="http://www.inkscape.org/namespaces/inkscape"
   id="svg3255"
   version="1.1"
   inkscape:version="0.48.5 r10040"
   width="79.998657"
   height="80.000214"
   xml:space="preserve"
   sodipodi:docname="kivi.svg"><metadata
     id="metadata3261"><rdf:RDF><cc:Work
         rdf:about=""><dc:format>image/svg+xml</dc:format><dc:type
           rdf:resource="http://purl.org/dc/dcmitype/StillImage" /><dc:title /></cc:Work></rdf:RDF></metadata><defs
     id="defs3259"><clipPath
       clipPathUnits="userSpaceOnUse"
       id="clipPath3269"><path
         d="m 0,566.93 566.93,0 L 566.93,0 0,0 0,566.93 z"
         id="path3271"
         inkscape:connector-curvature="0" /></clipPath></defs><sodipodi:namedview
     pagecolor="#ffffff"
     bordercolor="#666666"
     borderopacity="1"
     objecttolerance="10"
     gridtolerance="10"
     guidetolerance="10"
     inkscape:pageopacity="0"
     inkscape:pageshadow="2"
     inkscape:window-width="743"
     inkscape:window-height="480"
     id="namedview3257"
     showgrid="false"
     inkscape:zoom="0.94192767"
     inkscape:cx="172.14385"
     inkscape:cy="37.225758"
     inkscape:window-x="0"
     inkscape:window-y="0"
     inkscape:window-maximized="0"
     inkscape:current-layer="g3263"
     fit-margin-top="0"
     fit-margin-left="0"
     fit-margin-right="0"
     fit-margin-bottom="0" /><g
     id="g3263"
     inkscape:groupmode="layer"
     inkscape:label="kivi"
     transform="matrix(1.25,0,0,-1.25,-311.85616,397.10572)"><g
       id="g3265"
       transform="matrix(0.09537559,0,0,0.09459479,254.63754,258.66133)"><g
         id="g3267"
         clip-path="url(#clipPath3269)"><g
           id="g3273"
           transform="translate(481.9072,491.6792)"><path
             d="m 0,0 c 83.567,-81.305 61.574,-239.44 -49.117,-353.206 -110.695,-113.771 -268.165,-140.088 -351.729,-58.781 -83.567,81.306 -61.574,239.441 49.119,353.211 C -241.037,54.989 -83.565,81.307 0,0"
             style="fill:#90c84b;fill-opacity:1;fill-rule:nonzero;stroke:none"
             id="path3275"
             inkscape:connector-curvature="0" /></g><g
           id="g3277"
           transform="translate(481.9072,491.6792)"><path
             d="m 0,0 c 83.567,-81.305 61.574,-239.44 -49.117,-353.206 -110.695,-113.771 -268.165,-140.088 -351.729,-58.781 -83.567,81.306 -61.574,239.441 49.119,353.211 C -241.037,54.989 -83.565,81.307 0,0 z"
             style="fill:none;stroke:#236f46;stroke-width:1;stroke-linecap:butt;stroke-linejoin:miter;stroke-miterlimit:10;stroke-opacity:1;stroke-dasharray:none"
             id="path3279"
             inkscape:connector-curvature="0" /></g><g
           id="g3281"
           transform="translate(384.6846,381.5557)"><path
             d="m 0,0 c 46.789,-23.633 5.82,-94.845 -48.994,-151.179 -54.809,-56.337 -131.246,-74.565 -149.499,-52.831 -33.587,40.005 -17.951,103.973 36.859,160.304 C -106.819,12.63 -44.056,22.252 0,0"
             style="fill:#d8e037;fill-opacity:1;fill-rule:nonzero;stroke:none"
             id="path3283"
             inkscape:connector-curvature="0" /></g><g
           id="g3285"
           transform="translate(193.6372,293.2441)"><path
             d="M 0,0 C 15.749,-11.518 26.04,-24.236 22.99,-28.408 19.938,-32.583 4.698,-26.633 -11.054,-15.12 -26.801,-3.601 -37.095,9.118 -34.044,13.292 -30.989,17.466 -15.75,11.514 0,0"
             style="fill:#373535;fill-opacity:1;fill-rule:nonzero;stroke:none"
             id="path3287"
             inkscape:connector-curvature="0" /></g><g
           id="g3289"
           transform="translate(394.7422,347.9224)"><path
             d="M 0,0 C 16.545,10.341 32.174,15.167 34.914,10.783 37.656,6.399 26.469,-5.536 9.926,-15.88 -6.623,-26.219 -22.252,-31.049 -24.995,-26.663 -27.737,-22.276 -16.545,-10.342 0,0"
             style="fill:#373535;fill-opacity:1;fill-rule:nonzero;stroke:none"
             id="path3291"
             inkscape:connector-curvature="0" /></g><g
           id="g3293"
           transform="translate(210.4214,332.6025)"><path
             d="m 0,0 c 15.751,-11.518 26.041,-24.235 22.99,-28.409 -3.05,-4.174 -18.293,1.776 -34.041,13.29 C -26.801,-3.601 -37.094,9.118 -34.042,13.292 -30.989,17.466 -15.746,11.515 0,0"
             style="fill:#373535;fill-opacity:1;fill-rule:nonzero;stroke:none"
             id="path3295"
             inkscape:connector-curvature="0" /></g><g
           id="g3297"
           transform="translate(401.8955,304.2808)"><path
             d="m 0,0 c 18.97,-4.57 33.362,-12.351 32.148,-17.377 -1.207,-5.029 -17.564,-5.4 -36.532,-0.829 -18.97,4.573 -33.361,12.354 -32.151,17.381 C -35.321,4.202 -18.965,4.571 0,0"
             style="fill:#373535;fill-opacity:1;fill-rule:nonzero;stroke:none"
             id="path3299"
             inkscape:connector-curvature="0" /></g><g
           id="g3301"
           transform="translate(340.3389,242.3184)"><path
             d="m 0,0 c 15.747,-11.516 26.035,-24.233 22.984,-28.407 -3.049,-4.176 -18.29,1.774 -34.039,13.292 -15.751,11.517 -26.04,24.233 -22.99,28.409 C -30.994,17.467 -15.752,11.518 0,0"
             style="fill:#373535;fill-opacity:1;fill-rule:nonzero;stroke:none"
             id="path3303"
             inkscape:connector-curvature="0" /></g><g
           id="g3305"
           transform="translate(358.2002,271.0596)"><path
             d="M 0,0 C 15.75,-11.516 26.038,-24.236 22.989,-28.408 19.938,-32.583 4.699,-26.633 -11.054,-15.12 -26.802,-3.603 -37.095,9.118 -34.044,13.292 -30.99,17.466 -15.751,11.515 0,0"
             style="fill:#373535;fill-opacity:1;fill-rule:nonzero;stroke:none"
             id="path3307"
             inkscape:connector-curvature="0" /></g><g
           id="g3309"
           transform="translate(329.1475,214.1533)"><path
             d="m 0,0 c 15.75,-11.516 26.039,-24.236 22.988,-28.408 -3.05,-4.175 -18.29,1.775 -34.043,13.29 -15.746,11.515 -26.04,24.236 -22.99,28.412 C -30.991,17.464 -15.752,11.515 0,0"
             style="fill:#373535;fill-opacity:1;fill-rule:nonzero;stroke:none"
             id="path3311"
             inkscape:connector-curvature="0" /></g><g
           id="g3313"
           transform="translate(255.1357,178.3486)"><path
             d="m 0,0 c 5.913,-18.588 6.715,-34.933 1.79,-36.498 -4.926,-1.569 -13.714,12.227 -19.638,30.817 -5.916,18.593 -6.715,34.936 -1.789,36.505 C -14.711,32.392 -5.919,18.592 0,0"
             style="fill:#373535;fill-opacity:1;fill-rule:nonzero;stroke:none"
             id="path3315"
             inkscape:connector-curvature="0" /></g><g
           id="g3317"
           transform="translate(233.9155,362.0854)"><path
             d="M 0,0 C 15.75,-11.516 26.041,-24.235 22.99,-28.409 19.938,-32.583 4.695,-26.633 -11.051,-15.117 -26.801,-3.601 -37.095,9.118 -34.044,13.292 -30.989,17.466 -15.747,11.516 0,0"
             style="fill:#373535;fill-opacity:1;fill-rule:nonzero;stroke:none"
             id="path3319"
             inkscape:connector-curvature="0" /></g><g
           id="g3321"
           transform="translate(269.7002,373.5542)"><path
             d="m 0,0 c 6.455,-18.414 7.727,-34.722 2.852,-36.434 -4.881,-1.713 -14.067,11.825 -20.525,30.237 -6.451,18.414 -7.729,34.726 -2.851,36.437 C -15.643,31.95 -6.454,18.413 0,0"
             style="fill:#373535;fill-opacity:1;fill-rule:nonzero;stroke:none"
             id="path3323"
             inkscape:connector-curvature="0" /></g><g
           id="g3325"
           transform="translate(315.0898,391.9229)"><path
             d="m 0,0 c -1.499,-19.454 -6.894,-34.898 -12.045,-34.502 -5.159,0.395 -8.123,16.487 -6.626,35.94 1.499,19.453 6.894,34.899 12.049,34.504 C -1.467,35.542 1.502,19.453 0,0"
             style="fill:#373535;fill-opacity:1;fill-rule:nonzero;stroke:none"
             id="path3327"
             inkscape:connector-curvature="0" /></g><g
           id="g3329"
           transform="translate(361.6992,390.1616)"><path
             d="m 0,0 c -5.169,-18.814 -13.401,-32.951 -18.387,-31.582 -4.982,1.368 -4.839,17.729 0.329,36.542 C -12.889,23.773 -4.655,37.914 0.33,36.546 5.321,35.173 5.169,18.813 0,0"
             style="fill:#373535;fill-opacity:1;fill-rule:nonzero;stroke:none"
             id="path3331"
             inkscape:connector-curvature="0" /></g><g
           id="g3333"
           transform="translate(397.9854,363.1123)"><path
             d="m 0,0 c -15.302,-12.105 -30.306,-18.627 -33.514,-14.574 -3.211,4.053 6.592,17.154 21.894,29.26 C 3.681,26.791 18.686,33.318 21.896,29.263 25.104,25.207 15.301,12.105 0,0"
             style="fill:#373535;fill-opacity:1;fill-rule:nonzero;stroke:none"
             id="path3335"
             inkscape:connector-curvature="0" /></g><g
           id="g3337"
           transform="translate(158.811,240.8379)"><path
             d="m 0,0 c 19.507,0.512 35.425,-3.262 35.562,-8.432 0.137,-5.17 -15.561,-9.775 -35.068,-10.289 -19.503,-0.512 -35.425,3.263 -35.562,8.432 C -35.202,-5.121 -19.499,-0.514 0,0"
             style="fill:#373535;fill-opacity:1;fill-rule:nonzero;stroke:none"
             id="path3339"
             inkscape:connector-curvature="0" /></g><g
           id="g3341"
           transform="translate(170.5884,188.0391)"><path
             d="M 0,0 C 16.152,10.947 31.593,16.351 34.494,12.071 37.4,7.794 26.657,-4.553 10.514,-15.5 -5.638,-26.449 -21.083,-31.851 -23.982,-27.573 -26.883,-23.292 -16.146,-10.948 0,0"
             style="fill:#373535;fill-opacity:1;fill-rule:nonzero;stroke:none"
             id="path3343"
             inkscape:connector-curvature="0" /></g><g
           id="g3345"
           transform="translate(161.5737,272.5195)"><path
             d="M 0,0 C 18.795,-5.24 32.903,-13.527 31.511,-18.507 30.127,-23.488 13.765,-23.276 -5.028,-18.039 -23.821,-12.795 -37.93,-4.51 -36.542,0.47 -35.15,5.451 -18.793,5.241 0,0"
             style="fill:#373535;fill-opacity:1;fill-rule:nonzero;stroke:none"
             id="path3347"
             inkscape:connector-curvature="0" /></g><g
           id="g3349"
           transform="translate(274.9106,187.6553)"><path
             d="M 0,0 C -13.896,13.696 -22.218,27.779 -18.591,31.465 -14.961,35.146 -0.754,27.034 13.146,13.34 27.04,-0.354 35.367,-14.438 31.737,-18.126 28.107,-21.807 13.895,-13.69 0,0"
             style="fill:#373535;fill-opacity:1;fill-rule:nonzero;stroke:none"
             id="path3351"
             inkscape:connector-curvature="0" /></g></g></g></g></svg>