<?xml version="1.0" encoding="UTF-8" standalone="no"?>
<!-- Created with Inkscape (http://www.inkscape.org/) -->

<svg
   xmlns:dc="http://purl.org/dc/elements/1.1/"
   xmlns:cc="http://creativecommons.org/ns#"
   xmlns:rdf="http://www.w3.org/1999/02/22-rdf-syntax-ns#"
   xmlns:svg="http://www.w3.org/2000/svg"
   xmlns="http://www.w3.org/2000/svg"
   xmlns:sodipodi="http://sodipodi.sourceforge.net/DTD/sodipodi-0.dtd"
   xmlns:inkscape="http://www.inkscape.org/namespaces/inkscape"
   id="svg3353"
   version="1.1"
   inkscape:version="0.48.5 r10040"
   width="80"
   height="80"
   xml:space="preserve"
   sodipodi:docname="kostanj.svg"><metadata
     id="metadata3359"><rdf:RDF><cc:Work
         rdf:about=""><dc:format>image/svg+xml</dc:format><dc:type
           rdf:resource="http://purl.org/dc/dcmitype/StillImage" /><dc:title /></cc:Work></rdf:RDF></metadata><defs
     id="defs3357"><clipPath
       clipPathUnits="userSpaceOnUse"
       id="clipPath3367"><path
         d="m 0,566.93 566.93,0 L 566.93,0 0,0 0,566.93 z"
         id="path3369"
         inkscape:connector-curvature="0" /></clipPath></defs><sodipodi:namedview
     pagecolor="#ffffff"
     bordercolor="#666666"
     borderopacity="1"
     objecttolerance="10"
     gridtolerance="10"
     guidetolerance="10"
     inkscape:pageopacity="0"
     inkscape:pageshadow="2"
     inkscape:window-width="743"
     inkscape:window-height="480"
     id="namedview3355"
     showgrid="false"
     inkscape:zoom="0.94192767"
     inkscape:cx="172.1425"
     inkscape:cy="39.290711"
     inkscape:window-x="0"
     inkscape:window-y="0"
     inkscape:window-maximized="0"
     inkscape:current-layer="g3361"
     fit-margin-top="0"
     fit-margin-left="0"
     fit-margin-right="0"
     fit-margin-bottom="0" /><g
     id="g3361"
     inkscape:groupmode="layer"
     inkscape:label="kostanj"
     transform="matrix(1.25,0,0,-1.25,-311.85337,395.04055)"><g
       id="g3363"
       transform="matrix(0.10777967,0,0,0.11487138,251.14458,251.40524)"><g
         id="g3365"
         clip-path="url(#clipPath3367)"><g
           id="g3371"
           transform="translate(504.1592,234.4756)"><path
             d="m 0,0 c 0,-87.205 -99.696,-157.901 -222.68,-157.901 -122.981,0 -222.673,70.696 -222.673,157.901 0,64.066 59.399,138.906 131.132,188.351 29.867,20.588 67.19,44.153 91.541,65.871 1.937,1.725 7.665,5.209 5.834,4.023 -1.827,-1.189 60.382,-51.993 87.939,-71.065 C -57.968,138.083 0,63.452 0,0"
             style="fill:#67462f;fill-opacity:1;fill-rule:nonzero;stroke:none"
             id="path3373"
             inkscape:connector-curvature="0" /></g><g
           id="g3375"
           transform="translate(445.335,138.4111)"><path
             d="m 0,0 c -16.074,-32.588 -81.656,-63.308 -163.855,-63.308 -82.2,0 -148.834,29.458 -148.834,65.794 0,36.337 66.634,65.795 148.834,65.795 C -81.656,68.281 21.8,44.191 0,0"
             style="fill:#8f6548;fill-opacity:1;fill-rule:nonzero;stroke:none"
             id="path3377"
             inkscape:connector-curvature="0" /></g></g></g></g></svg>