<?xml version="1.0" encoding="UTF-8" standalone="no"?>
<!-- Created with Inkscape (http://www.inkscape.org/) -->

<svg
   xmlns:dc="http://purl.org/dc/elements/1.1/"
   xmlns:cc="http://creativecommons.org/ns#"
   xmlns:rdf="http://www.w3.org/1999/02/22-rdf-syntax-ns#"
   xmlns:svg="http://www.w3.org/2000/svg"
   xmlns="http://www.w3.org/2000/svg"
   xmlns:sodipodi="http://sodipodi.sourceforge.net/DTD/sodipodi-0.dtd"
   xmlns:inkscape="http://www.inkscape.org/namespaces/inkscape"
   id="svg3379"
   version="1.1"
   inkscape:version="0.48.5 r10040"
   width="80"
   height="80"
   xml:space="preserve"
   sodipodi:docname="krompir.svg"><metadata
     id="metadata3385"><rdf:RDF><cc:Work
         rdf:about=""><dc:format>image/svg+xml</dc:format><dc:type
           rdf:resource="http://purl.org/dc/dcmitype/StillImage" /><dc:title /></cc:Work></rdf:RDF></metadata><defs
     id="defs3383"><clipPath
       clipPathUnits="userSpaceOnUse"
       id="clipPath3395"><path
         d="m 0,566.93 566.93,0 L 566.93,0 0,0 0,566.93 z"
         id="path3397"
         inkscape:connector-curvature="0" /></clipPath></defs><sodipodi:namedview
     pagecolor="#ffffff"
     bordercolor="#666666"
     borderopacity="1"
     objecttolerance="10"
     gridtolerance="10"
     guidetolerance="10"
     inkscape:pageopacity="0"
     inkscape:pageshadow="2"
     inkscape:window-width="743"
     inkscape:window-height="480"
     id="namedview3381"
     showgrid="false"
     inkscape:zoom="0.94192767"
     inkscape:cx="172.1425"
     inkscape:cy="52.104763"
     inkscape:window-x="0"
     inkscape:window-y="0"
     inkscape:window-maximized="0"
     inkscape:current-layer="g3387"
     fit-margin-top="0"
     fit-margin-left="0"
     fit-margin-right="0"
     fit-margin-bottom="0" /><g
     id="g3387"
     inkscape:groupmode="layer"
     inkscape:label="krompir"
     transform="matrix(1.25,0,0,-1.25,-313.88937,397.61382)"><g
       id="g3391"
       transform="matrix(0.13780432,0,0,0.10140859,244.09751,257.07897)"><g
         id="g3393"
         clip-path="url(#clipPath3395)"><g
           id="g3399"
           transform="translate(457.2715,286.7144)"><path
             d="m 0,0 c 0,-58.799 -20.665,-90.237 -45.972,-131.565 -19.055,-31.115 -39.035,-65.745 -67.188,-79.566 -17.351,-8.515 -35.391,-24.911 -54.81,-24.911 -31.991,0 -68.262,-7.507 -93.714,14.307 -25.911,22.208 -51.232,59.363 -65.416,97.244 -12.282,32.791 -21.22,77.894 -21.22,117.52 0,33.878 17.453,73.056 26.602,102.182 26.043,82.941 85.084,140.832 153.748,140.832 56.284,0 84.447,-60.618 114.929,-120.327 C -33.289,77.005 0,51.271 0,0"
             style="fill:#ac8059;fill-opacity:1;fill-rule:nonzero;stroke:none"
             id="path3401"
             inkscape:connector-curvature="0" /></g><g
           id="g3403"
           transform="translate(363.5635,336.1558)"><path
             d="m 0,0 c 0,-27.303 -15.437,-49.441 -34.479,-49.441 -19.041,0 -34.476,22.138 -34.476,49.441 0,27.303 15.435,49.439 34.476,49.439 12.011,0 12.392,-16.835 18.565,-30.195 C -12.299,11.431 0,10.078 0,0"
             style="fill:#c59d72;fill-opacity:1;fill-rule:nonzero;stroke:none"
             id="path3405"
             inkscape:connector-curvature="0" /></g><g
           id="g3407"
           transform="translate(249.5186,172.7373)"><path
             d="m 0,0 c 0,-8.89 -6.004,-16.094 -13.411,-16.094 -7.407,0 -13.411,7.204 -13.411,16.094 0,8.888 6.004,16.092 13.411,16.092 C -6.004,16.092 0,8.888 0,0"
             style="fill:#67462f;fill-opacity:1;fill-rule:nonzero;stroke:none"
             id="path3409"
             inkscape:connector-curvature="0" /></g><g
           id="g3411"
           transform="translate(329.085,114.7998)"><path
             d="m 0,0 c 0,-1.78 -1.238,-3.221 -2.769,-3.221 -1.526,0 -2.77,1.441 -2.77,3.221 0,1.775 1.244,3.218 2.77,3.218 C -1.238,3.218 0,1.775 0,0"
             style="fill:#67462f;fill-opacity:1;fill-rule:nonzero;stroke:none"
             id="path3413"
             inkscape:connector-curvature="0" /></g><g
           id="g3415"
           transform="translate(222.6963,326.8672)"><path
             d="m 0,0 c 0,-5.129 -4.324,-9.29 -9.656,-9.29 -5.335,0 -9.657,4.161 -9.657,9.29 0,5.128 4.322,9.289 9.657,9.289 C -4.324,9.289 0,5.128 0,0"
             style="fill:#67462f;fill-opacity:1;fill-rule:nonzero;stroke:none"
             id="path3417"
             inkscape:connector-curvature="0" /></g><g
           id="g3419"
           transform="translate(175.4888,229.4121)"><path
             d="m 0,0 c 0,-11.732 1.387,-31.54 0,-40.583 -2.313,-15.08 -8.43,-16.092 -12.877,-16.092 -5.332,0 -9.907,14.269 -11.859,34.612 -0.657,6.783 -1.015,14.241 -1.015,22.063 0,11.576 11.525,19.117 12.874,28.081 2.308,15.295 -4.482,28.596 0,28.596 4.481,0 8.43,-10.078 10.738,-25.375 C -0.791,22.33 0,11.576 0,0"
             style="fill:#67462f;fill-opacity:1;fill-rule:nonzero;stroke:none"
             id="path3421"
             inkscape:connector-curvature="0" /></g></g></g></g></svg>