<?xml version="1.0" encoding="UTF-8" standalone="no"?>
<!-- Created with Inkscape (http://www.inkscape.org/) -->

<svg
   xmlns:dc="http://purl.org/dc/elements/1.1/"
   xmlns:cc="http://creativecommons.org/ns#"
   xmlns:rdf="http://www.w3.org/1999/02/22-rdf-syntax-ns#"
   xmlns:svg="http://www.w3.org/2000/svg"
   xmlns="http://www.w3.org/2000/svg"
   xmlns:sodipodi="http://sodipodi.sourceforge.net/DTD/sodipodi-0.dtd"
   xmlns:inkscape="http://www.inkscape.org/namespaces/inkscape"
   id="svg3423"
   version="1.1"
   inkscape:version="0.48.5 r10040"
   width="80.000832"
   height="80.003769"
   xml:space="preserve"
   sodipodi:docname="kruh.svg"><metadata
     id="metadata3429"><rdf:RDF><cc:Work
         rdf:about=""><dc:format>image/svg+xml</dc:format><dc:type
           rdf:resource="http://purl.org/dc/dcmitype/StillImage" /><dc:title /></cc:Work></rdf:RDF></metadata><defs
     id="defs3427"><clipPath
       clipPathUnits="userSpaceOnUse"
       id="clipPath3437"><path
         d="m 0,566.93 566.93,0 L 566.93,0 0,0 0,566.93 z"
         id="path3439"
         inkscape:connector-curvature="0" /></clipPath></defs><sodipodi:namedview
     pagecolor="#ffffff"
     bordercolor="#666666"
     borderopacity="1"
     objecttolerance="10"
     gridtolerance="10"
     guidetolerance="10"
     inkscape:pageopacity="0"
     inkscape:pageshadow="2"
     inkscape:window-width="743"
     inkscape:window-height="480"
     id="namedview3425"
     showgrid="false"
     inkscape:zoom="0.94192767"
     inkscape:cx="172.14167"
     inkscape:cy="39.759645"
     inkscape:window-x="0"
     inkscape:window-y="0"
     inkscape:window-maximized="0"
     inkscape:current-layer="g3431"
     fit-margin-top="0"
     fit-margin-left="0"
     fit-margin-right="0"
     fit-margin-bottom="0" /><g
     id="g3431"
     inkscape:groupmode="layer"
     inkscape:label="kruh"
     transform="matrix(1.25,0,0,-1.25,-319.05693,394.57538)"><g
       id="g3433"
       transform="matrix(0.10043392,0,0,0.13407591,258.39695,245.62793)"><g
         id="g3435"
         clip-path="url(#clipPath3437)"><g
           id="g3441"
           transform="translate(525.6318,191.1377)"><path
             d="m 0,0 c 0,-47.521 -82.073,-86.048 -183.314,-86.048 -101.241,0 -183.309,38.527 -183.309,86.048 0,47.517 82.068,86.044 183.309,86.044 C -82.073,86.044 0,47.517 0,0"
             style="fill:#ffd17b;fill-opacity:1;fill-rule:nonzero;stroke:none"
             id="path3443"
             inkscape:connector-curvature="0" /></g><g
           id="g3445"
           transform="translate(525.6318,191.1377)"><path
             d="m 0,0 c 0,-47.521 -82.073,-86.048 -183.314,-86.048 -101.241,0 -183.309,38.527 -183.309,86.048 0,47.517 82.068,86.044 183.309,86.044 C -82.073,86.044 0,47.517 0,0 z"
             style="fill:none;stroke:#8f6548;stroke-width:1;stroke-linecap:butt;stroke-linejoin:miter;stroke-miterlimit:10;stroke-opacity:1;stroke-dasharray:none"
             id="path3447"
             inkscape:connector-curvature="0" /></g><g
           id="g3449"
           transform="translate(524.5645,200.4326)"><path
             d="m 0,0 c 0,0 -36.137,169.026 -306.842,253.823 0,0 -113.682,41.5 -163.462,-64.844 0,0 -44.039,-39.898 119.416,-232.049"
             style="fill:#ffd17b;fill-opacity:1;fill-rule:nonzero;stroke:#8f6548;stroke-width:1;stroke-linecap:butt;stroke-linejoin:miter;stroke-miterlimit:10;stroke-opacity:1;stroke-dasharray:none"
             id="path3451"
             inkscape:connector-curvature="0" /></g><g
           id="g3453"
           transform="translate(227.9463,398.9272)"><path
             d="m 0,0 c 0,0 -47.603,7.492 -80.387,-16.839 0,0 -32.762,-26.337 0.326,-17.129 0,0 70.029,21.54 110.749,19.053"
             style="fill:#ffd17b;fill-opacity:1;fill-rule:nonzero;stroke:#8f6548;stroke-width:1;stroke-linecap:butt;stroke-linejoin:miter;stroke-miterlimit:10;stroke-opacity:1;stroke-dasharray:none"
             id="path3455"
             inkscape:connector-curvature="0" /></g><g
           id="g3457"
           transform="translate(318.5977,344.0088)"><path
             d="m 0,0 c 0,0 -72.671,14.813 -124.761,-20.327 0,0 -52.192,-38.23 -0.681,-26.355 0,0 109.157,28.27 171.588,21.634"
             style="fill:#ffd17b;fill-opacity:1;fill-rule:nonzero;stroke:#8f6548;stroke-width:1;stroke-linecap:butt;stroke-linejoin:miter;stroke-miterlimit:10;stroke-opacity:1;stroke-dasharray:none"
             id="path3459"
             inkscape:connector-curvature="0" /></g><g
           id="g3461"
           transform="translate(390.1563,184.8271)"><path
             d="m 0,0 c 0,-3.487 -4.019,-6.311 -8.979,-6.311 -4.959,0 -8.979,2.824 -8.979,6.311 0,3.485 4.02,6.311 8.979,6.311 C -4.019,6.311 0,3.485 0,0"
             style="fill:#ffd17b;fill-opacity:1;fill-rule:nonzero;stroke:none"
             id="path3463"
             inkscape:connector-curvature="0" /></g><g
           id="g3465"
           transform="translate(390.1563,184.8271)"><path
             d="m 0,0 c 0,-3.487 -4.019,-6.311 -8.979,-6.311 -4.959,0 -8.979,2.824 -8.979,6.311 0,3.485 4.02,6.311 8.979,6.311 C -4.019,6.311 0,3.485 0,0 z"
             style="fill:none;stroke:#8f6548;stroke-width:1;stroke-linecap:butt;stroke-linejoin:miter;stroke-miterlimit:10;stroke-opacity:1;stroke-dasharray:none"
             id="path3467"
             inkscape:connector-curvature="0" /></g><g
           id="g3469"
           transform="translate(332.6934,216.2256)"><path
             d="m 0,0 c 0,-2.312 -3.751,-4.189 -8.381,-4.189 -4.626,0 -8.378,1.877 -8.378,4.189 0,2.313 3.752,4.19 8.378,4.19 C -3.751,4.19 0,2.313 0,0"
             style="fill:#ffd17b;fill-opacity:1;fill-rule:nonzero;stroke:none"
             id="path3471"
             inkscape:connector-curvature="0" /></g><g
           id="g3473"
           transform="translate(332.6934,216.2256)"><path
             d="m 0,0 c 0,-2.312 -3.751,-4.189 -8.381,-4.189 -4.626,0 -8.378,1.877 -8.378,4.189 0,2.313 3.752,4.19 8.378,4.19 C -3.751,4.19 0,2.313 0,0 z"
             style="fill:none;stroke:#8f6548;stroke-width:1;stroke-linecap:butt;stroke-linejoin:miter;stroke-miterlimit:10;stroke-opacity:1;stroke-dasharray:none"
             id="path3475"
             inkscape:connector-curvature="0" /></g><g
           id="g3477"
           transform="translate(267.5894,159.9609)"><path
             d="m 0,0 c 0,-6.943 -7.933,-12.572 -17.725,-12.572 -9.792,0 -17.733,5.629 -17.733,12.572 0,6.942 7.941,12.568 17.733,12.568 C -7.933,12.568 0,6.942 0,0"
             style="fill:#ffd17b;fill-opacity:1;fill-rule:nonzero;stroke:none"
             id="path3479"
             inkscape:connector-curvature="0" /></g><g
           id="g3481"
           transform="translate(267.5894,159.9609)"><path
             d="m 0,0 c 0,-6.943 -7.933,-12.572 -17.725,-12.572 -9.792,0 -17.733,5.629 -17.733,12.572 0,6.942 7.941,12.568 17.733,12.568 C -7.933,12.568 0,6.942 0,0 z"
             style="fill:none;stroke:#8f6548;stroke-width:1;stroke-linecap:butt;stroke-linejoin:miter;stroke-miterlimit:10;stroke-opacity:1;stroke-dasharray:none"
             id="path3483"
             inkscape:connector-curvature="0" /></g><g
           id="g3485"
           transform="translate(501.4883,187.9824)"><path
             d="m 0,0 c 0,-1.746 -1.339,-3.155 -2.99,-3.155 -1.656,0 -2.994,1.409 -2.994,3.155 0,1.741 1.338,3.155 2.994,3.155 C -1.339,3.155 0,1.741 0,0"
             style="fill:#ffd17b;fill-opacity:1;fill-rule:nonzero;stroke:none"
             id="path3487"
             inkscape:connector-curvature="0" /></g><g
           id="g3489"
           transform="translate(501.4883,187.9824)"><path
             d="m 0,0 c 0,-1.746 -1.339,-3.155 -2.99,-3.155 -1.656,0 -2.994,1.409 -2.994,3.155 0,1.741 1.338,3.155 2.994,3.155 C -1.339,3.155 0,1.741 0,0 z"
             style="fill:none;stroke:#8f6548;stroke-width:1;stroke-linecap:butt;stroke-linejoin:miter;stroke-miterlimit:10;stroke-opacity:1;stroke-dasharray:none"
             id="path3491"
             inkscape:connector-curvature="0" /></g><g
           id="g3493"
           transform="translate(445.2246,142.5996)"><path
             d="m 0,0 c 0,-2.641 -1.609,-4.79 -3.594,-4.79 -1.98,0 -3.59,2.149 -3.59,4.79 0,2.647 1.61,4.789 3.59,4.789 C -1.609,4.789 0,2.647 0,0"
             style="fill:#ffd17b;fill-opacity:1;fill-rule:nonzero;stroke:none"
             id="path3495"
             inkscape:connector-curvature="0" /></g><g
           id="g3497"
           transform="translate(445.2246,142.5996)"><path
             d="m 0,0 c 0,-2.641 -1.609,-4.79 -3.594,-4.79 -1.98,0 -3.59,2.149 -3.59,4.79 0,2.647 1.61,4.789 3.59,4.789 C -1.609,4.789 0,2.647 0,0 z"
             style="fill:none;stroke:#8f6548;stroke-width:1;stroke-linecap:butt;stroke-linejoin:miter;stroke-miterlimit:10;stroke-opacity:1;stroke-dasharray:none"
             id="path3499"
             inkscape:connector-curvature="0" /></g><g
           id="g3501"
           transform="translate(445.2246,226.998)"><path
             d="m 0,0 c 0,-3.635 -4.019,-6.582 -8.974,-6.582 -4.964,0 -8.98,2.947 -8.98,6.582 0,3.637 4.016,6.589 8.98,6.589 C -4.019,6.589 0,3.637 0,0"
             style="fill:#ffd17b;fill-opacity:1;fill-rule:nonzero;stroke:none"
             id="path3503"
             inkscape:connector-curvature="0" /></g><g
           id="g3505"
           transform="translate(445.2246,226.998)"><path
             d="m 0,0 c 0,-3.635 -4.019,-6.582 -8.974,-6.582 -4.964,0 -8.98,2.947 -8.98,6.582 0,3.637 4.016,6.589 8.98,6.589 C -4.019,6.589 0,3.637 0,0 z"
             style="fill:none;stroke:#8f6548;stroke-width:1;stroke-linecap:butt;stroke-linejoin:miter;stroke-miterlimit:10;stroke-opacity:1;stroke-dasharray:none"
             id="path3507"
             inkscape:connector-curvature="0" /></g><g
           id="g3509"
           transform="translate(359.0313,130.6299)"><path
             d="m 0,0 c 0,-3.968 -4.825,-7.182 -10.773,-7.182 -5.952,0 -10.776,3.214 -10.776,7.182 0,3.967 4.824,7.18 10.776,7.18 C -4.825,7.18 0,3.967 0,0"
             style="fill:#ffd17b;fill-opacity:1;fill-rule:nonzero;stroke:none"
             id="path3511"
             inkscape:connector-curvature="0" /></g><g
           id="g3513"
           transform="translate(359.0313,130.6299)"><path
             d="m 0,0 c 0,-3.968 -4.825,-7.182 -10.773,-7.182 -5.952,0 -10.776,3.214 -10.776,7.182 0,3.967 4.824,7.18 10.776,7.18 C -4.825,7.18 0,3.967 0,0 z"
             style="fill:none;stroke:#8f6548;stroke-width:1;stroke-linecap:butt;stroke-linejoin:miter;stroke-miterlimit:10;stroke-opacity:1;stroke-dasharray:none"
             id="path3515"
             inkscape:connector-curvature="0" /></g><g
           id="g3517"
           transform="translate(520.9736,210.4922)"><path
             d="M 0,0 C -47.281,78.272 -348.328,48.145 -324.181,-71.675"
             style="fill:none;stroke:#8f6548;stroke-width:1;stroke-linecap:butt;stroke-linejoin:miter;stroke-miterlimit:10;stroke-opacity:1;stroke-dasharray:none"
             id="path3519"
             inkscape:connector-curvature="0" /></g></g></g></g></svg>