<?xml version="1.0" encoding="UTF-8" standalone="no"?>
<!-- Created with Inkscape (http://www.inkscape.org/) -->

<svg
   xmlns:dc="http://purl.org/dc/elements/1.1/"
   xmlns:cc="http://creativecommons.org/ns#"
   xmlns:rdf="http://www.w3.org/1999/02/22-rdf-syntax-ns#"
   xmlns:svg="http://www.w3.org/2000/svg"
   xmlns="http://www.w3.org/2000/svg"
   xmlns:sodipodi="http://sodipodi.sourceforge.net/DTD/sodipodi-0.dtd"
   xmlns:inkscape="http://www.inkscape.org/namespaces/inkscape"
   id="svg4123"
   version="1.1"
   inkscape:version="0.48.5 r10040"
   width="79.997475"
   height="80.000534"
   xml:space="preserve"
   sodipodi:docname="meso.svg"><metadata
     id="metadata4129"><rdf:RDF><cc:Work
         rdf:about=""><dc:format>image/svg+xml</dc:format><dc:type
           rdf:resource="http://purl.org/dc/dcmitype/StillImage" /><dc:title /></cc:Work></rdf:RDF></metadata><defs
     id="defs4127"><clipPath
       clipPathUnits="userSpaceOnUse"
       id="clipPath4137"><path
         d="m 0,566.93 566.93,0 L 566.93,0 0,0 0,566.93 z"
         id="path4139"
         inkscape:connector-curvature="0" /></clipPath></defs><sodipodi:namedview
     pagecolor="#ffffff"
     bordercolor="#666666"
     borderopacity="1"
     objecttolerance="10"
     gridtolerance="10"
     guidetolerance="10"
     inkscape:pageopacity="0"
     inkscape:pageshadow="2"
     inkscape:window-width="743"
     inkscape:window-height="480"
     id="namedview4125"
     showgrid="false"
     inkscape:zoom="1.3320869"
     inkscape:cx="98.294197"
     inkscape:cy="37.210586"
     inkscape:window-x="472"
     inkscape:window-y="135"
     inkscape:window-maximized="0"
     inkscape:current-layer="g4131"
     fit-margin-top="25"
     fit-margin-left="10"
     fit-margin-right="10"
     fit-margin-bottom="25" /><g
     id="g4131"
     inkscape:groupmode="layer"
     inkscape:label="meso"
     transform="matrix(1.25,0,0,-1.25,-323.93943,397.12121)"><g
       id="g4133"
       transform="matrix(0.10275908,0,0,0.10123558,261.23179,256.77303)"><g
         id="g4135"
         clip-path="url(#clipPath4137)"><g
           id="g4141"
           transform="translate(103.251,363.916)"><path
             d="m 0,0 c 0,0 29.012,42.576 134.978,39.673 0,0 55.648,0.142 95.323,-32.899 0,0 29.995,-27.095 67.732,-9.677 0,0 18.388,23.225 73.544,3.871 0,0 106.439,-69.671 6.771,-129.664 0,0 -126.762,-127.729 -378.348,-31.934 0,0 -101.603,57.093 0,160.63"
             style="fill:#c59d72;fill-opacity:1;fill-rule:nonzero;stroke:none"
             id="path4143"
             inkscape:connector-curvature="0" /></g><g
           id="g4145"
           transform="translate(103.251,363.916)"><path
             d="m 0,0 c 0,0 29.012,42.576 134.978,39.673 0,0 55.648,0.142 95.323,-32.899 0,0 29.995,-27.095 67.732,-9.677 0,0 18.388,23.225 73.544,3.871 0,0 106.439,-69.671 6.771,-129.664 0,0 -126.762,-127.729 -378.348,-31.934 0,0 -101.603,57.093 0,160.63 z"
             style="fill:none;stroke:#493830;stroke-width:1;stroke-linecap:butt;stroke-linejoin:miter;stroke-miterlimit:10;stroke-opacity:1;stroke-dasharray:none"
             id="path4147"
             inkscape:connector-curvature="0" /></g><g
           id="g4149"
           transform="translate(123.9072,358.6177)"><path
             d="m 0,0 c 0,0 27.048,39.691 125.836,36.986 0,0 51.878,0.132 88.865,-30.671 0,0 27.963,-25.26 63.148,-9.022 0,0 17.138,21.651 68.56,3.609 0,0 99.228,-64.95 6.312,-120.882 0,0 -118.174,-119.075 -352.721,-29.77 0,0 -94.72,53.226 0,149.75"
             style="fill:#c1343e;fill-opacity:1;fill-rule:nonzero;stroke:none"
             id="path4151"
             inkscape:connector-curvature="0" /></g><g
           id="g4153"
           transform="translate(123.9072,358.6177)"><path
             d="m 0,0 c 0,0 27.048,39.691 125.836,36.986 0,0 51.878,0.132 88.865,-30.671 0,0 27.963,-25.26 63.148,-9.022 0,0 17.138,21.651 68.56,3.609 0,0 99.228,-64.95 6.312,-120.882 0,0 -118.174,-119.075 -352.721,-29.77 0,0 -94.72,53.226 0,149.75 z"
             style="fill:none;stroke:#493830;stroke-width:1;stroke-linecap:butt;stroke-linejoin:miter;stroke-miterlimit:10;stroke-opacity:1;stroke-dasharray:none"
             id="path4155"
             inkscape:connector-curvature="0" /></g><g
           id="g4157"
           transform="translate(423.4043,293.666)"><path
             d="m 0,0 c 0,-13.451 -17.567,-24.356 -39.241,-24.356 -21.673,0 -39.24,10.905 -39.24,24.356 0,13.453 17.567,24.357 39.24,24.357 C -17.567,24.357 0,13.453 0,0"
             style="fill:#c59d72;fill-opacity:1;fill-rule:nonzero;stroke:none"
             id="path4159"
             inkscape:connector-curvature="0" /></g><g
           id="g4161"
           transform="translate(423.4043,293.666)"><path
             d="m 0,0 c 0,-13.451 -17.567,-24.356 -39.241,-24.356 -21.673,0 -39.24,10.905 -39.24,24.356 0,13.453 17.567,24.357 39.24,24.357 C -17.567,24.357 0,13.453 0,0 z"
             style="fill:none;stroke:#493830;stroke-width:1;stroke-linecap:butt;stroke-linejoin:miter;stroke-miterlimit:10;stroke-opacity:1;stroke-dasharray:none"
             id="path4163"
             inkscape:connector-curvature="0" /></g><g
           id="g4165"
           transform="translate(415.2559,293.666)"><path
             d="m 0,0 c 0,-10.657 -13.92,-19.298 -31.093,-19.298 -17.172,0 -31.092,8.641 -31.092,19.298 0,10.66 13.92,19.298 31.092,19.298 C -13.92,19.298 0,10.66 0,0"
             style="fill:#c1343e;fill-opacity:1;fill-rule:nonzero;stroke:none"
             id="path4167"
             inkscape:connector-curvature="0" /></g><g
           id="g4169"
           transform="translate(415.2559,293.666)"><path
             d="m 0,0 c 0,-10.657 -13.92,-19.298 -31.093,-19.298 -17.172,0 -31.092,8.641 -31.092,19.298 0,10.66 13.92,19.298 31.092,19.298 C -13.92,19.298 0,10.66 0,0 z"
             style="fill:none;stroke:#493830;stroke-width:1;stroke-linecap:butt;stroke-linejoin:miter;stroke-miterlimit:10;stroke-opacity:1;stroke-dasharray:none"
             id="path4171"
             inkscape:connector-curvature="0" /></g></g></g></g></svg>