<?xml version="1.0" encoding="UTF-8" standalone="no"?>
<!-- Created with Inkscape (http://www.inkscape.org/) -->

<svg
   xmlns:dc="http://purl.org/dc/elements/1.1/"
   xmlns:cc="http://creativecommons.org/ns#"
   xmlns:rdf="http://www.w3.org/1999/02/22-rdf-syntax-ns#"
   xmlns:svg="http://www.w3.org/2000/svg"
   xmlns="http://www.w3.org/2000/svg"
   xmlns:sodipodi="http://sodipodi.sourceforge.net/DTD/sodipodi-0.dtd"
   xmlns:inkscape="http://www.inkscape.org/namespaces/inkscape"
   id="svg4837"
   version="1.1"
   inkscape:version="0.48.5 r10040"
   width="80"
   height="80"
   xml:space="preserve"
   sodipodi:docname="Oranzna_KORENCEK.svg"><metadata
     id="metadata4843"><rdf:RDF><cc:Work
         rdf:about=""><dc:format>image/svg+xml</dc:format><dc:type
           rdf:resource="http://purl.org/dc/dcmitype/StillImage" /><dc:title /></cc:Work></rdf:RDF></metadata><defs
     id="defs4841"><clipPath
       clipPathUnits="userSpaceOnUse"
       id="clipPath4851"><path
         d="m 97.398,86.997 306.776,0 0,322.717 -306.776,0 0,-322.717 z"
         id="path4853"
         inkscape:connector-curvature="0" /></clipPath><clipPath
       clipPathUnits="userSpaceOnUse"
       id="clipPath4923"><path
         d="M 0,0 500,0 500,500 0,500 0,0 z"
         id="path4925"
         inkscape:connector-curvature="0" /></clipPath><filter
       inkscape:menu-tooltip="Make the lightest parts of the object progressively transparent"
       inkscape:menu="Transparency utilities"
       inkscape:label="Light eraser"
       height="1"
       width="1"
       y="0"
       x="0"
       color-interpolation-filters="sRGB"
       id="filter3086"><feColorMatrix
         result="result14"
         type="luminanceToAlpha"
         in="SourceGraphic"
         id="feColorMatrix3088" /><feComposite
         in="SourceGraphic"
         in2="result14"
         result="fbSourceGraphic"
         operator="out"
         id="feComposite3090" /><feBlend
         mode="normal"
         in2="fbSourceGraphic"
         result="result15"
         id="feBlend3092" /></filter></defs><sodipodi:namedview
     pagecolor="#ffffff"
     bordercolor="#666666"
     borderopacity="1"
     objecttolerance="10"
     gridtolerance="10"
     guidetolerance="10"
     inkscape:pageopacity="0"
     inkscape:pageshadow="2"
     inkscape:window-width="870"
     inkscape:window-height="480"
     id="namedview4839"
     showgrid="false"
     inkscape:zoom="3.0208"
     inkscape:cx="19.642479"
     inkscape:cy="42.055621"
     inkscape:window-x="0"
     inkscape:window-y="0"
     inkscape:window-maximized="0"
     inkscape:current-layer="g4845"
     fit-margin-top="10"
     fit-margin-left="10"
     fit-margin-right="10"
     fit-margin-bottom="10" /><g
     id="g4845"
     inkscape:groupmode="layer"
     inkscape:label="Oranžna_KORENČEK"
     transform="matrix(1.25,0,0,-1.25,-273.4825,350.44438)"><g
       id="g4847"
       transform="matrix(0.15646596,0,0,0.14873757,211.54653,211.41571)"
       style="filter:url(#filter3086)"><g
         id="g4849"
         clip-path="url(#clipPath4851)"><g
           id="g4855"
           transform="translate(404.0713,248.3555)"><path
             d="m 0,0 c 0,-52.322 -0.048,-104.645 0.104,-156.965 0.009,-3.659 -0.739,-4.398 -4.396,-4.393 -99.33,0.126 -198.659,0.126 -297.989,0 -3.657,-0.005 -4.397,0.736 -4.393,4.393 0.125,104.643 0.125,209.287 0,313.93 -0.004,3.657 0.736,4.398 4.393,4.393 99.33,-0.126 198.659,-0.126 297.989,0 3.657,0.005 4.405,-0.734 4.396,-4.393 C -0.048,104.644 0,52.322 0,0"
             style="fill:#fefefe;fill-opacity:1;fill-rule:nonzero;stroke:none"
             id="path4857"
             inkscape:connector-curvature="0" /></g><g
           id="g4859"
           transform="translate(195.4839,160.9375)"><path
             d="m 0,0 c -5.595,-5.976 -11.792,-11.277 -18.252,-16.283 -0.903,0.507 -1.385,1.927 -2.215,1.98 -6.825,0.443 -12.525,3.462 -18.004,7.4 2.373,-5.73 7.239,-7.784 12.723,-8.91 2.119,-0.437 4.527,0.288 6.263,-1.623 -5.251,-5.839 -11.104,-11.035 -17.158,-16.015 -4.134,0.45 -8.131,1.29 -11.472,4.008 -1.266,1.026 -2.186,2.581 -3.666,3.213 -3.496,1.494 -2.943,-0.469 -1.968,-2.575 4.27,-4.204 9.311,-6.685 15.336,-7.034 -4.218,-5.933 -9.859,-10.343 -15.646,-14.595 -5.744,-0.909 -9.193,2.183 -11.8,6.749 -0.31,0.726 -0.438,1.545 -1.016,2.156 -2.073,-1.977 -3.468,-4.505 -5.543,-6.563 -1.375,-1.361 1.605,-3.203 2.867,-4.711 1.552,-1.856 5.256,-1.803 4.823,-5.413 -4.364,-3.668 -8.614,-7.481 -13.121,-10.963 -4.834,-3.734 -11.093,-3.217 -15.026,0.888 -4.047,4.227 -4.347,11.056 -0.032,15.566 32.073,33.525 60.076,70.554 90.785,105.242 28.037,31.668 53.445,65.441 79.99,98.305 4.638,5.741 9.839,10.918 14.883,16.261 3.649,3.863 7.16,7.811 10.023,12.335 6.449,10.194 13.696,12.837 25.559,10.454 3.296,-0.663 6.41,-4.119 10.193,-1.365 0.921,-0.711 0.988,-1.719 0.878,-2.738 -0.519,-4.84 1.785,-6.748 6.438,-6.295 0.821,0.078 1.606,-0.105 2.251,-0.681 1.263,-3.758 4.171,-6.478 6.171,-9.772 5.901,-9.721 5.222,-19.61 -2.726,-26.584 -15.14,-13.282 -30.622,-26.171 -45.964,-39.224 -1.03,1.56 -2.169,3.036 -4.3,2.85 -7.118,-0.624 -11.835,3.25 -15.946,8.354 -0.598,0.742 -1.194,1.707 -2.956,1.354 3.132,-5.565 6.884,-9.932 13.174,-11.741 2.658,-0.764 5.75,-0.328 7.903,-2.625 -10.148,-9.184 -18.803,-19.917 -29.55,-28.479 -9.018,0.874 -13.66,6.855 -16.748,14.83 -1.985,-4.281 0.08,-7.131 2.506,-9.846 3.014,-3.371 7.216,-5.26 10.484,-8.317 -7.418,-7.666 -14.836,-15.332 -22.255,-22.998 -1.46,0.697 -2.743,1.792 -4.463,1.906 -5.652,0.38 -9.95,3.325 -13.758,7.239 -1.105,1.134 -2.18,2.421 -4.059,2.58 2.036,-6.742 8.886,-12.003 16.21,-12.592 1.579,-0.127 3.272,0.673 4.714,-0.577 C 38.765,36.137 29.599,28.561 21.053,20.348 13.946,22.692 6.271,24.079 2.399,32.411 1.347,27.65 3.166,24.953 7.707,22.019 10.716,20.073 15.074,20.686 17.06,16.949 13.298,13.26 9.536,9.57 5.774,5.882 -0.512,3.752 -1.798,4.609 -8.288,15.636 -10.235,11.149 -8.332,8.495 -5.554,5.894 -3.591,4.055 -0.248,3.459 0,0"
             style="fill:#fe7800;fill-opacity:1;fill-rule:nonzero;stroke:none"
             id="path4861"
             inkscape:connector-curvature="0" /></g><g
           id="g4863"
           transform="translate(343.5771,339.7305)"><path
             d="m 0,0 c -8.579,-2.541 -11.619,0.549 -9.566,9.718 2.218,16.982 0.709,34.309 4.765,51.145 0.817,3.385 1.287,7.087 5.628,6.363 C 5.365,66.469 5.466,62.709 4.39,59.004 1.223,48.104 0.897,36.901 1.461,25.286 c 2.895,5.872 5.861,11.71 8.669,17.624 3.062,6.453 5.955,12.986 8.97,19.462 1.372,2.948 3.191,5.762 6.962,3.865 3.621,-1.82 2.761,-4.759 1.293,-7.862 -1.47,-3.109 -5.626,-6.999 -2.505,-9.546 2.28,-1.861 5.356,3.195 8.169,5.011 2.905,1.876 5.468,4.273 8.277,6.313 2.691,1.956 5.783,4.239 8.447,0.405 2.433,-3.501 -0.568,-5.502 -3.051,-7.421 C 36.034,44.892 25.291,36.74 16.424,26.466 c -1.018,-1.178 -2.733,-1.962 -2.445,-4.305 4.19,-0.364 6.848,2.675 9.888,4.629 8.588,5.518 17.11,11.132 26.405,15.432 2.77,1.281 5.755,2.182 7.448,-1.203 C 59.373,37.71 57.139,35.552 54.309,34.293 37.165,26.666 23.162,14.111 7.317,4.451 4.88,2.965 2.438,1.484 0,0"
             style="fill:#c55d01;fill-opacity:1;fill-rule:nonzero;stroke:none"
             id="path4865"
             inkscape:connector-curvature="0" /></g><g
           id="g4867"
           transform="translate(242.0137,206.0889)"><path
             d="m 0,0 c -8.658,-4.017 -19.854,5.242 -23.462,12.031 -0.712,1.339 -0.575,2.334 0.546,3.169 1.086,0.81 2.359,0.831 3.384,-0.043 1.546,-1.317 3.002,-2.749 4.419,-4.208 C -11.6,7.333 -7.659,4.623 -2.337,4.875 0.14,4.992 1.629,4.206 1.356,1.442 0.904,0.962 0.452,0.481 0,0"
             style="fill:#f67401;fill-opacity:1;fill-rule:nonzero;stroke:none"
             id="path4869"
             inkscape:connector-curvature="0" /></g><g
           id="g4871"
           transform="translate(298.9326,262.3428)"><path
             d="m 0,0 c -9.816,-0.261 -17.001,4.105 -21.967,12.435 -0.804,1.348 -2.534,2.787 -0.776,4.161 1.931,1.508 3.72,0.46 5.096,-1.446 1.175,-1.629 2.597,-3.078 3.861,-4.646 3.141,-3.898 7.368,-4.639 12.027,-4.27 C 1.449,6.488 3.53,5.65 2.126,1.808 1.417,1.205 0.709,0.603 0,0"
             style="fill:#f67401;fill-opacity:1;fill-rule:nonzero;stroke:none"
             id="path4873"
             inkscape:connector-curvature="0" /></g><g
           id="g4875"
           transform="translate(265.625,230.5293)"><path
             d="m 0,0 c -6.823,1.396 -14.929,8.941 -15.881,14.921 -0.351,2.212 -0.69,4.887 2.149,5.589 3.062,0.758 3.436,-1.644 3.859,-4.055 C -9.054,11.786 -6.272,8.56 -1.998,6.409 -0.065,5.437 2.45,5.478 3.758,3.334 2.873,1.809 1.692,0.616 0,0"
             style="fill:#f67401;fill-opacity:1;fill-rule:nonzero;stroke:none"
             id="path4877"
             inkscape:connector-curvature="0" /></g><g
           id="g4879"
           transform="translate(212.5444,177.8867)"><path
             d="m 0,0 c -6.321,2.104 -12.832,3.719 -16.731,10.069 -1.672,2.723 -2.218,5.243 0.502,6.864 2.911,1.734 3.374,-1.36 4.311,-3.24 C -9.468,8.776 -4.487,7.692 0.083,6.217 1.842,5.649 3.809,5.939 3.993,3.398 3.522,1.255 1.225,1.257 0,0"
             style="fill:#f67400;fill-opacity:1;fill-rule:nonzero;stroke:none"
             id="path4881"
             inkscape:connector-curvature="0" /></g><g
           id="g4883"
           transform="translate(175.999,143.502)"><path
             d="m 0,0 c -7.701,-0.777 -14.375,1.376 -19.842,6.961 -1.61,1.645 -3.409,3.425 -1.018,5.61 2.058,1.882 3.679,0.232 5.186,-1.205 C -11.863,7.733 -8.303,4.085 -2.006,5.803 0.832,6.576 1.194,3.479 1.233,1.152 0.822,0.769 0.411,0.385 0,0"
             style="fill:#f67400;fill-opacity:1;fill-rule:nonzero;stroke:none"
             id="path4885"
             inkscape:connector-curvature="0" /></g><g
           id="g4887"
           transform="translate(195.4839,160.9375)"><path
             d="m 0,0 c -2.731,2.071 -5.446,4.164 -8.199,6.206 -2.862,2.122 -2.925,5.117 -2.686,8.235 0.137,1.788 0.804,3.288 2.756,3.434 2.333,0.175 3.264,-1.43 3.281,-3.478 C -4.789,7.159 -0.092,5.816 5.774,5.882 4.416,3.365 2.519,1.377 0,0"
             style="fill:#f77502;fill-opacity:1;fill-rule:nonzero;stroke:none"
             id="path4889"
             inkscape:connector-curvature="0" /></g><g
           id="g4891"
           transform="translate(130.7559,102.7217)"><path
             d="m 0,0 c -1.07,1.975 -3.405,2.15 -4.92,3.455 -1.542,1.328 -3.043,2.75 -4.306,4.335 -0.825,1.035 -2.016,3.517 -0.866,3.647 5.211,0.59 3.889,7.653 8.252,8.071 2.429,0.232 1.39,-2.821 1.692,-4.475 C -2.506,11.919 -0.838,9.473 1.121,7.021 2.2,5.671 4.458,5.413 4.614,3.227 3.394,1.697 1.868,0.603 0,0"
             style="fill:#f77502;fill-opacity:1;fill-rule:nonzero;stroke:none"
             id="path4893"
             inkscape:connector-curvature="0" /></g><g
           id="g4895"
           transform="translate(147.7764,132.4707)"><path
             d="m 0,0 c 3.688,-1.662 7.377,-3.323 11.065,-4.985 -0.59,-0.795 -1.18,-1.591 -1.77,-2.387 -7.556,-3.383 -11.548,2.889 -16.651,6.146 -0.76,1.539 -1.137,3.107 0.63,4.165 1.399,0.84 2.696,0.173 3.835,-0.779 C -1.966,1.387 -1.041,0.617 0,0"
             style="fill:#f17201;fill-opacity:1;fill-rule:nonzero;stroke:none"
             id="path4897"
             inkscape:connector-curvature="0" /></g><g
           id="g4899"
           transform="translate(135.3696,105.9492)"><path
             d="m 0,0 c -3.947,0.951 -5.92,3.805 -7.453,7.312 -1.326,3.035 -0.112,4.139 2.691,4.493 C -2.52,7.354 1.895,6.145 6.055,4.555 4.652,2.219 2.356,1.07 0,0"
             style="fill:#f17303;fill-opacity:1;fill-rule:nonzero;stroke:none"
             id="path4901"
             inkscape:connector-curvature="0" /></g><g
           id="g4903"
           transform="translate(341.2275,302.8896)"><path
             d="m 0,0 c -9.171,0.376 -23.367,11.723 -25.164,19.324 -0.311,1.312 -0.055,2.471 1.078,3.222 1.635,1.086 2.859,-0.061 3.564,-1.221 2.468,-4.066 6.209,-6.945 9.297,-10.424 C -8.154,7.442 -4.302,6.342 0.144,6.07 2.197,5.945 6.031,7.785 5.959,4.009 5.887,0.201 2.213,-0.164 0,0"
             style="fill:#f67400;fill-opacity:1;fill-rule:nonzero;stroke:none"
             id="path4905"
             inkscape:connector-curvature="0" /></g><g
           id="g4907"
           transform="translate(310.5918,283.3813)"><path
             d="m 0,0 c -6.781,0.936 -12.898,5.354 -17.746,11.672 -1.161,1.513 -2.585,3.638 -0.583,5.485 2.401,2.217 3.54,-0.553 4.889,-1.736 1.984,-1.739 3.776,-3.698 5.637,-5.575 C -4.53,6.548 -0.474,5.588 3.929,6.298 6.078,6.644 8.914,8.319 9.433,5.181 9.889,2.417 7.136,0.714 4.414,0.038 3.458,-0.2 2.393,0 0,0"
             style="fill:#f67400;fill-opacity:1;fill-rule:nonzero;stroke:none"
             id="path4909"
             inkscape:connector-curvature="0" /></g><g
           id="g4911"
           transform="translate(147.7764,132.4707)"><path
             d="M 0,0 C -2.276,-1.465 -6.246,7.241 -7.356,-1.226 -9.018,0.667 -9.529,3.369 -7.362,4.349 -3.593,6.055 -1.875,2.504 0,0"
             style="fill:#f67400;fill-opacity:1;fill-rule:nonzero;stroke:none"
             id="path4913"
             inkscape:connector-curvature="0" /></g><g
           id="g4915"
           transform="translate(352.5898,356.748)"><path
             d="M 0,0 C 1.4,1.981 1.817,3.835 4.005,3.608 4.218,3.586 4.578,2.955 4.52,2.683 4.12,0.853 2.645,0.451 0,0"
             style="fill:#eac6a5;fill-opacity:1;fill-rule:nonzero;stroke:none"
             id="path4917"
             inkscape:connector-curvature="0" /></g></g></g><g
       id="g4919"
       transform="matrix(0.15646596,0,0,0.14873757,211.54653,211.41571)"><g
         id="g4921"
         clip-path="url(#clipPath4923)"><g
           id="g4927"
           transform="translate(176.9863,146.6309)"><path
             d="m 0,0 c -0.255,-0.464 -0.827,-0.824 -1.22,-1.171 -0.501,-0.444 -1.002,-0.888 -1.503,-1.33 -0.966,-0.854 0.453,-2.266 1.414,-1.414 0.557,0.492 1.113,0.985 1.67,1.477 0.492,0.436 1.043,0.843 1.366,1.429 C 2.348,0.119 0.622,1.129 0,0"
             style="fill:#fe7800;fill-opacity:1;fill-rule:nonzero;stroke:none"
             id="path4929"
             inkscape:connector-curvature="0" /></g><g
           id="g4931"
           transform="translate(102.4722,93.6094)"><path
             d="m 0,0 c -3.313,6.677 -1.337,11.475 3.365,16.663 2.854,3.15 5.794,6.152 8.909,9.043 6.726,6.242 12.744,12.988 18.614,20.033 12.761,15.314 25.478,30.666 38.217,45.999 0.817,0.983 -0.59,2.407 -1.414,1.414 C 53.014,75.486 38.647,57.495 23.567,40.171 16.776,32.371 8.886,25.729 1.951,18.078 -3.459,12.11 -5.531,6.658 -1.727,-1.009 -1.155,-2.162 0.571,-1.149 0,0"
             style="fill:#000000;fill-opacity:1;fill-rule:nonzero;stroke:none"
             id="path4933"
             inkscape:connector-curvature="0" /></g><g
           id="g4935"
           transform="translate(171.4922,185.2461)"><path
             d="m 0,0 c 8.166,10.518 16.784,20.536 25.713,30.41 0.862,0.953 -0.548,2.372 -1.414,1.414 C 15.371,21.951 6.751,11.929 -1.414,1.414 -2.194,0.41 -0.789,-1.016 0,0"
             style="fill:#000000;fill-opacity:1;fill-rule:nonzero;stroke:none"
             id="path4937"
             inkscape:connector-curvature="0" /></g><g
           id="g4939"
           transform="translate(197.2847,215.7959)"><path
             d="m 0,0 c 4.538,4.146 8.135,9.477 12.113,14.153 4.398,5.172 8.892,10.258 13.419,15.316 0.856,0.956 -0.554,2.375 -1.415,1.414 C 19.591,25.825 15.098,20.737 10.699,15.568 6.721,10.894 3.122,5.559 -1.414,1.414 -2.367,0.544 -0.949,-0.867 0,0"
             style="fill:#000000;fill-opacity:1;fill-rule:nonzero;stroke:none"
             id="path4941"
             inkscape:connector-curvature="0" /></g><g
           id="g4943"
           transform="translate(223.0674,245.6201)"><path
             d="m 0,0 c 7.788,10.751 16.36,20.909 24.764,31.177 0.809,0.988 -0.598,2.412 -1.414,1.415 C 14.838,22.191 6.161,11.899 -1.727,1.009 -2.483,-0.034 -0.749,-1.034 0,0"
             style="fill:#000000;fill-opacity:1;fill-rule:nonzero;stroke:none"
             id="path4945"
             inkscape:connector-curvature="0" /></g><g
           id="g4947"
           transform="translate(247.9878,277)"><path
             d="m 0,0 c 7.744,10.649 15.851,21.016 24.317,31.101 0.822,0.979 -0.585,2.401 -1.414,1.414 C 14.327,22.299 6.118,11.796 -1.727,1.009 -2.485,-0.033 -0.75,-1.032 0,0"
             style="fill:#000000;fill-opacity:1;fill-rule:nonzero;stroke:none"
             id="path4949"
             inkscape:connector-curvature="0" /></g><g
           id="g4951"
           transform="translate(272.499,308.3921)"><path
             d="m 0,0 c 5.234,6.495 10.649,12.837 16.288,18.987 5.294,5.775 9.783,11.869 14.822,17.851 0.825,0.978 -0.584,2.4 -1.414,1.414 C 24.679,32.296 20.148,26.155 14.873,20.401 9.235,14.252 3.82,7.909 -1.414,1.414 -2.215,0.421 -0.809,-1.003 0,0"
             style="fill:#000000;fill-opacity:1;fill-rule:nonzero;stroke:none"
             id="path4953"
             inkscape:connector-curvature="0" /></g><g
           id="g4955"
           transform="translate(303.5557,345.2021)"><path
             d="M 0,0 C 4.918,5.162 12.23,6.344 19.046,4.753 23.024,3.825 26.256,1.776 30.432,2.502 31.698,2.723 31.162,4.65 29.9,4.431 25.947,3.743 22.5,6.115 18.77,6.872 16.241,7.386 13.637,7.505 11.071,7.254 6.025,6.761 2.067,5.069 -1.414,1.414 -2.302,0.482 -0.891,-0.934 0,0"
             style="fill:#000000;fill-opacity:1;fill-rule:nonzero;stroke:none"
             id="path4957"
             inkscape:connector-curvature="0" /></g><g
           id="g4959"
           transform="translate(335.7187,340.8535)"><path
             d="m 0,0 c -1.031,0.959 -0.857,2.737 -0.862,4.039 -0.005,1.602 0.158,3.18 0.44,4.755 0.226,1.258 -1.701,1.798 -1.928,0.531 C -2.749,7.102 -2.952,4.857 -2.819,2.597 -2.73,1.102 -2.562,-0.346 -1.414,-1.414 -0.473,-2.29 0.945,-0.879 0,0"
             style="fill:#000000;fill-opacity:1;fill-rule:nonzero;stroke:none"
             id="path4961"
             inkscape:connector-curvature="0" /></g><g
           id="g4963"
           transform="translate(335.1885,377.1958)"><path
             d="m 0,0 c -0.375,-8.931 -1.329,-17.794 -1.777,-26.689 -0.065,-1.287 1.935,-1.283 2,0 C 0.671,-17.8 1.625,-8.929 2,0 2.054,1.287 0.054,1.284 0,0"
             style="fill:#000000;fill-opacity:1;fill-rule:nonzero;stroke:none"
             id="path4965"
             inkscape:connector-curvature="0" /></g><g
           id="g4967"
           transform="translate(344.1475,407.8574)"><path
             d="m 0,0 c -4.727,1.172 -5.14,-4.443 -5.813,-7.815 -1.485,-7.422 -2.753,-14.85 -3.15,-22.417 -0.067,-1.287 1.933,-1.283 2,0 0.134,2.565 2.417,29.299 6.431,28.303 C 0.718,-2.238 1.251,-0.31 0,0"
             style="fill:#000000;fill-opacity:1;fill-rule:nonzero;stroke:none"
             id="path4969"
             inkscape:connector-curvature="0" /></g><g
           id="g4971"
           transform="translate(343.5742,405.9863)"><path
             d="m 0,0 c 6.721,-1.721 2.413,-10.677 1.55,-15.024 -0.856,-4.307 -1.116,-8.664 -1.323,-13.043 -0.061,-1.287 1.939,-1.284 2,0 0.361,7.621 2.048,14.576 3.379,22.017 C 6.396,-1.64 4.899,0.81 0.532,1.929 -0.716,2.248 -1.248,0.32 0,0"
             style="fill:#000000;fill-opacity:1;fill-rule:nonzero;stroke:none"
             id="path4973"
             inkscape:connector-curvature="0" /></g><g
           id="g4975"
           transform="translate(343.835,377.833)"><path
             d="m 0,0 c 0.055,-4.389 0.111,-8.778 0.166,-13.167 0.017,-1.286 2.017,-1.289 2,0 C 2.111,-8.778 2.055,-4.389 2,0 1.984,1.286 -0.016,1.29 0,0"
             style="fill:#000000;fill-opacity:1;fill-rule:nonzero;stroke:none"
             id="path4977"
             inkscape:connector-curvature="0" /></g><g
           id="g4979"
           transform="translate(346.3516,363.9775)"><path
             d="m 0,0 c 1.669,5.574 4.94,11.567 7.616,16.763 2.817,5.467 5.648,10.83 8.014,16.518 0.493,1.187 -1.442,1.705 -1.93,0.532 C 11.033,27.399 7.483,21.502 4.601,15.215 2.406,10.428 -0.414,5.59 -1.929,0.532 -2.298,-0.704 -0.368,-1.232 0,0"
             style="fill:#000000;fill-opacity:1;fill-rule:nonzero;stroke:none"
             id="path4981"
             inkscape:connector-curvature="0" /></g><g
           id="g4983"
           transform="translate(361.8711,397.1274)"><path
             d="M 0,0 C 0.65,1.872 3.078,10.188 6.415,8.223 7.527,7.568 8.534,9.296 7.426,9.95 2.118,13.075 -0.769,3.871 -1.929,0.532 -2.352,-0.687 -0.42,-1.21 0,0"
             style="fill:#000000;fill-opacity:1;fill-rule:nonzero;stroke:none"
             id="path4985"
             inkscape:connector-curvature="0" /></g><g
           id="g4987"
           transform="translate(368.3389,405.377)"><path
             d="m 0,0 c 1.63,-0.72 3.062,-1.335 2.636,-4.071 -0.125,-0.8 -0.749,-1.582 -1.132,-2.284 -0.84,-1.54 -1.598,-3.087 -2.291,-4.705 -0.776,-1.809 -2.207,-4.534 -0.425,-6.091 0.966,-0.844 2.386,0.565 1.415,1.414 -1.795,1.567 4.077,9.539 4.445,11.624 C 5.163,-1.198 3.524,0.616 1.009,1.727 -0.157,2.242 -1.176,0.519 0,0"
             style="fill:#000000;fill-opacity:1;fill-rule:nonzero;stroke:none"
             id="path4989"
             inkscape:connector-curvature="0" /></g><g
           id="g4991"
           transform="translate(367.4727,387.9878)"><path
             d="m 0,0 c 2.325,-1.603 4.612,0.223 6.361,1.893 2.026,1.933 15.134,14.531 18.328,10.279 0.764,-1.016 2.502,-0.021 1.727,1.01 -2.085,2.776 -4.879,2.382 -7.707,0.833 C 15.617,12.322 12.536,9.836 9.729,7.695 8.023,6.394 2.842,0.464 1.009,1.727 -0.053,2.459 -1.054,0.727 0,0"
             style="fill:#000000;fill-opacity:1;fill-rule:nonzero;stroke:none"
             id="path4993"
             inkscape:connector-curvature="0" /></g><g
           id="g4995"
           transform="translate(364.3809,368.9604)"><path
             d="m 0,0 c 6.642,7.302 13.433,13.837 21.492,19.581 4.003,2.851 10.961,6.218 8.38,12.088 -0.517,1.176 -2.241,0.159 -1.726,-1.009 C 30.269,25.832 15.644,17.928 12.446,15.285 7.398,11.112 2.983,6.25 -1.414,1.414 -2.278,0.464 -0.867,-0.955 0,0"
             style="fill:#000000;fill-opacity:1;fill-rule:nonzero;stroke:none"
             id="path4997"
             inkscape:connector-curvature="0" /></g><g
           id="g4999"
           transform="translate(362.998,370.4077)"><path
             d="m 0,0 c -2.528,-2.453 -5.687,-4.527 -5.856,-8.389 -0.056,-1.287 1.944,-1.284 2,0 0.137,3.151 3.229,4.995 5.27,6.975 C 2.341,-0.516 0.926,0.897 0,0"
             style="fill:#000000;fill-opacity:1;fill-rule:nonzero;stroke:none"
             id="path5001"
             inkscape:connector-curvature="0" /></g><g
           id="g5003"
           transform="translate(353.5723,358.0049)"><path
             d="m 0,0 c -0.048,0.107 -0.095,0.213 -0.142,0.32 -0.482,1.099 -2.023,0.268 -1.827,-0.771 0.167,-0.883 0.413,-1.718 0.752,-2.551 0.49,-1.203 2.107,-0.746 1.93,0.532 -0.159,1.143 -0.735,2.174 -0.879,3.315 L -2.03,0.34 c 0.536,-1.101 1.122,-2.168 1.765,-3.21 C 0.247,-3.7 1.604,-3.377 1.599,-2.365 1.588,-0.574 0.606,0.978 0.514,2.738 L -1.351,2.234 C -0.388,0.68 0.123,-1.061 1.294,-2.492 1.883,-3.212 2.961,-2.571 3.001,-1.785 3.053,-0.788 2.619,0.035 2.232,0.928 1.803,1.922 1.372,2.916 0.942,3.91 0.367,3.573 -0.208,3.237 -0.784,2.9 0.051,1.351 0.92,-0.151 2.125,-1.445 2.821,-2.194 4.041,-1.41 3.797,-0.472 3.394,1.076 2.412,2.364 1.95,3.884 1.342,3.627 0.732,3.37 0.123,3.113 1.017,1.898 1.896,0.672 2.76,-0.564 3.487,-1.607 5.116,-0.7 4.486,0.445 3.956,1.408 3.382,2.333 2.753,3.234 2.229,2.83 1.705,2.426 1.182,2.022 l 1.59,-2.046 C 3.478,-0.931 4.912,0.233 4.343,1.188 4.017,1.736 3.744,2.278 3.522,2.878 2.913,2.621 2.305,2.364 1.695,2.107 1.809,1.945 2.271,1.229 2.27,1.271 l 1,1 C 3.253,2.269 3.236,2.268 3.22,2.266 3.541,2.022 3.862,1.777 4.184,1.532 4.18,1.545 4.176,1.558 4.172,1.571 3.776,2.79 1.846,2.269 2.242,1.039 2.246,1.026 2.251,1.013 2.256,1 2.381,0.612 2.775,0.226 3.22,0.266 c 0.016,0.002 0.033,0.003 0.05,0.005 0.522,0.047 1.023,0.42 1,1 C 4.242,1.943 3.796,2.584 3.423,3.117 2.819,3.977 1.175,3.485 1.595,2.346 1.873,1.589 2.202,0.873 2.615,0.179 3.14,0.583 3.663,0.987 4.187,1.391 L 2.596,3.437 C 1.904,4.326 0.377,3.155 1.025,2.225 1.654,1.323 2.229,0.399 2.76,-0.564 3.335,-0.228 3.91,0.108 4.486,0.445 3.622,1.682 2.743,2.907 1.851,4.123 1.223,4.976 -0.332,4.519 0.022,3.352 0.484,1.831 1.468,0.534 1.867,-1.004 l 1.671,0.973 C 2.452,1.136 1.694,2.515 0.942,3.91 0.317,5.07 -1.281,4.05 -0.784,2.9 -0.478,2.19 -0.17,1.481 0.138,0.771 0.479,-0.021 1.047,-0.904 1.001,-1.785 1.57,-1.549 2.14,-1.313 2.709,-1.078 1.667,0.196 1.236,1.855 0.377,3.243 -0.12,4.046 -1.541,3.769 -1.486,2.738 c 0.093,-1.765 1.075,-3.346 1.085,-5.103 l 1.864,0.505 c -0.645,1.041 -1.231,2.108 -1.767,3.21 -0.417,0.857 -1.987,0.481 -1.862,-0.505 0.168,-1.329 0.767,-2.527 0.949,-3.847 0.644,0.177 1.286,0.354 1.93,0.532 -0.34,0.832 -0.585,1.668 -0.753,2.551 -0.609,-0.257 -1.219,-0.514 -1.828,-0.77 0.047,-0.107 0.094,-0.214 0.14,-0.32 C -1.211,-2.185 0.514,-1.168 0,0"
             style="fill:#c55d01;fill-opacity:1;fill-rule:nonzero;stroke:none"
             id="path5005"
             inkscape:connector-curvature="0" /></g><g
           id="g5007"
           transform="translate(357.4619,361.04)"><path
             d="m 0,0 c 3.303,-2.98 12.761,6.033 15.306,7.789 3.644,2.514 7.521,4.704 11.336,6.946 3.13,1.84 12.446,8.667 15.933,5.011 0.89,-0.933 2.303,0.482 1.414,1.414 -4.457,4.673 -13.521,-1.867 -17.6,-4.253 C 22.553,14.663 18.652,12.465 14.966,9.98 13.698,9.126 2.737,0.22 1.414,1.414 0.461,2.275 -0.958,0.865 0,0"
             style="fill:#000000;fill-opacity:1;fill-rule:nonzero;stroke:none"
             id="path5009"
             inkscape:connector-curvature="0" /></g><g
           id="g5011"
           transform="translate(399.9697,380.812)"><path
             d="m 0,0 c 2.143,-4.801 -5.251,-7.083 -8.305,-8.658 -3.026,-1.561 -5.975,-3.274 -8.846,-5.104 -5.58,-3.557 -10.93,-7.494 -16.355,-11.28 -1.047,-0.731 -0.049,-2.466 1.01,-1.727 8.215,5.733 16.276,11.776 25.2,16.384 4.475,2.31 11.878,4.997 9.024,11.394 C 1.203,2.183 -0.521,1.166 0,0"
             style="fill:#000000;fill-opacity:1;fill-rule:nonzero;stroke:none"
             id="path5013"
             inkscape:connector-curvature="0" /></g><g
           id="g5015"
           transform="translate(335.0342,338.9429)"><path
             d="m 0,0 c 5.028,-1.662 10.104,0.476 14.424,3.047 6.151,3.66 12.261,7.626 17.945,11.981 1.008,0.772 0.013,2.51 -1.01,1.727 C 27.16,13.537 22.704,10.646 18.247,7.801 13.127,4.532 6.965,-0.198 0.532,1.929 -0.693,2.333 -1.218,0.403 0,0"
             style="fill:#000000;fill-opacity:1;fill-rule:nonzero;stroke:none"
             id="path5017"
             inkscape:connector-curvature="0" /></g><g
           id="g5019"
           transform="translate(342.6104,339.7051)"><path
             d="m 0,0 c 1.408,-5.959 6.064,-9.724 8.533,-15.248 3.204,-7.169 0.698,-15.519 -4.771,-20.833 -0.925,-0.899 0.49,-2.312 1.414,-1.415 4.883,4.744 7.417,11.372 6.613,18.189 -0.925,7.846 -8.14,12.559 -9.86,19.839 C 1.633,1.784 -0.297,1.254 0,0"
             style="fill:#000000;fill-opacity:1;fill-rule:nonzero;stroke:none"
             id="path5021"
             inkscape:connector-curvature="0" /></g><g
           id="g5023"
           transform="translate(310.4268,270.7764)"><path
             d="m 0,0 c 12.084,11.274 24.714,21.921 37.882,31.909 1.012,0.767 0.016,2.505 -1.01,1.726 C 23.567,23.544 10.795,12.806 -1.414,1.414 -2.357,0.534 -0.941,-0.878 0,0"
             style="fill:#000000;fill-opacity:1;fill-rule:nonzero;stroke:none"
             id="path5025"
             inkscape:connector-curvature="0" /></g><g
           id="g5027"
           transform="translate(277.3506,238.8867)"><path
             d="m 0,0 c 10.455,11.222 21.1,22.267 33.076,31.89 1.003,0.806 -0.42,2.213 -1.415,1.414 C 19.686,23.682 9.041,12.636 -1.414,1.414 -2.291,0.474 -0.88,-0.943 0,0"
             style="fill:#000000;fill-opacity:1;fill-rule:nonzero;stroke:none"
             id="path5029"
             inkscape:connector-curvature="0" /></g><g
           id="g5031"
           transform="translate(242.0088,203.9746)"><path
             d="m 0,0 c 6.17,5.041 10.971,12.29 16.61,17.982 5.867,5.923 12.074,11.482 18.544,16.738 0.999,0.812 -0.424,2.22 -1.414,1.415 C 27.27,30.878 21.063,25.32 15.195,19.397 9.557,13.705 4.753,6.453 -1.414,1.414 -2.411,0.601 -0.989,-0.808 0,0"
             style="fill:#000000;fill-opacity:1;fill-rule:nonzero;stroke:none"
             id="path5033"
             inkscape:connector-curvature="0" /></g><g
           id="g5035"
           transform="translate(205.8096,169.209)"><path
             d="m 0,0 c 5.216,6.185 11.563,11.503 17.441,17.046 6.153,5.802 12.308,11.601 18.462,17.402 0.938,0.886 -0.478,2.298 -1.415,1.414 C 28.334,30.062 22.18,24.262 16.027,18.46 10.151,12.92 3.799,7.596 -1.414,1.414 -2.239,0.436 -0.831,-0.986 0,0"
             style="fill:#000000;fill-opacity:1;fill-rule:nonzero;stroke:none"
             id="path5037"
             inkscape:connector-curvature="0" /></g><g
           id="g5039"
           transform="translate(204.1313,170.4121)"><path
             d="m 0,0 c -7.69,-6.752 -14.207,-14.698 -21.901,-21.437 -0.97,-0.849 0.45,-2.259 1.415,-1.415 7.693,6.74 14.21,14.686 21.9,21.438 C 2.383,-0.563 0.964,0.847 0,0"
             style="fill:#000000;fill-opacity:1;fill-rule:nonzero;stroke:none"
             id="path5041"
             inkscape:connector-curvature="0" /></g><g
           id="g5043"
           transform="translate(182.001,148.7646)"><path
             d="m 0,0 c -12.028,-9.706 -23.213,-20.342 -33.509,-31.868 -0.855,-0.957 0.555,-2.377 1.415,-1.414 10.295,11.526 21.48,22.162 33.508,31.868 C 2.416,-0.605 0.993,0.802 0,0"
             style="fill:#000000;fill-opacity:1;fill-rule:nonzero;stroke:none"
             id="path5045"
             inkscape:connector-curvature="0" /></g><g
           id="g5047"
           transform="translate(148.2861,116.7354)"><path
             d="m 0,0 c -9.725,-8.717 -20.95,-15.637 -30.849,-24.212 -0.975,-0.845 0.445,-2.254 1.414,-1.414 9.901,8.578 21.116,15.486 30.849,24.212 C 2.375,-0.554 0.956,0.856 0,0"
             style="fill:#000000;fill-opacity:1;fill-rule:nonzero;stroke:none"
             id="path5049"
             inkscape:connector-curvature="0" /></g><g
           id="g5051"
           transform="translate(100.7471,92.5996)"><path
             d="m 0,0 c 1.618,-2.697 4.951,-4.37 8.011,-4.817 3.657,-0.534 6.675,1.387 9.706,3.136 1.115,0.643 0.109,2.371 -1.009,1.726 C 14.413,-1.278 12.051,-2.957 9.29,-2.931 6.592,-2.905 3.138,-1.343 1.727,1.009 1.066,2.112 -0.664,1.108 0,0"
             style="fill:#000000;fill-opacity:1;fill-rule:nonzero;stroke:none"
             id="path5053"
             inkscape:connector-curvature="0" /></g></g></g></g></svg>