<?xml version="1.0" encoding="UTF-8" standalone="no"?>
<!-- Created with Inkscape (http://www.inkscape.org/) -->

<svg
   xmlns:dc="http://purl.org/dc/elements/1.1/"
   xmlns:cc="http://creativecommons.org/ns#"
   xmlns:rdf="http://www.w3.org/1999/02/22-rdf-syntax-ns#"
   xmlns:svg="http://www.w3.org/2000/svg"
   xmlns="http://www.w3.org/2000/svg"
   xmlns:sodipodi="http://sodipodi.sourceforge.net/DTD/sodipodi-0.dtd"
   xmlns:inkscape="http://www.inkscape.org/namespaces/inkscape"
   id="svg4363"
   version="1.1"
   inkscape:version="0.48.5 r10040"
   width="80.000725"
   height="80.000725"
   xml:space="preserve"
   sodipodi:docname="pomaranča.svg"><metadata
     id="metadata4369"><rdf:RDF><cc:Work
         rdf:about=""><dc:format>image/svg+xml</dc:format><dc:type
           rdf:resource="http://purl.org/dc/dcmitype/StillImage" /><dc:title /></cc:Work></rdf:RDF></metadata><defs
     id="defs4367"><clipPath
       clipPathUnits="userSpaceOnUse"
       id="clipPath4377"><path
         d="m 0,566.93 566.93,0 L 566.93,0 0,0 0,566.93 z"
         id="path4379"
         inkscape:connector-curvature="0" /></clipPath></defs><sodipodi:namedview
     pagecolor="#ffffff"
     bordercolor="#666666"
     borderopacity="1"
     objecttolerance="10"
     gridtolerance="10"
     guidetolerance="10"
     inkscape:pageopacity="0"
     inkscape:pageshadow="2"
     inkscape:window-width="743"
     inkscape:window-height="480"
     id="namedview4365"
     showgrid="false"
     inkscape:zoom="0.33302172"
     inkscape:cx="561.91349"
     inkscape:cy="40.000627"
     inkscape:window-x="0"
     inkscape:window-y="0"
     inkscape:window-maximized="0"
     inkscape:current-layer="g4371"
     fit-margin-top="10"
     fit-margin-left="10"
     fit-margin-right="10"
     fit-margin-bottom="10" /><g
     id="g4371"
     inkscape:groupmode="layer"
     inkscape:label="pomaranča"
     transform="matrix(1.25,0,0,-1.25,-313.40478,394.33136)"><g
       id="g4373"
       transform="matrix(0.10522116,0,0,0.10522116,252.97581,253.6383)"><g
         id="g4375"
         clip-path="url(#clipPath4377)"><g
           id="g4381"
           transform="translate(510.3154,283.4648)"><path
             d="m 0,0 c 0,-125.692 -101.896,-227.591 -227.594,-227.591 -125.692,0 -227.588,101.899 -227.588,227.591 0,125.695 101.896,227.591 227.588,227.591 C -101.896,227.591 0,125.695 0,0"
             style="fill:#f26c36;fill-opacity:1;fill-rule:nonzero;stroke:none"
             id="path4383"
             inkscape:connector-curvature="0" /></g><g
           id="g4385"
           transform="translate(510.3154,283.4648)"><path
             d="m 0,0 c 0,-125.692 -101.896,-227.591 -227.594,-227.591 -125.692,0 -227.588,101.899 -227.588,227.591 0,125.695 101.896,227.591 227.588,227.591 C -101.896,227.591 0,125.695 0,0 z"
             style="fill:none;stroke:#f26c36;stroke-width:1;stroke-linecap:butt;stroke-linejoin:miter;stroke-miterlimit:10;stroke-opacity:1;stroke-dasharray:none"
             id="path4387"
             inkscape:connector-curvature="0" /></g><g
           id="g4389"
           transform="translate(491.7285,283.6787)"><path
             d="m 0,0 c 0,-115.312 -93.471,-208.783 -208.782,-208.783 -115.305,0 -208.78,93.471 -208.78,208.783 0,115.306 93.475,208.782 208.78,208.782 C -93.471,208.782 0,115.306 0,0"
             style="fill:#fcb24c;fill-opacity:1;fill-rule:nonzero;stroke:none"
             id="path4391"
             inkscape:connector-curvature="0" /></g><g
           id="g4393"
           transform="translate(491.7285,283.6787)"><path
             d="m 0,0 c 0,-115.312 -93.471,-208.783 -208.782,-208.783 -115.305,0 -208.78,93.471 -208.78,208.783 0,115.306 93.475,208.782 208.78,208.782 C -93.471,208.782 0,115.306 0,0 z"
             style="fill:none;stroke:#fcb24c;stroke-width:1;stroke-linecap:butt;stroke-linejoin:miter;stroke-miterlimit:10;stroke-opacity:1;stroke-dasharray:none"
             id="path4395"
             inkscape:connector-curvature="0" /></g><g
           id="g4397"
           transform="translate(309.0527,397.0337)"><path
             d="m 0,0 c -8.582,-40.975 -15.815,-99.875 -35.329,-101.176 -19.513,-1.298 -43.794,61.753 -52.734,99.257 -8.01,33.612 -28.547,75.607 44.281,80.463 C 26.449,83.22 7.127,34.031 0,0"
             style="fill:#f26c36;fill-opacity:1;fill-rule:nonzero;stroke:none"
             id="path4399"
             inkscape:connector-curvature="0" /></g><g
           id="g4401"
           transform="translate(309.0527,397.0337)"><path
             d="m 0,0 c -8.582,-40.975 -15.815,-99.875 -35.329,-101.176 -19.513,-1.298 -43.794,61.753 -52.734,99.257 -8.01,33.612 -28.547,75.607 44.281,80.463 C 26.449,83.22 7.127,34.031 0,0 z"
             style="fill:none;stroke:#f26c36;stroke-width:1;stroke-linecap:butt;stroke-linejoin:miter;stroke-miterlimit:10;stroke-opacity:1;stroke-dasharray:none"
             id="path4403"
             inkscape:connector-curvature="0" /></g><g
           id="g4405"
           transform="translate(421.082,274.7588)"><path
             d="m 0,0 c -31.855,2.158 -76.228,8.745 -82.567,-4.322 -6.335,-13.073 32.299,-41.99 56.809,-55.427 C -3.793,-71.794 20.734,-94.032 44.39,-45.255 67.191,1.781 26.455,-1.79 0,0"
             style="fill:#f26c36;fill-opacity:1;fill-rule:nonzero;stroke:none"
             id="path4407"
             inkscape:connector-curvature="0" /></g><g
           id="g4409"
           transform="translate(421.082,274.7588)"><path
             d="m 0,0 c -31.855,2.158 -76.228,8.745 -82.567,-4.322 -6.335,-13.073 32.299,-41.99 56.809,-55.427 C -3.793,-71.794 20.734,-94.032 44.39,-45.255 67.191,1.781 26.455,-1.79 0,0 z"
             style="fill:none;stroke:#f26c36;stroke-width:1;stroke-linecap:butt;stroke-linejoin:miter;stroke-miterlimit:10;stroke-opacity:1;stroke-dasharray:none"
             id="path4411"
             inkscape:connector-curvature="0" /></g><g
           id="g4413"
           transform="translate(304.4883,162.876)"><path
             d="M 0,0 C -11.262,40.316 -31.984,95.927 -15.264,106.072 1.456,116.217 52.062,71.444 77.274,42.278 99.873,16.137 137.451,-11.674 75.049,-49.537 14.867,-86.049 9.358,-33.488 0,0"
             style="fill:#f26c36;fill-opacity:1;fill-rule:nonzero;stroke:none"
             id="path4415"
             inkscape:connector-curvature="0" /></g><g
           id="g4417"
           transform="translate(304.4883,162.876)"><path
             d="M 0,0 C -11.262,40.316 -31.984,95.927 -15.264,106.072 1.456,116.217 52.062,71.444 77.274,42.278 99.873,16.137 137.451,-11.674 75.049,-49.537 14.867,-86.049 9.358,-33.488 0,0 z"
             style="fill:none;stroke:#f26c36;stroke-width:1;stroke-linecap:butt;stroke-linejoin:miter;stroke-miterlimit:10;stroke-opacity:1;stroke-dasharray:none"
             id="path4419"
             inkscape:connector-curvature="0" /></g><g
           id="g4421"
           transform="translate(198.5044,185.0674)"><path
             d="M 0,0 C 22.062,32.291 49.461,80.525 66.452,74.683 83.442,68.84 81.234,5.778 75.248,-29.769 69.891,-61.627 72.117,-105.187 8.697,-83.38 -52.459,-62.354 -18.331,-26.817 0,0"
             style="fill:#f26c36;fill-opacity:1;fill-rule:nonzero;stroke:none"
             id="path4423"
             inkscape:connector-curvature="0" /></g><g
           id="g4425"
           transform="translate(198.5044,185.0674)"><path
             d="M 0,0 C 22.062,32.291 49.461,80.525 66.452,74.683 83.442,68.84 81.234,5.778 75.248,-29.769 69.891,-61.627 72.117,-105.187 8.697,-83.38 -52.459,-62.354 -18.331,-26.817 0,0 z"
             style="fill:none;stroke:#f26c36;stroke-width:1;stroke-linecap:butt;stroke-linejoin:miter;stroke-miterlimit:10;stroke-opacity:1;stroke-dasharray:none"
             id="path4427"
             inkscape:connector-curvature="0" /></g><g
           id="g4429"
           transform="translate(144.4487,272.5166)"><path
             d="M 0,0 C 31.797,-2.265 76.292,-0.573 81.902,-19.306 87.505,-38.044 47.528,-70.922 22.433,-85.137 -0.057,-97.878 -25.64,-124.009 -46.564,-54.079 -66.741,13.354 -26.413,1.883 0,0"
             style="fill:#f26c36;fill-opacity:1;fill-rule:nonzero;stroke:none"
             id="path4431"
             inkscape:connector-curvature="0" /></g><g
           id="g4433"
           transform="translate(144.4487,272.5166)"><path
             d="M 0,0 C 31.797,-2.265 76.292,-0.573 81.902,-19.306 87.505,-38.044 47.528,-70.922 22.433,-85.137 -0.057,-97.878 -25.64,-124.009 -46.564,-54.079 -66.741,13.354 -26.413,1.883 0,0 z"
             style="fill:none;stroke:#f26c36;stroke-width:1;stroke-linecap:butt;stroke-linejoin:miter;stroke-miterlimit:10;stroke-opacity:1;stroke-dasharray:none"
             id="path4435"
             inkscape:connector-curvature="0" /></g><g
           id="g4437"
           transform="translate(209.979,368.8315)"><path
             d="m 0,0 c 20.159,-36.234 52.971,-84.965 39.133,-98.782 -13.842,-13.817 -73.064,17.261 -104.144,39.372 -27.863,19.82 -70.596,37.643 -18.946,89.215 C -34.145,79.539 -16.738,30.097 0,0"
             style="fill:#f26c36;fill-opacity:1;fill-rule:nonzero;stroke:none"
             id="path4439"
             inkscape:connector-curvature="0" /></g><g
           id="g4441"
           transform="translate(209.979,368.8315)"><path
             d="m 0,0 c 20.159,-36.234 52.971,-84.965 39.133,-98.782 -13.842,-13.817 -73.064,17.261 -104.144,39.372 -27.863,19.82 -70.596,37.643 -18.946,89.215 C -34.145,79.539 -16.738,30.097 0,0 z"
             style="fill:none;stroke:#f26c36;stroke-width:1;stroke-linecap:butt;stroke-linejoin:miter;stroke-miterlimit:10;stroke-opacity:1;stroke-dasharray:none"
             id="path4443"
             inkscape:connector-curvature="0" /></g><g
           id="g4445"
           transform="translate(401.6357,340.1001)"><path
             d="m 0,0 c -31.845,-27.171 -73.586,-69.354 -89.818,-58.451 -16.237,10.907 3.108,75.643 18.969,110.783 14.219,31.495 23.645,77.284 84.237,36.587 C 71.822,49.673 26.454,22.572 0,0"
             style="fill:#f26c36;fill-opacity:1;fill-rule:nonzero;stroke:none"
             id="path4447"
             inkscape:connector-curvature="0" /></g><g
           id="g4449"
           transform="translate(401.6357,340.1001)"><path
             d="m 0,0 c -31.845,-27.171 -73.586,-69.354 -89.818,-58.451 -16.237,10.907 3.108,75.643 18.969,110.783 14.219,31.495 23.645,77.284 84.237,36.587 C 71.822,49.673 26.454,22.572 0,0 z"
             style="fill:none;stroke:#f26c36;stroke-width:1;stroke-linecap:butt;stroke-linejoin:miter;stroke-miterlimit:10;stroke-opacity:1;stroke-dasharray:none"
             id="path4451"
             inkscape:connector-curvature="0" /></g><g
           id="g4453"
           transform="translate(434.1494,284.3271)"><path
             d="m 0,0 c -22.7,1.676 -54.287,1.363 -58.939,11.64 -4.654,10.279 22.615,27.632 39.964,35.023 C -3.434,53.289 13.837,67.166 31.203,28.802 47.946,-8.188 18.851,-1.386 0,0"
             style="fill:#f26c36;fill-opacity:1;fill-rule:nonzero;stroke:none"
             id="path4455"
             inkscape:connector-curvature="0" /></g><g
           id="g4457"
           transform="translate(434.1494,284.3271)"><path
             d="m 0,0 c -22.7,1.676 -54.287,1.363 -58.939,11.64 -4.654,10.279 22.615,27.632 39.964,35.023 C -3.434,53.289 13.837,67.166 31.203,28.802 47.946,-8.188 18.851,-1.386 0,0 z"
             style="fill:none;stroke:#f26c36;stroke-width:1;stroke-linecap:butt;stroke-linejoin:miter;stroke-miterlimit:10;stroke-opacity:1;stroke-dasharray:none"
             id="path4459"
             inkscape:connector-curvature="0" /></g></g></g></g></svg>