<?xml version="1.0" encoding="UTF-8" standalone="no"?>
<!-- Created with Inkscape (http://www.inkscape.org/) -->

<svg
   xmlns:dc="http://purl.org/dc/elements/1.1/"
   xmlns:cc="http://creativecommons.org/ns#"
   xmlns:rdf="http://www.w3.org/1999/02/22-rdf-syntax-ns#"
   xmlns:svg="http://www.w3.org/2000/svg"
   xmlns="http://www.w3.org/2000/svg"
   xmlns:sodipodi="http://sodipodi.sourceforge.net/DTD/sodipodi-0.dtd"
   xmlns:inkscape="http://www.inkscape.org/namespaces/inkscape"
   id="svg4461"
   version="1.1"
   inkscape:version="0.48.5 r10040"
   width="80"
   height="80"
   xml:space="preserve"
   sodipodi:docname="potica.svg"><metadata
     id="metadata4467"><rdf:RDF><cc:Work
         rdf:about=""><dc:format>image/svg+xml</dc:format><dc:type
           rdf:resource="http://purl.org/dc/dcmitype/StillImage" /><dc:title /></cc:Work></rdf:RDF></metadata><defs
     id="defs4465"><clipPath
       clipPathUnits="userSpaceOnUse"
       id="clipPath4475"><path
         d="m 0,566.93 566.93,0 L 566.93,0 0,0 0,566.93 z"
         id="path4477"
         inkscape:connector-curvature="0" /></clipPath></defs><sodipodi:namedview
     pagecolor="#ffffff"
     bordercolor="#666666"
     borderopacity="1"
     objecttolerance="10"
     gridtolerance="10"
     guidetolerance="10"
     inkscape:pageopacity="0"
     inkscape:pageshadow="2"
     inkscape:window-width="743"
     inkscape:window-height="480"
     id="namedview4463"
     showgrid="false"
     inkscape:zoom="0.33302172"
     inkscape:cx="565.79697"
     inkscape:cy="38.953847"
     inkscape:window-x="0"
     inkscape:window-y="0"
     inkscape:window-maximized="0"
     inkscape:current-layer="g4469"
     fit-margin-top="25"
     fit-margin-left="10"
     fit-margin-right="10"
     fit-margin-bottom="25" /><g
     id="g4469"
     inkscape:groupmode="layer"
     inkscape:label="potica"
     transform="matrix(1.25,0,0,-1.25,-309.52129,395.37741)"><g
       id="g4471"
       transform="matrix(0.10450442,0,0,0.11487966,250.39582,251.64142)"><g
         id="g4473"
         clip-path="url(#clipPath4475)"><g
           id="g4479"
           transform="translate(148.9858,180.959)"><path
             d="m 0,0 c -47.812,0 -91.641,11.954 -97.618,65.743 -5.975,65.741 57.775,117.539 115.546,133.476 55.782,11.952 119.531,7.969 177.304,3.984 41.836,-3.984 119.532,-5.976 147.423,-43.829 C 368.551,125.507 364.568,47.813 328.708,23.908 294.841,-1.991 239.061,0 197.224,0 L 0,0"
             style="fill:#7a563b;fill-opacity:1;fill-rule:nonzero;stroke:none"
             id="path4481"
             inkscape:connector-curvature="0" /></g><g
           id="g4483"
           transform="translate(149.3408,181.584)"><path
             d="m 0,0 c -21.058,0.049 -43.009,1.965 -62.109,11.536 -19.127,9.585 -30.347,27.316 -34.079,48.035 -8.934,49.584 27.391,93.307 66.877,117.794 10.159,6.3 20.973,11.525 32.132,15.789 13.177,5.035 26.822,7.415 40.767,9.244 30.764,4.035 61.961,4.05 92.914,2.903 25.79,-0.956 51.519,-2.861 77.233,-4.989 21.687,-1.795 43.405,-3.919 64.681,-8.642 20.158,-4.474 41.219,-11.506 56.513,-25.964 13.881,-13.122 19.832,-32.406 22.128,-50.864 2.576,-20.706 0.351,-42.683 -7.427,-62.107 C 341.565,32.597 325.956,19.656 306.081,11.646 283.142,2.4 257.503,0.748 233.044,0.145 206.64,-0.507 180.175,0 153.764,0 L 0,0 c -0.823,0 -2.017,-1.25 -0.71,-1.25 l 160.481,0 c 26.35,0 52.767,-0.56 79.107,0.329 23.898,0.807 48.391,3.374 70.637,12.678 17.66,7.386 31.839,19.297 40.107,36.659 8.377,17.59 10.969,37.844 10.173,57.143 -0.756,18.327 -5.109,37.716 -16.008,52.796 -11.154,15.436 -28.975,24.035 -46.645,29.765 -20.417,6.619 -41.978,9.518 -63.258,11.689 -22.404,2.284 -44.892,3.917 -67.366,5.276 -30.06,1.817 -60.208,2.866 -90.307,1.392 -26.387,-1.293 -53.301,-3.981 -77.996,-13.839 -40.603,-16.21 -79.647,-47.967 -93.227,-90.795 -6.662,-21.012 -6.025,-45.112 4.152,-64.9 8.447,-16.426 24.065,-26.636 41.288,-32.072 15.697,-4.955 32.5,-6.083 48.862,-6.121 C 0.114,-1.252 1.308,-0.003 0,0"
             style="fill:#7a563b;fill-opacity:1;fill-rule:nonzero;stroke:none"
             id="path4485"
             inkscape:connector-curvature="0" /></g><g
           id="g4487"
           transform="translate(161.2163,189.6787)"><path
             d="m 0,0 c -43.82,0 -83.988,10.712 -89.464,58.919 -5.477,58.915 52.948,105.334 105.898,119.618 51.121,10.711 109.548,7.142 162.495,3.568 38.344,-3.568 109.549,-5.355 135.112,-39.277 C 337.776,112.478 334.125,42.851 301.259,21.423 270.218,-1.783 219.096,0 180.754,0 L 0,0"
             style="fill:#ffd17b;fill-opacity:1;fill-rule:nonzero;stroke:none"
             id="path4489"
             inkscape:connector-curvature="0" /></g><g
           id="g4491"
           transform="translate(161.6235,190.1084)"><path
             d="m 0,0 c -21.266,0.054 -43.983,2.112 -62.482,13.548 -18.517,11.447 -26.783,32.474 -26.778,53.596 0.01,49.822 45.207,87.579 87.733,104.717 27.098,10.921 57.78,12.277 86.679,12.858 30.949,0.622 61.891,-1.391 92.753,-3.471 19.988,-1.347 40.105,-3.046 59.913,-6.071 21.172,-3.233 43.394,-8.289 61.388,-20.451 33.083,-22.361 34.852,-74.337 20.815,-108.054 -19.8,-47.557 -83.44,-46.768 -126.696,-46.7 C 128.883,0.072 64.441,0 0,0 -0.568,0 -2.104,-0.859 -0.814,-0.859 l 161.73,0 c 26.04,0 52.262,-0.877 78.219,1.605 21.825,2.087 44.475,7.005 62.466,20.186 30.467,22.32 34.178,70.75 22.449,104.035 -13.921,39.507 -60.129,48.122 -96.786,52.695 -21.276,2.654 -42.77,4.131 -64.16,5.499 -29.936,1.915 -59.951,3.265 -89.945,2.027 C 47.214,184.116 20.757,181.65 -3.499,171.876 -24.167,163.546 -43.38,151.173 -59.219,135.483 -85.036,109.911 -101.042,70.258 -84.501,35.296 -69.784,4.19 -31.359,-0.782 -0.814,-0.859 -0.246,-0.86 1.29,-0.003 0,0"
             style="fill:#8f6548;fill-opacity:1;fill-rule:nonzero;stroke:none"
             id="path4493"
             inkscape:connector-curvature="0" /></g><g
           id="g4495"
           transform="translate(165.0205,197.6729)"><path
             d="m 0,0 c -37.929,0 -72.697,9.272 -77.439,50.998 -4.74,50.997 45.832,91.176 91.666,103.541 44.25,9.27 94.82,6.181 140.653,3.087 33.186,-3.087 94.822,-4.635 116.946,-33.997 C 292.373,97.359 289.213,37.091 260.764,18.543 233.896,-1.543 189.647,0 156.457,0 L 0,0"
             style="fill:#7a563b;fill-opacity:1;fill-rule:nonzero;stroke:none"
             id="path4497"
             inkscape:connector-curvature="0" /></g><g
           id="g4499"
           transform="translate(165.3877,198.252)"><path
             d="m 0,0 c -20.713,0.061 -43.814,2.234 -60.223,16.243 -17.375,14.833 -19.869,40.61 -13.939,61.399 6.707,23.509 24.849,42.377 44.62,55.794 10.015,6.795 20.932,12.228 32.271,16.431 13.6,5.041 28.146,6.776 42.517,8.118 30.854,2.882 61.996,1.452 92.862,-0.465 22.004,-1.368 44.176,-2.821 66,-6.022 20.681,-3.034 43.446,-7.874 59.797,-21.757 15.203,-12.908 19.764,-34.472 19.815,-53.529 0.051,-19.339 -5.057,-41.62 -20.027,-54.978 C 244.258,3.892 215.055,1.201 190.232,0.266 163.23,-0.752 136.095,0 109.078,0 L 32.81,0 0,0 c -0.763,0 -2.042,-1.158 -0.734,-1.158 54.473,0 108.949,0.146 163.423,-0.015 39.168,-0.115 96.668,-1.737 115.702,40.695 7.955,17.736 9.039,38.848 5.225,57.732 -3.714,18.387 -13.718,32.718 -30.315,41.575 -18.234,9.731 -39.726,12.974 -59.997,15.338 -22.875,2.669 -45.965,4.121 -68.952,5.354 -29.818,1.599 -59.844,2.087 -89.538,-1.545 -12.209,-1.494 -23.932,-3.824 -35.434,-8.21 -10.602,-4.043 -20.696,-9.419 -30.138,-15.694 C -48.993,121.953 -64.857,105.373 -73.419,85.021 -81.585,65.605 -81.548,41.55 -69.45,23.753 -54.707,2.065 -24.678,-1.089 -0.734,-1.158 0.03,-1.161 1.308,-0.004 0,0"
             style="fill:#7a563b;fill-opacity:1;fill-rule:nonzero;stroke:none"
             id="path4501"
             inkscape:connector-curvature="0" /></g><g
           id="g4503"
           transform="translate(177.5547,208.8193)"><path
             d="m 0,0 c -30.647,0 -58.74,7.494 -62.572,41.209 -3.83,41.208 37.034,73.677 74.069,83.664 35.755,7.493 76.62,4.995 113.652,2.496 26.818,-2.496 76.623,-3.746 94.5,-27.469 C 236.25,78.671 233.695,29.971 210.709,14.986 188.999,-1.246 153.243,0 126.425,0 L 0,0"
             style="fill:#ffd17b;fill-opacity:1;fill-rule:nonzero;stroke:none"
             id="path4505"
             inkscape:connector-curvature="0" /></g><g
           id="g4507"
           transform="translate(178.1738,209.2402)"><path
             d="m 0,0 c -20.241,0.073 -44.045,2.982 -55.917,21.589 -12.912,20.239 -5.495,46.765 8.022,64.497 14.978,19.648 39.51,34.473 63.745,38.976 30.814,5.725 62.676,4.298 93.787,2.396 22.204,-1.357 44.835,-2.563 66.659,-7.078 19.909,-4.119 39.835,-12.121 47.881,-32.205 7.369,-18.392 6.159,-41.836 -2.732,-59.456 C 209.603,5.245 179.111,1.381 155.674,0.301 130.04,-0.882 104.208,0.001 78.552,0.001 l -78.761,0 c -0.559,0 -2.108,-0.844 -0.82,-0.844 l 80.272,0 c 26.683,0 53.582,-1.018 80.23,0.541 19.89,1.165 43.442,4.914 57.711,20.288 12.816,13.81 15.096,36.208 12.671,54.044 -1.182,8.698 -3.941,17.912 -9.311,24.99 -5.641,7.433 -13.273,12.277 -21.773,15.901 -19.289,8.225 -41.217,9.79 -61.875,11.466 -26.993,2.19 -54.092,4.046 -81.188,3.311 -14.407,-0.39 -28.802,-1.741 -42.955,-4.503 -10.092,-1.97 -19.972,-6.496 -28.949,-11.387 -26.722,-14.559 -50.57,-41.019 -47.961,-73.279 1.164,-14.391 9.125,-26.79 21.783,-33.59 12.379,-6.65 27.361,-7.732 41.136,-7.781 C -0.8,-0.844 0.975,-0.003 0,0"
             style="fill:#8f6548;fill-opacity:1;fill-rule:nonzero;stroke:none"
             id="path4509"
             inkscape:connector-curvature="0" /></g><g
           id="g4511"
           transform="translate(193.0859,220.5205)"><path
             d="m 0,0 c -22.185,0 -42.524,5.426 -45.298,29.833 -2.772,29.829 26.811,53.334 53.621,60.564 25.883,5.425 55.467,3.617 82.277,1.809 19.413,-1.809 55.469,-2.714 68.413,-19.885 12.016,-15.37 10.165,-50.626 -6.475,-61.474 C 136.823,-0.904 110.938,0 91.524,0 L 0,0"
             style="fill:#7a563b;fill-opacity:1;fill-rule:nonzero;stroke:none"
             id="path4513"
             inkscape:connector-curvature="0" /></g><g
           id="g4515"
           transform="translate(193.4409,221.1455)"><path
             d="m 0,0 c -10.782,0.054 -22.026,1.072 -31.448,6.769 -10.153,6.137 -13.935,18.093 -13.307,29.407 1.404,25.303 25.831,43.773 47.825,51.479 14.126,4.95 30.524,5.067 45.334,5.109 14.476,0.041 29.061,-0.721 43.481,-1.987 20.311,-1.782 45.79,-1.567 62.188,-15.519 11.715,-9.968 12.86,-28.747 10.165,-42.76 C 162.789,24.965 159.55,17.516 153.815,12.282 145.844,5.007 134.291,2.427 123.929,1.102 103.642,-1.493 82.535,0 62.128,0 L 0,0 c -0.823,0 -2.017,-1.25 -0.71,-1.25 l 80.259,0 c 22.772,0 49.217,-2.849 69.822,8.829 16.627,9.422 20.117,30.957 16.951,48.367 -1.553,8.539 -5.467,16.208 -12.319,21.635 -7.803,6.182 -18.292,8.806 -27.86,10.66 C 102.908,92.744 78.171,93.542 54.589,93.97 40.168,94.231 25.693,93.583 11.473,91.06 1.116,89.222 -8.729,84.549 -17.527,78.893 -35.179,67.546 -49.8,48.073 -46.203,26.11 -42.736,4.943 -21.928,-0.735 -3.362,-1.223 -2.479,-1.241 -1.594,-1.25 -0.71,-1.25 0.115,-1.254 1.308,-0.007 0,0"
             style="fill:#7a563b;fill-opacity:1;fill-rule:nonzero;stroke:none"
             id="path4517"
             inkscape:connector-curvature="0" /></g><g
           id="g4519"
           transform="translate(205.0581,239.2383)"><path
             d="m 0,0 c -12.542,0 -24.038,3.066 -25.605,16.862 -1.568,16.863 15.153,30.15 30.307,34.234 14.633,3.068 31.353,2.047 46.508,1.023 C 62.184,51.096 82.564,50.586 89.879,40.878 96.672,32.19 95.627,12.264 86.221,6.132 77.339,-0.511 62.706,0 51.732,0 L 0,0"
             style="fill:#ffd17b;fill-opacity:1;fill-rule:nonzero;stroke:none"
             id="path4521"
             inkscape:connector-curvature="0" /></g><g
           id="g4523"
           transform="translate(205.4131,239.8633)"><path
             d="m 0,0 c -11.064,0.1 -22.263,2.773 -24.789,15.059 -2.767,13.455 8.722,25.03 19.424,30.904 12.902,7.083 29.11,6.269 43.355,5.653 C 49.361,51.124 61.117,50.603 72.284,48.272 83.337,45.965 91.01,40.454 92.673,28.881 93.439,23.54 92.682,17.867 90.677,12.877 88.297,6.955 82.987,3.815 77.106,2.014 64.843,-1.743 50.424,0 37.771,0 L 0,0 c -0.823,0 -2.017,-1.25 -0.71,-1.25 l 39.361,0 c 11.909,0 24.224,-0.853 35.979,1.434 8.754,1.703 15.737,6.305 18.73,14.856 2.806,8.016 2.134,18.64 -2.945,25.614 C 85.013,48.072 73.753,49.693 65.356,50.801 52.961,52.436 40.249,53.082 27.761,53.142 15.541,53.201 3.454,52.215 -7.407,46.253 -16.085,41.49 -23.528,33.913 -26.284,24.247 -28.308,17.152 -26.544,9.003 -20.945,4.079 -15.607,-0.614 -7.451,-1.189 -0.71,-1.25 0.116,-1.258 1.309,-0.012 0,0"
             style="fill:#8f6548;fill-opacity:1;fill-rule:nonzero;stroke:none"
             id="path4525"
             inkscape:connector-curvature="0" /></g><g
           id="g4527"
           transform="translate(215.2847,212.835)"><path
             d="m 0,0 c -3.765,2.329 -28.507,24.383 -32.271,37.293 l 29.642,-2.629 c 0,0 18.406,-18.436 32.751,-30.122"
             style="fill:#ffd17b;fill-opacity:1;fill-rule:nonzero;stroke:none"
             id="path4529"
             inkscape:connector-curvature="0" /></g><g
           id="g4531"
           transform="translate(208.1128,192.7549)"><path
             d="M 0,0 C -6.454,2.867 -19.124,11.715 -21.993,18.167 L -2.63,20.08 c 0,0 17.691,-17.452 28.448,-17.452 L 0,0 z"
             style="fill:#ffd17b;fill-opacity:1;fill-rule:nonzero;stroke:none"
             id="path4533"
             inkscape:connector-curvature="0" /></g><g
           id="g4535"
           transform="translate(166.7886,185.3438)"><path
             d="M 0,0 C -12.191,0 -39.586,4.993 -49.964,10.757 L 6.695,8.606 C 50.103,0.008 40.086,-4.786 49.452,-5.499 L 0,0 z"
             style="fill:#ffd17b;fill-opacity:1;fill-rule:nonzero;stroke:none"
             id="path4537"
             inkscape:connector-curvature="0" /></g></g></g></g></svg>