<?xml version="1.0" encoding="UTF-8" standalone="no"?>
<!-- Created with Inkscape (http://www.inkscape.org/) -->

<svg
   xmlns:dc="http://purl.org/dc/elements/1.1/"
   xmlns:cc="http://creativecommons.org/ns#"
   xmlns:rdf="http://www.w3.org/1999/02/22-rdf-syntax-ns#"
   xmlns:svg="http://www.w3.org/2000/svg"
   xmlns="http://www.w3.org/2000/svg"
   xmlns:sodipodi="http://sodipodi.sourceforge.net/DTD/sodipodi-0.dtd"
   xmlns:inkscape="http://www.inkscape.org/namespaces/inkscape"
   id="svg5217"
   version="1.1"
   inkscape:version="0.48.5 r10040"
   width="80"
   height="80"
   xml:space="preserve"
   sodipodi:docname="Rdeca_CESNJE.svg"><metadata
     id="metadata5223"><rdf:RDF><cc:Work
         rdf:about=""><dc:format>image/svg+xml</dc:format><dc:type
           rdf:resource="http://purl.org/dc/dcmitype/StillImage" /><dc:title /></cc:Work></rdf:RDF></metadata><defs
     id="defs5221"><clipPath
       clipPathUnits="userSpaceOnUse"
       id="clipPath5231"><path
         d="m 61.905,86.323 379.143,0 0,350.148 -379.143,0 0,-350.148 z"
         id="path5233"
         inkscape:connector-curvature="0" /></clipPath><clipPath
       clipPathUnits="userSpaceOnUse"
       id="clipPath5279"><path
         d="M 0,0 500,0 500,500 0,500 0,0 z"
         id="path5281"
         inkscape:connector-curvature="0" /></clipPath><filter
       inkscape:menu-tooltip="Make the lightest parts of the object progressively transparent"
       inkscape:menu="Transparency utilities"
       inkscape:label="Light eraser"
       height="1"
       width="1"
       y="0"
       x="0"
       color-interpolation-filters="sRGB"
       id="filter3086"><feColorMatrix
         result="result14"
         type="luminanceToAlpha"
         in="SourceGraphic"
         id="feColorMatrix3088" /><feComposite
         in="SourceGraphic"
         in2="result14"
         result="fbSourceGraphic"
         operator="out"
         id="feComposite3090" /><feBlend
         mode="normal"
         in2="fbSourceGraphic"
         result="result15"
         id="feBlend3092" /></filter></defs><sodipodi:namedview
     pagecolor="#ffb3ff"
     bordercolor="#666666"
     borderopacity="1"
     objecttolerance="10"
     gridtolerance="10"
     guidetolerance="10"
     inkscape:pageopacity="0.61568627"
     inkscape:pageshadow="2"
     inkscape:window-width="743"
     inkscape:window-height="480"
     id="namedview5219"
     showgrid="false"
     inkscape:zoom="1.0680141"
     inkscape:cx="142.37535"
     inkscape:cy="25.754431"
     inkscape:window-x="0"
     inkscape:window-y="0"
     inkscape:window-maximized="0"
     inkscape:current-layer="g5225"
     fit-margin-top="10"
     fit-margin-left="10"
     fit-margin-right="10"
     fit-margin-bottom="10" /><g
     id="g5225"
     inkscape:groupmode="layer"
     inkscape:label="Rdeca_CESNJE"
     transform="matrix(1.25,0,0,-1.25,-274.34539,366.74557)"><g
       id="g5227"
       transform="matrix(0.12660144,0,0,0.13708531,219.63905,225.56284)"
       style="filter:url(#filter3086)"><g
         id="g5229"
         clip-path="url(#clipPath5231)"><g
           id="g5235"
           transform="translate(251.4766,86.4189)"><path
             d="m 0,0 c -61.826,0 -123.651,0.036 -185.477,-0.097 -3.423,-0.007 -4.098,0.672 -4.095,4.096 0.115,113.986 0.115,227.972 0,341.957 -0.003,3.423 0.671,4.099 4.095,4.095 123.651,-0.113 247.302,-0.113 370.953,0 3.422,0.003 4.099,-0.669 4.095,-4.094 C 189.456,231.971 189.456,117.985 189.57,4 189.575,0.576 188.9,-0.104 185.477,-0.097 123.65,0.036 61.826,0 0,0"
             style="fill:#ffffff;fill-opacity:1;fill-rule:nonzero;stroke:none"
             id="path5237"
             inkscape:connector-curvature="0" /></g><g
           id="g5239"
           transform="translate(171.0776,228.54)"><path
             d="m 0,0 c 10.128,-3.896 19.316,-9.222 27.974,-15.917 6.926,-5.358 10.551,-12.477 13.434,-19.958 6.315,-16.391 4.397,-33.219 1.631,-50.118 -1.849,-11.293 -7.419,-20.635 -13.889,-29.43 -6.2,-8.428 -15.144,-13.707 -24.637,-18.08 -21.259,-9.794 -41.294,-5.236 -60.576,5.299 -13.65,7.458 -20.677,20.236 -25.028,34.641 -2.597,8.596 -4.199,17.293 -4.379,26.41 -0.227,11.432 3.773,21.562 8.123,31.574 4.1,9.433 9.477,18.038 17.371,25.199 10.056,9.121 21.865,12.788 34.827,14.184 C -19.64,2.679 -14.108,3.662 -8.591,3.636 -8.082,3.616 -7.584,3.515 -7.103,3.353 -4.935,1.823 -1.887,2.138 0,0"
             style="fill:#ed393a;fill-opacity:1;fill-rule:nonzero;stroke:none"
             id="path5241"
             inkscape:connector-curvature="0" /></g><g
           id="g5243"
           transform="translate(334.1641,238.2441)"><path
             d="m 0,0 c 6.113,0.511 11.811,2.96 18.164,2.872 15.599,-0.217 28.728,-7.275 40.792,-15.53 9.874,-6.757 16.369,-17.112 19.275,-29.336 5.703,-23.976 -0.493,-45.432 -13.454,-65.417 -7.2,-11.105 -17.036,-19.686 -29.045,-25.151 -9.415,-4.284 -19.757,-4.271 -29.924,-3.228 -5.752,0.589 -11.462,1.378 -17.129,2.997 -12.489,3.566 -21.573,11.43 -29.088,21.458 -3.891,5.191 -7.031,10.932 -9.616,16.869 -4.53,10.406 -4.533,21.368 -2.564,32.296 1.143,6.354 3.101,12.564 4.748,18.823 0.82,3.115 2.677,5.629 4.575,8.209 7.85,10.673 16.982,19.964 28.145,27.182 1.048,2.358 3.289,3.081 5.415,3.963 1.467,0.456 2.893,1.007 4.149,1.926 C -3.929,-0.773 -1.877,-0.623 0,0"
             style="fill:#ed393a;fill-opacity:1;fill-rule:nonzero;stroke:none"
             id="path5245"
             inkscape:connector-curvature="0" /></g><g
           id="g5247"
           transform="translate(163.8843,231.2676)"><path
             d="M 0,0 C -0.228,0.073 -0.462,0.1 -0.701,0.077 -2.314,-0.194 -3.613,0.029 -3.791,2.029 9.13,14.783 21.65,27.764 31.236,43.46 c 8.945,14.644 15.533,30.132 20.375,46.487 4.166,14.071 7.175,28.398 9.844,42.813 0.766,4.142 0.809,8.279 0.857,12.438 0.05,4.38 2.004,7.299 6.308,8.456 4.432,1.192 6.887,-1.311 8.775,-4.797 1.726,-3.185 3.433,-6.38 5.375,-9.992 3.123,3.664 5.965,7.098 8.913,10.439 6.738,7.634 14.818,13.383 24.459,16.749 7.071,2.468 13.737,5.982 21.039,7.865 14.297,3.687 28.771,2.661 43.236,1.783 3.288,-0.199 6.36,-1.289 7.502,-4.814 1.174,-3.615 -0.909,-5.912 -3.57,-8.025 -3.678,-2.919 -6.587,-6.574 -9.252,-10.429 C 163.045,135 145.979,126.804 125.24,125.166 c -10.957,-0.865 -21.874,-2.241 -32.834,-3.055 -3.337,-0.248 -4.101,-1.301 -2.977,-4.218 3.112,-8.071 6.546,-16.036 9.259,-24.24 6.934,-20.974 21.29,-37.057 35.088,-53.416 10.092,-11.965 21.576,-22.671 33.218,-33.154 0.26,-2.163 -2.248,-1.854 -2.877,-3.225 -1.106,-0.319 -2.016,-1.158 -3.22,-1.223 -2.033,-0.175 -3.442,-2.669 -5.818,-1.567 -8.934,9.379 -18.455,18.166 -27.45,27.501 -12.309,12.777 -21.473,27.859 -32.215,41.774 -3.618,4.685 -4.778,10.55 -6.831,15.969 -5.106,13.478 -11.11,26.636 -14.547,40.71 -2.256,0.748 -1.074,-1.495 -1.806,-2.075 C 65.533,85.235 52.774,48.064 27.044,16.235 21.991,9.986 15.726,5.016 10.314,-0.83 9.457,-1.756 8.468,-2.189 7.219,-2.021 4.9,-1.034 1.979,-2.201 0,0"
             style="fill:#a43537;fill-opacity:1;fill-rule:nonzero;stroke:none"
             id="path5249"
             inkscape:connector-curvature="0" /></g><g
           id="g5251"
           transform="translate(160.0928,233.2969)"><path
             d="M 0,0 C 1.029,-0.65 2.059,-1.301 3.089,-1.952 -2.682,-1.978 -8.452,-1.98 -14.164,-0.953 -9.48,-0.074 -4.639,-1.538 0,0"
             style="fill:#fabba4;fill-opacity:1;fill-rule:nonzero;stroke:none"
             id="path5253"
             inkscape:connector-curvature="0" /></g><g
           id="g5255"
           transform="translate(318.9629,232.3359)"><path
             d="M 0,0 C 1.97,0.576 3.938,1.153 5.906,1.729 L 5.835,1.409 C 3.917,0.256 1.998,-0.896 0.079,-2.049 0.054,-1.366 0.026,-0.683 0,0"
             style="fill:#fccbb7;fill-opacity:1;fill-rule:nonzero;stroke:none"
             id="path5257"
             inkscape:connector-curvature="0" /></g><g
           id="g5259"
           transform="translate(163.8843,231.2676)"><path
             d="M 0,0 C 2.299,-1.058 5.17,-0.067 7.218,-2.021 7.279,-2.258 7.271,-2.494 7.194,-2.729 4.773,-1.879 1.559,-3.122 0,0"
             style="fill:#efa68e;fill-opacity:1;fill-rule:nonzero;stroke:none"
             id="path5261"
             inkscape:connector-curvature="0" /></g><g
           id="g5263"
           transform="translate(327.6768,235.4648)"><path
             d="M 0,0 C 1.066,0.963 2.134,1.925 3.201,2.887 4.297,2.851 5.392,2.814 6.486,2.779 4.765,1.823 3.042,0.867 1.319,-0.089 0.847,-0.543 0.407,-0.514 0,0"
             style="fill:#efc6b7;fill-opacity:1;fill-rule:nonzero;stroke:none"
             id="path5265"
             inkscape:connector-curvature="0" /></g><g
           id="g5267"
           transform="translate(236.1143,356.2144)"><path
             d="M 0,0 C -0.205,1.357 -0.797,3.002 0.855,3.674 1.81,4.062 1.861,2.862 1.806,2.076 1.204,1.384 0.602,0.692 0,0"
             style="fill:#bc6d5b;fill-opacity:1;fill-rule:nonzero;stroke:none"
             id="path5269"
             inkscape:connector-curvature="0" /></g><g
           id="g5271"
           transform="translate(327.6768,235.4648)"><path
             d="m 0,0 c 0.439,-0.029 0.88,-0.059 1.319,-0.089 -1.16,-1.155 -2.412,-2.077 -4.196,-1.632 -0.001,0 0.069,0.322 0.069,0.322 C -2.115,-0.443 -1.275,0.214 0,0"
             style="fill:#f29b80;fill-opacity:1;fill-rule:nonzero;stroke:none"
             id="path5273"
             inkscape:connector-curvature="0" /></g></g></g><g
       id="g5275"
       transform="matrix(0.12660144,0,0,0.13708531,219.63905,225.56284)"><g
         id="g5277"
         clip-path="url(#clipPath5279)"><g
           id="g5283"
           transform="translate(247.3311,369.2202)"><path
             d="m 0,0 c 7.221,6.018 11.807,14.295 19.563,19.836 8.392,5.995 18.141,9.603 27.79,13.018 1.205,0.427 0.686,2.36 -0.532,1.929 C 37.017,31.312 27.09,27.642 18.554,21.563 10.646,15.93 5.937,7.541 -1.414,1.414 -2.404,0.589 -0.983,-0.819 0,0"
             style="fill:#292a2a;fill-opacity:1;fill-rule:nonzero;stroke:none"
             id="path5285"
             inkscape:connector-curvature="0" /></g><g
           id="g5287"
           transform="translate(294.6846,402.0747)"><path
             d="M 0,0 C 8.938,2.83 18.113,4.588 27.491,5.009 31.74,5.2 35.995,5.132 40.235,4.803 44.708,4.456 52.72,4.695 55.819,0.637 c 0.772,-1.009 2.51,-0.013 1.728,1.01 -2.261,2.958 -5.329,3.595 -8.9,4.166 C 43.461,6.643 38.208,7.072 32.956,7.111 21.567,7.196 10.313,5.362 -0.532,1.929 -1.755,1.541 -1.232,-0.39 0,0"
             style="fill:#292929;fill-opacity:1;fill-rule:nonzero;stroke:none"
             id="path5289"
             inkscape:connector-curvature="0" /></g><g
           id="g5291"
           transform="translate(350.6143,403.0908)"><path
             d="m 0,0 c 0.507,-6.041 -4.893,-9.178 -8.481,-13.096 -2.896,-3.16 -5.188,-6.81 -7.79,-10.199 -5.896,-7.681 -15.393,-14.747 -24.657,-17.754 -1.218,-0.395 -0.697,-2.327 0.532,-1.928 9.686,3.143 19.522,10.412 25.708,18.458 3.553,4.621 6.728,9.25 10.982,13.282 C -0.372,-8.076 2.407,-4.853 2,0 1.894,1.273 -0.107,1.285 0,0"
             style="fill:#292929;fill-opacity:1;fill-rule:nonzero;stroke:none"
             id="path5293"
             inkscape:connector-curvature="0" /></g><g
           id="g5295"
           transform="translate(253.7041,351.4004)"><path
             d="m 0,0 c 3.905,2.829 10.5,1.988 15.142,2.396 5.149,0.452 10.279,1.092 15.401,1.78 8.821,1.185 18.52,1.534 26.831,4.897 1.178,0.476 0.664,2.412 -0.531,1.928 C 47.083,7.052 35.09,6.694 24.717,5.421 19.746,4.811 14.763,4.308 9.764,3.986 5.993,3.744 2.166,4.027 -1.01,1.727 -2.042,0.979 -1.045,-0.757 0,0"
             style="fill:#292929;fill-opacity:1;fill-rule:nonzero;stroke:none"
             id="path5297"
             inkscape:connector-curvature="0" /></g><g
           id="g5299"
           transform="translate(251.6436,352.1201)"><path
             d="m 0,0 c 0.441,-4.323 2.328,-7.601 4.036,-11.526 2.379,-5.47 4.303,-11.176 6.36,-16.774 1.574,-4.284 2.925,-8.718 5.128,-12.733 2.754,-5.018 5.885,-9.86 8.824,-14.772 0.661,-1.104 2.391,-0.099 1.727,1.009 -2.622,4.382 -5.308,8.732 -7.868,13.15 -2.551,4.401 -4.135,9.12 -5.883,13.878 C 10.63,-23.157 8.95,-18.537 7.17,-13.959 5.377,-9.348 2.508,-4.98 2,0 1.871,1.268 -0.131,1.281 0,0"
             style="fill:#292929;fill-opacity:1;fill-rule:nonzero;stroke:none"
             id="path5301"
             inkscape:connector-curvature="0" /></g><g
           id="g5303"
           transform="translate(276.543,295.6055)"><path
             d="m 0,0 c 16.296,-20.473 32.757,-40.97 52.814,-57.936 0.979,-0.825 2.4,0.582 1.415,1.415 C 34.172,-39.556 17.71,-19.059 1.414,1.414 0.613,2.421 -0.794,0.997 0,0"
             style="fill:#292929;fill-opacity:1;fill-rule:nonzero;stroke:none"
             id="path5305"
             inkscape:connector-curvature="0" /></g><g
           id="g5307"
           transform="translate(329.7363,237.2656)"><path
             d="m 0,0 c 8.311,-1.245 16.862,3.158 25.255,2.486 9.148,-0.732 19.106,-4.473 26.843,-9.235 1.099,-0.677 2.105,1.053 1.009,1.727 C 45.441,-0.304 36.772,2.442 27.962,4.153 24.323,4.86 20.802,4.418 17.17,3.892 12.041,3.146 5.653,1.162 0.532,1.93 -0.728,2.117 -1.271,0.19 0,0"
             style="fill:#292929;fill-opacity:1;fill-rule:nonzero;stroke:none"
             id="path5309"
             inkscape:connector-curvature="0" /></g><g
           id="g5311"
           transform="translate(381.834,230.5166)"><path
             d="m 0,0 c 8.031,-5.115 17.028,-9.942 21.85,-18.444 4.815,-8.495 8.123,-16.872 8.689,-26.698 0.074,-1.279 2.075,-1.287 2,0 -0.589,10.215 -3.958,18.832 -8.963,27.706 C 18.587,-8.59 9.351,-3.585 1.009,1.727 -0.079,2.42 -1.084,0.689 0,0"
             style="fill:#292929;fill-opacity:1;fill-rule:nonzero;stroke:none"
             id="path5313"
             inkscape:connector-curvature="0" /></g><g
           id="g5315"
           transform="translate(412.335,185.6816)"><path
             d="m 0,0 c 1.946,-20.099 -4.199,-42.127 -17.345,-57.718 -0.824,-0.978 0.584,-2.4 1.415,-1.414 C -2.461,-43.156 3.998,-20.635 2,0 1.877,1.27 -0.124,1.282 0,0"
             style="fill:#292929;fill-opacity:1;fill-rule:nonzero;stroke:none"
             id="path5317"
             inkscape:connector-curvature="0" /></g><g
           id="g5319"
           transform="translate(395.2021,128.1797)"><path
             d="m 0,0 c -9.387,-10.49 -19.778,-21.452 -34.315,-24.308 -6.525,-1.28 -13.948,-0.775 -20.562,-0.442 -7.852,0.396 -15.543,1.654 -22.773,4.839 -1.167,0.514 -2.187,-1.208 -1.01,-1.728 12.868,-5.668 29.298,-6.757 43.148,-4.869 15.616,2.129 27.028,14.03 36.926,25.094 C 2.271,-0.458 0.86,0.962 0,0"
             style="fill:#292929;fill-opacity:1;fill-rule:nonzero;stroke:none"
             id="path5321"
             inkscape:connector-curvature="0" /></g><g
           id="g5323"
           transform="translate(278.8945,163.625)"><path
             d="m 0,0 c 1.255,-23.096 16.084,-47.627 37.647,-57.083 1.168,-0.513 2.187,1.211 1.01,1.727 C 17.748,-46.188 3.22,-22.44 2,0 1.931,1.279 -0.069,1.288 0,0"
             style="fill:#292929;fill-opacity:1;fill-rule:nonzero;stroke:none"
             id="path5325"
             inkscape:connector-curvature="0" /></g><g
           id="g5327"
           transform="translate(301.8701,216.7969)"><path
             d="m 0,0 c -6.731,-6.474 -14.169,-14.111 -17.03,-23.232 -2.879,-9.175 -5.915,-19.786 -5.934,-29.449 -0.002,-1.287 1.998,-1.289 2,0 0.018,9.153 3.084,18.811 5.485,27.603 2.574,9.424 10.026,17.058 16.892,23.664 C 2.344,-0.521 0.928,0.893 0,0"
             style="fill:#292929;fill-opacity:1;fill-rule:nonzero;stroke:none"
             id="path5329"
             inkscape:connector-curvature="0" /></g><g
           id="g5331"
           transform="translate(303.0811,215.2256)"><path
             d="m 0,0 c 5.023,3.681 9.337,8.149 14.448,11.737 5.441,3.819 10.911,7.324 16.95,10.135 1.165,0.543 0.152,2.268 -1.009,1.728 C 24.353,20.788 18.878,17.282 13.439,13.464 8.327,9.875 4.015,5.407 -1.009,1.728 -2.036,0.975 -1.041,-0.762 0,0"
             style="fill:#292929;fill-opacity:1;fill-rule:nonzero;stroke:none"
             id="path5333"
             inkscape:connector-curvature="0" /></g><g
           id="g5335"
           transform="translate(329.5186,237.9629)"><path
             d="m 0,0 c -2.064,-3.63 -7.193,-3.776 -10.492,-5.586 -1.129,-0.62 -0.121,-2.348 1.009,-1.726 2.046,1.123 4.435,1.384 6.512,2.503 1.768,0.954 3.68,2.009 4.698,3.8 C 2.364,0.111 0.637,1.12 0,0"
             style="fill:#292929;fill-opacity:1;fill-rule:nonzero;stroke:none"
             id="path5337"
             inkscape:connector-curvature="0" /></g><g
           id="g5339"
           transform="translate(328.2783,238.8389)"><path
             d="m 0,0 c -0.804,-1.22 -1.616,-2.473 -2.759,-3.406 -1.137,-0.928 -2.554,-1.564 -3.829,-2.276 -1.123,-0.628 -0.116,-2.357 1.01,-1.727 1.457,0.814 3.032,1.544 4.304,2.642 1.219,1.053 2.122,2.423 3.001,3.758 C 2.437,0.069 0.706,1.072 0,0"
             style="fill:#292929;fill-opacity:1;fill-rule:nonzero;stroke:none"
             id="path5341"
             inkscape:connector-curvature="0" /></g><g
           id="g5343"
           transform="translate(274.1523,278.7178)"><path
             d="m 0,0 c 11.812,-18.212 29.885,-32.277 44.563,-48.08 0.876,-0.945 2.289,0.471 1.414,1.414 C 31.427,-31.001 13.433,-17.038 1.728,1.009 1.029,2.085 -0.703,1.084 0,0"
             style="fill:#292929;fill-opacity:1;fill-rule:nonzero;stroke:none"
             id="path5345"
             inkscape:connector-curvature="0" /></g><g
           id="g5347"
           transform="translate(247.5034,326.8467)"><path
             d="m 0,0 c 3.318,-8.038 5.974,-16.945 10.637,-24.323 4.973,-7.867 10.123,-15.755 15.587,-23.291 0.748,-1.032 2.484,-0.035 1.727,1.01 C 22.832,-39.546 18.16,-32.13 13.37,-24.847 8.321,-17.169 5.423,-7.935 1.929,0.532 1.444,1.705 -0.492,1.191 0,0"
             style="fill:#292929;fill-opacity:1;fill-rule:nonzero;stroke:none"
             id="path5349"
             inkscape:connector-curvature="0" /></g><g
           id="g5351"
           transform="translate(236.2598,359.6191)"><path
             d="m 0,0 c 3.664,-10.769 7.234,-21.576 11.064,-32.287 0.43,-1.203 2.364,-0.685 1.929,0.532 C 9.162,-21.044 5.593,-10.237 1.929,0.532 1.516,1.743 -0.416,1.223 0,0"
             style="fill:#292929;fill-opacity:1;fill-rule:nonzero;stroke:none"
             id="path5353"
             inkscape:connector-curvature="0" /></g><g
           id="g5355"
           transform="translate(235.6499,359.8208)"><path
             d="m 0,0 c -0.866,-9.988 -3.816,-19.671 -6.291,-29.349 -2.391,-9.347 -4.832,-18.671 -8.058,-27.773 -0.43,-1.215 1.501,-1.738 1.929,-0.531 3.447,9.727 5.997,19.71 8.55,29.7 C -1.51,-18.715 1.173,-9.533 2,0 2.111,1.282 0.111,1.275 0,0"
             style="fill:#292929;fill-opacity:1;fill-rule:nonzero;stroke:none"
             id="path5357"
             inkscape:connector-curvature="0" /></g><g
           id="g5359"
           transform="translate(221.4062,302.938)"><path
             d="m 0,0 c -3.188,-9.083 -8.046,-17.928 -12.515,-26.444 -4.317,-8.228 -9.09,-16.176 -14.651,-23.628 -0.77,-1.032 0.966,-2.03 1.727,-1.009 5.921,7.934 10.941,16.436 15.482,25.224 4.234,8.195 8.826,16.608 11.886,25.325 C 2.356,0.685 0.424,1.208 0,0"
             style="fill:#292929;fill-opacity:1;fill-rule:nonzero;stroke:none"
             id="path5361"
             inkscape:connector-curvature="0" /></g><g
           id="g5363"
           transform="translate(194.2407,252.8662)"><path
             d="m 0,0 c -3.036,-4.066 -7.066,-7.586 -10.78,-11.021 -4.145,-3.834 -7.979,-7.989 -12.165,-11.812 -0.953,-0.87 0.465,-2.281 1.414,-1.414 4.539,4.145 8.689,8.726 13.267,12.796 3.523,3.131 7.166,6.657 9.991,10.442 C 2.497,0.022 0.762,1.021 0,0"
             style="fill:#292929;fill-opacity:1;fill-rule:nonzero;stroke:none"
             id="path5365"
             inkscape:connector-curvature="0" /></g><g
           id="g5367"
           transform="translate(170.1851,227.4541)"><path
             d="m 0,0 c 9.674,-4.32 19.949,-8.924 28.089,-15.837 8.778,-7.455 13.099,-18.733 16.297,-29.508 0.365,-1.231 2.296,-0.707 1.928,0.532 -3.123,10.525 -7.332,21.777 -15.623,29.346 C 22.282,-7.791 11.297,-2.867 1.009,1.727 -0.156,2.247 -1.174,0.523 0,0"
             style="fill:#292929;fill-opacity:1;fill-rule:nonzero;stroke:none"
             id="path5369"
             inkscape:connector-curvature="0" /></g><g
           id="g5371"
           transform="translate(214.6875,181.8223)"><path
             d="m 0,0 c 2.183,-18.129 0.257,-38.445 -7.068,-55.31 -0.507,-1.169 1.215,-2.188 1.727,-1.009 C 2.123,-39.135 4.228,-18.497 2,0 1.848,1.262 -0.154,1.277 0,0"
             style="fill:#292929;fill-opacity:1;fill-rule:nonzero;stroke:none"
             id="path5373"
             inkscape:connector-curvature="0" /></g><g
           id="g5375"
           transform="translate(207.3857,126.1299)"><path
             d="m 0,0 c -3.909,-6.489 -7.882,-13.151 -13.514,-18.319 -5.685,-5.218 -12.808,-9.157 -19.757,-12.432 -15.093,-7.116 -31.91,-5.477 -47.203,0.122 -1.21,0.443 -1.732,-1.489 -0.531,-1.929 15.175,-5.555 32.064,-7.334 47.193,-0.633 7.412,3.283 14.97,7.466 21.052,12.871 6.078,5.402 10.331,12.412 14.487,19.311 C 2.393,0.096 0.664,1.102 0,0"
             style="fill:#292929;fill-opacity:1;fill-rule:nonzero;stroke:none"
             id="path5377"
             inkscape:connector-curvature="0" /></g><g
           id="g5379"
           transform="translate(85.7983,146.75)"><path
             d="m 0,0 c 5.304,-22.561 15.891,-46.674 40.384,-53.026 1.247,-0.325 1.778,1.604 0.531,1.927 C 17.114,-44.925 7.066,-21.321 1.929,0.531 1.634,1.783 -0.295,1.254 0,0"
             style="fill:#292929;fill-opacity:1;fill-rule:nonzero;stroke:none"
             id="path5381"
             inkscape:connector-curvature="0" /></g><g
           id="g5383"
           transform="translate(97.2158,201.6992)"><path
             d="m 0,0 c -4.758,-8.646 -9.235,-17.331 -11.265,-27.069 -1.895,-9.088 -1.839,-18.365 -0.165,-27.478 0.232,-1.266 2.16,-0.729 1.928,0.53 -3.558,19.374 1.963,36.169 11.229,53.008 C 2.348,0.119 0.621,1.129 0,0"
             style="fill:#292929;fill-opacity:1;fill-rule:nonzero;stroke:none"
             id="path5385"
             inkscape:connector-curvature="0" /></g><g
           id="g5387"
           transform="translate(98.6597,200.1748)"><path
             d="m 0,0 c 6.625,10.641 13.929,20.592 25.584,25.912 11.693,5.339 23.142,5.664 35.764,4.944 1.291,-0.074 1.274,1.906 0,2 -1.314,0.097 -2.629,0.195 -3.944,0.292 -1.284,0.095 -1.278,-1.906 0,-2 1.315,-0.097 2.63,-0.195 3.944,-0.292 l 0,2 C 48.286,33.602 36.625,33.142 24.574,27.64 12.618,22.181 5.067,11.921 -1.727,1.01 -2.409,-0.086 -0.68,-1.092 0,0"
             style="fill:#292929;fill-opacity:1;fill-rule:nonzero;stroke:none"
             id="path5389"
             inkscape:connector-curvature="0" /></g><g
           id="g5391"
           transform="translate(160,231.0605)"><path
             d="m 0,0 c 3.384,0.123 7.004,-1.766 10.037,-3.095 1.168,-0.511 2.187,1.211 1.01,1.727 C 7.637,0.126 3.803,2.139 0,2 -1.283,1.954 -1.289,-0.047 0,0"
             style="fill:#d0363a;fill-opacity:1;fill-rule:nonzero;stroke:none"
             id="path5393"
             inkscape:connector-curvature="0" /></g><g
           id="g5395"
           transform="translate(160.6768,231.2402)"><path
             d="m 0,0 c 0.728,-0.229 1.449,-0.476 2.164,-0.74 0.461,-0.172 1.008,0.153 1.18,0.579 0.194,0.483 0.01,0.956 -0.41,1.248 C 2.857,1.141 2.78,1.194 2.703,1.249 2.26,1.558 1.592,1.33 1.335,0.89 1.043,0.392 1.249,-0.169 1.694,-0.479 1.771,-0.532 1.848,-0.586 1.925,-0.641 2.182,-0.03 2.439,0.579 2.696,1.187 1.981,1.454 1.259,1.699 0.532,1.929 -0.699,2.314 -1.226,0.384 0,0"
             style="fill:#d0363a;fill-opacity:1;fill-rule:nonzero;stroke:none"
             id="path5397"
             inkscape:connector-curvature="0" /></g><g
           id="g5399"
           transform="translate(160.0562,230.7793)"><path
             d="m 0,0 c 3.475,-0.284 6.702,-1.349 9.689,-3.143 1.106,-0.665 2.112,1.064 1.009,1.726 C 7.406,0.562 3.825,1.687 0,2 -1.283,2.105 -1.276,0.104 0,0"
             style="fill:#292929;fill-opacity:1;fill-rule:nonzero;stroke:none"
             id="path5401"
             inkscape:connector-curvature="0" /></g><g
           id="g5403"
           transform="translate(159.4248,231.1328)"><path
             d="m 0,0 c 1.312,-0.912 2.866,-1.117 4.376,-1.543 1.907,-0.538 3.77,-1.22 5.63,-1.895 1.212,-0.44 1.734,1.492 0.532,1.928 C 8.91,-0.918 7.281,-0.321 5.62,0.177 4.088,0.636 2.338,0.804 1.009,1.727 -0.05,2.463 -1.051,0.729 0,0"
             style="fill:#292929;fill-opacity:1;fill-rule:nonzero;stroke:none"
             id="path5405"
             inkscape:connector-curvature="0" /></g><g
           id="g5407"
           transform="translate(160.8589,232.0742)"><path
             d="m 0,0 c 2.733,-0.43 4.986,-1.95 7.632,-2.542 2.366,-0.528 4.343,0.368 6.375,1.507 1.123,0.629 0.116,2.357 -1.01,1.726 C 9.952,-1.015 8.255,-0.777 5.098,0.593 3.611,1.238 2.138,1.677 0.532,1.93 -0.727,2.127 -1.27,0.2 0,0"
             style="fill:#292929;fill-opacity:1;fill-rule:nonzero;stroke:none"
             id="path5409"
             inkscape:connector-curvature="0" /></g><g
           id="g5411"
           transform="translate(159.1489,231.5361)"><path
             d="m 0,0 c 5.708,3.821 10.15,9.709 14.647,14.824 5.937,6.749 11.844,13.518 17.405,20.583 0.787,1.001 -0.619,2.426 -1.414,1.415 C 25.474,30.261 20.015,23.955 14.505,17.685 9.747,12.271 5.028,5.769 -1.009,1.728 -2.074,1.016 -1.074,-0.719 0,0"
             style="fill:#292929;fill-opacity:1;fill-rule:nonzero;stroke:none"
             id="path5413"
             inkscape:connector-curvature="0" /></g><g
           id="g5415"
           transform="translate(161.8252,235.0967)"><path
             d="m 0,0 c -0.488,-1.784 0.943,-2.995 2.37,-3.705 1.149,-0.572 2.163,1.152 1.009,1.726 -0.504,0.251 -1.653,0.707 -1.45,1.447 C 2.269,0.711 0.34,1.242 0,0"
             style="fill:#292929;fill-opacity:1;fill-rule:nonzero;stroke:none"
             id="path5417"
             inkscape:connector-curvature="0" /></g><g
           id="g5419"
           transform="translate(214.3569,322.3271)"><path
             d="m 0,0 c -2.564,-9.827 -6.174,-19.286 -10.466,-28.485 -3.885,-8.326 -7.775,-17.975 -13.774,-25.021 -0.829,-0.975 0.579,-2.397 1.415,-1.415 6.138,7.211 10.109,16.906 14.086,25.427 4.364,9.349 8.061,18.971 10.668,28.962 C 2.254,0.715 0.325,1.246 0,0"
             style="fill:#292929;fill-opacity:1;fill-rule:nonzero;stroke:none"
             id="path5421"
             inkscape:connector-curvature="0" /></g><g
           id="g5423"
           transform="translate(224.9712,373.877)"><path
             d="m 0,0 c -0.302,-9.501 -2.762,-17.865 -4.658,-27.03 -0.854,-4.13 -1.295,-8.349 -2.46,-12.413 -1.152,-4.021 -2.986,-7.668 -3.41,-11.873 -0.128,-1.279 1.872,-1.27 2,0 0.517,5.134 3.12,9.811 4.181,14.85 0.87,4.133 1.348,8.337 2.433,12.427 C 0.225,-15.973 1.733,-8.395 2,0 2.041,1.287 0.041,1.286 0,0"
             style="fill:#292929;fill-opacity:1;fill-rule:nonzero;stroke:none"
             id="path5425"
             inkscape:connector-curvature="0" /></g><g
           id="g5427"
           transform="translate(226.8691,373.626)"><path
             d="M 0,0 C 0.093,1.901 0.027,3.892 0.334,5.772 0.71,8.081 2.18,8.989 4.116,9.964 5.266,10.543 4.255,12.269 3.107,11.691 1.275,10.768 -0.518,9.71 -1.275,7.696 -2.153,5.359 -1.88,2.454 -2,0 -2.063,-1.287 -0.063,-1.283 0,0"
             style="fill:#292929;fill-opacity:1;fill-rule:nonzero;stroke:none"
             id="path5429"
             inkscape:connector-curvature="0" /></g><g
           id="g5431"
           transform="translate(230.9141,383.498)"><path
             d="m 0,0 c 2.211,1.265 5.388,1.226 7.177,-0.703 1.358,-1.463 2.374,-3.7 3.299,-5.461 1.08,-2.054 2.157,-7.165 4.369,-8.323 0.719,-0.376 1.425,0.105 1.505,0.863 0.002,0.025 0.005,0.049 0.008,0.074 0.061,0.579 -0.511,0.945 -1,1 -0.018,0.002 -0.036,0.004 -0.054,0.006 -1.277,0.143 -1.266,-1.858 0,-2 0.018,-0.002 0.036,-0.004 0.054,-0.006 -0.334,0.333 -0.667,0.666 -1,1 -0.003,-0.025 -0.006,-0.049 -0.008,-0.074 0.501,0.288 1.003,0.576 1.505,0.864 -0.915,0.479 -1.797,3.536 -2.118,4.298 -0.474,1.123 -0.968,2.227 -1.534,3.307 -1.054,2.016 -2.197,4.384 -3.737,6.078 C 6.162,3.458 1.76,3.311 -1.009,1.727 -2.127,1.088 -1.12,-0.641 0,0"
             style="fill:#292929;fill-opacity:1;fill-rule:nonzero;stroke:none"
             id="path5433"
             inkscape:connector-curvature="0" /></g></g></g></g></svg>