<?xml version="1.0" encoding="UTF-8" standalone="no"?>
<!-- Created with Inkscape (http://www.inkscape.org/) -->

<svg
   xmlns:dc="http://purl.org/dc/elements/1.1/"
   xmlns:cc="http://creativecommons.org/ns#"
   xmlns:rdf="http://www.w3.org/1999/02/22-rdf-syntax-ns#"
   xmlns:svg="http://www.w3.org/2000/svg"
   xmlns="http://www.w3.org/2000/svg"
   xmlns:sodipodi="http://sodipodi.sourceforge.net/DTD/sodipodi-0.dtd"
   xmlns:inkscape="http://www.inkscape.org/namespaces/inkscape"
   id="svg5435"
   version="1.1"
   inkscape:version="0.48.5 r10040"
   width="80"
   height="80"
   xml:space="preserve"
   sodipodi:docname="Rdeca_JABOLKO.svg"><metadata
     id="metadata5441"><rdf:RDF><cc:Work
         rdf:about=""><dc:format>image/svg+xml</dc:format><dc:type
           rdf:resource="http://purl.org/dc/dcmitype/StillImage" /><dc:title /></cc:Work></rdf:RDF></metadata><defs
     id="defs5439"><clipPath
       clipPathUnits="userSpaceOnUse"
       id="clipPath5449"><path
         d="m 103.068,92.487 307.438,0 0,325.716 -307.438,0 0,-325.716 z"
         id="path5451"
         inkscape:connector-curvature="0" /></clipPath><clipPath
       clipPathUnits="userSpaceOnUse"
       id="clipPath5537"><path
         d="M 0,0 500,0 500,500 0,500 0,0 z"
         id="path5539"
         inkscape:connector-curvature="0" /></clipPath><filter
       inkscape:menu-tooltip="Make the lightest parts of the object progressively transparent"
       inkscape:menu="Transparency utilities"
       inkscape:label="Light eraser"
       height="1"
       width="1"
       y="0"
       x="0"
       color-interpolation-filters="sRGB"
       id="filter3074"><feColorMatrix
         result="result14"
         type="luminanceToAlpha"
         in="SourceGraphic"
         id="feColorMatrix3076" /><feComposite
         in="SourceGraphic"
         in2="result14"
         result="fbSourceGraphic"
         operator="out"
         id="feComposite3078" /><feBlend
         mode="normal"
         in2="fbSourceGraphic"
         result="result15"
         id="feBlend3080" /></filter><filter
       inkscape:menu-tooltip="Make the lightest parts of the object progressively transparent"
       inkscape:menu="Transparency utilities"
       inkscape:label="Light eraser"
       height="1"
       width="1"
       y="0"
       x="0"
       color-interpolation-filters="sRGB"
       id="filter3082"><feColorMatrix
         result="result14"
         type="luminanceToAlpha"
         in="SourceGraphic"
         id="feColorMatrix3084" /><feComposite
         in="SourceGraphic"
         in2="result14"
         result="fbSourceGraphic"
         operator="out"
         id="feComposite3086" /><feBlend
         mode="normal"
         in2="fbSourceGraphic"
         result="result15"
         id="feBlend3088" /></filter></defs><sodipodi:namedview
     pagecolor="#7affff"
     bordercolor="#666666"
     borderopacity="1"
     objecttolerance="10"
     gridtolerance="10"
     guidetolerance="10"
     inkscape:pageopacity="0.62352941"
     inkscape:pageshadow="2"
     inkscape:window-width="967"
     inkscape:window-height="604"
     id="namedview5437"
     showgrid="false"
     inkscape:zoom="1.0680141"
     inkscape:cx="247.24288"
     inkscape:cy="33.318748"
     inkscape:window-x="0"
     inkscape:window-y="0"
     inkscape:window-maximized="0"
     inkscape:current-layer="g5443"
     fit-margin-top="10"
     fit-margin-left="10"
     fit-margin-right="10"
     fit-margin-bottom="10" /><g
     id="g5443"
     inkscape:groupmode="layer"
     inkscape:label="Rdeca_JABOLKO"
     transform="matrix(1.25,0,0,-1.25,-280.98375,359.18125)"><g
       id="g5445"
       transform="matrix(0.15612904,0,0,0.14736765,216.69509,217.71541)"
       style="filter:url(#filter3082)"><g
         id="g5447"
         clip-path="url(#clipPath5449)"><g
           id="g5453"
           transform="translate(103.1841,220.5898)"><path
             d="m 0,0 c 0,64.162 0.04,128.324 -0.099,192.485 -0.009,3.907 0.425,5.136 4.849,5.129 99.288,-0.172 198.578,-0.156 297.865,-0.038 3.779,0.005 4.682,-0.818 4.678,-4.651 -0.123,-105.38 -0.135,-210.76 0.029,-316.139 0.008,-4.356 -1.112,-4.904 -5.091,-4.89 -46.293,0.166 -92.588,0.106 -138.882,0.106 -0.939,1.749 0.776,3.083 0.708,4.696 0.212,2.587 -1.164,4.573 -2.378,6.662 -0.739,1.272 -2.138,2.743 0.075,4.05 4.964,0.47 9.219,-2.241 13.898,-3.095 4.906,-0.894 9.761,-2.062 14.751,-2.446 7.602,-1.068 15.216,0.024 22.676,0.825 7.901,0.848 15.854,2.379 23.526,4.786 0.594,0.199 1.211,0.332 1.828,0.433 4.093,0.518 8.176,1.096 11.828,3.245 2.491,1.472 4.998,2.918 7.727,3.922 1.946,0.59 3.731,1.5 5.363,2.719 5.062,2.948 9.975,6.052 14.532,9.796 7.796,6.405 10.732,15.36 13.864,24.365 4.435,12.761 9.47,25.349 9.149,39.21 0.769,3.45 0.95,6.984 1.498,10.466 1.702,9.102 1.012,18.225 -0.621,27.173 -2.831,15.514 -5.437,31.165 -13.597,45.105 -4.2,7.175 -9.997,12.627 -17.261,16.673 -13.61,7.579 -26.695,16.155 -42.363,19.347 -19.771,4.029 -39.329,4.68 -58.708,-1.986 -3.857,-1.327 -7.508,-3.016 -10.996,-5.11 -2.249,-1.35 -4.487,-2.909 -7.351,-1.783 -3.559,6.038 -0.882,12.358 -0.001,18.219 3.578,23.842 16.671,42.124 34.982,57.227 19.132,15.78 40.829,26.246 64.666,32.599 1.838,0.49 4.724,0.817 3.928,3.535 -0.766,2.62 -3.473,1.559 -5.275,1.001 -19.217,-5.945 -38.059,-12.508 -54.5,-24.833 -11.913,-8.93 -23.058,-18.276 -32.378,-30.096 -9.302,-11.798 -13.675,-25.139 -16.219,-39.427 -1.1,-6.184 -1.467,-12.475 -1.497,-18.772 -0.248,-1.253 -0.691,-2.382 -1.947,-2.972 -4.862,-0.058 -7.608,4.332 -11.834,5.62 -2.053,1.149 -4.266,1.892 -6.517,2.542 -6.353,2.196 -13.054,2.953 -19.504,4.741 -0.581,0.21 -1.123,0.495 -1.64,0.826 -0.333,0.23 -0.687,0.58 -1.053,0.568 C 87.237,91.357 71.558,92.752 57.684,83.073 46.029,74.943 34.183,67.173 24.262,56.852 19.827,52.239 16.461,47.04 14.319,41.027 9.906,27.765 5.858,14.408 3.295,0.64 2.977,0.023 2.484,-0.378 1.82,-0.572 1.128,-0.651 0.522,-0.459 0,0"
             style="fill:#ffffff;fill-opacity:1;fill-rule:nonzero;stroke:none"
             id="path5455"
             inkscape:connector-curvature="0" /></g><g
           id="g5457"
           transform="translate(268.8164,96.6016)"><path
             d="m 0,0 c -0.762,-1.337 -1.522,-2.673 -2.282,-4.01 -52.903,0 -105.805,0.037 -158.707,-0.082 -3.6,-0.008 -4.788,0.555 -4.76,4.562 0.215,29.794 0.117,59.591 0.117,89.385 3.073,-0.09 2.509,-2.611 2.711,-4.372 0.272,-2.393 0.344,-4.774 2.064,-6.691 3.48,-5.578 4.05,-12.338 7.32,-18.005 17.661,-32.68 45.517,-51.074 81.681,-56.633 15.729,-2.417 31.569,-0.447 46.533,5.868 1.846,0.78 3.641,1.896 5.79,1.124 0.472,-0.38 0.845,-0.865 0.929,-1.466 0.395,-2.831 -1.766,-6.579 3.279,-7.634 2.953,-0.617 5.282,-3.429 8.935,-1.766 C -4.537,1.123 -2.089,1.093 0,0"
             style="fill:#ffffff;fill-opacity:1;fill-rule:nonzero;stroke:none"
             id="path5459"
             inkscape:connector-curvature="0" /></g><g
           id="g5461"
           transform="translate(106.7656,174.248)"><path
             d="m 0,0 c -4.213,3.184 -0.764,8.616 -3.581,12.209 l 0,34.133 c 0.473,-0.024 0.947,-0.048 1.421,-0.071 0.973,-1.12 1.413,-2.467 1.375,-3.903 C -1.046,32.488 0.173,22.675 0.534,12.827 0.574,9.803 0.243,6.756 1.05,3.771 1.252,2.36 1.095,1.048 0,0"
             style="fill:#fffaf9;fill-opacity:1;fill-rule:nonzero;stroke:none"
             id="path5463"
             inkscape:connector-curvature="0" /></g><g
           id="g5465"
           transform="translate(250.4473,107.875)"><path
             d="m 0,0 c -14.195,-6.585 -28.977,-9.563 -44.756,-9.298 -25.184,0.423 -46.346,10.216 -65.468,25.647 -11.167,9.01 -20.739,19.293 -26.09,32.917 -0.994,2.207 -1.491,4.594 -2.423,6.818 -2.399,5.723 -2.752,10.627 0.5,16.892 5.618,10.824 12.997,20.314 19.42,30.502 5.306,8.418 10.939,16.678 17.127,24.289 7.637,9.391 16.058,18.176 27.606,23.807 7.932,3.867 15.673,8.316 23.772,11.962 5.827,2.624 12.358,3.326 17.515,7.893 5.113,4.528 9.615,8.895 11.233,15.994 0.819,3.592 0.565,8.924 6.397,9.596 3.885,-1.489 7.242,-3.868 10.57,-6.292 1.345,-0.739 2.81,-0.811 4.294,-0.752 2.614,0.341 2.538,3.38 4.444,4.411 1.282,-0.414 2.341,0.081 3.428,0.725 26.555,15.729 54.545,14.982 82.896,6.55 15.081,-4.486 28.377,-12.951 41.203,-21.839 9.18,-6.362 14.18,-16.168 17.178,-26.612 4.973,-17.325 10.045,-34.727 8.562,-53.128 -0.161,-1.993 0.167,-4.08 -1.024,-5.897 -1.847,1.496 -1.445,3.64 -1.617,5.619 -0.157,1.791 0.289,3.635 -0.677,5.94 C 148.835,95.437 142.249,86.357 140.326,74.815 139.198,68.04 134.447,62.354 130.854,56.599 123.088,44.152 116.26,30.778 103.709,22.028 98.876,18.66 93.636,15.979 88.505,13.109 87.171,12.451 85.804,11.868 84.41,11.357 73.26,9.195 62.252,6.425 51.276,3.504 43.533,1.443 43.516,1.507 42.905,-6.813 32.806,-6.891 23.519,-2.976 13.857,-0.901 11.816,0.072 11.583,2.266 10.582,3.941 8.039,8.2 5.729,8.25 3.237,4.05 2.34,2.539 2.039,0.587 0,0"
             style="fill:#ed393a;fill-opacity:1;fill-rule:nonzero;stroke:none"
             id="path5467"
             inkscape:connector-curvature="0" /></g><g
           id="g5469"
           transform="translate(105.4902,186.4512)"><path
             d="m 0,0 c -0.295,11.356 -0.59,22.711 -0.884,34.067 0.281,0.145 0.566,0.281 0.856,0.409 2.387,-1.898 1.339,-4.903 2.603,-7.94 3.265,8.437 5.153,16.767 9.495,24.305 7.749,13.451 17.082,25.395 28.16,36.271 9.99,9.807 20.271,19.259 31.986,26.788 8.052,5.176 16.989,9.148 26.442,11.511 1.431,0.357 2.813,0.018 4.056,-0.808 -1.69,-6.472 -0.007,-13.039 -0.553,-19.531 -0.301,-3.591 -1.784,-6.655 -5.716,-7.733 C 95.067,96.962 93.507,96.6 92.749,95.399 86.738,85.872 75.869,83.641 67.27,77.985 57.991,71.881 47.685,66.781 41.236,57.058 34.486,52.036 29.997,45.127 25.439,38.249 22.993,34.557 21.06,30.465 17.514,27.578 16.024,26.366 15.419,24.707 15.006,22.865 13.189,14.784 7.702,8.558 4.005,1.424 3.551,0.548 2.57,0.016 1.625,-0.402 1.016,-0.542 0.47,-0.42 0,0"
             style="fill:#ef403d;fill-opacity:1;fill-rule:nonzero;stroke:none"
             id="path5471"
             inkscape:connector-curvature="0" /></g><g
           id="g5473"
           transform="translate(254.5879,302.2612)"><path
             d="m 0,0 c -0.155,-3.336 -0.402,-6.596 -5.118,-6.114 -2.335,0.867 -1.367,3.367 -2.41,4.872 -0.633,18.048 3.428,35.143 11.804,50.969 4.737,8.95 11.859,16.626 19.212,23.413 21.815,20.138 47.407,33.752 76.374,40.756 2.688,0.65 5.658,0.94 6.572,-2.398 0.951,-3.476 -1.897,-4.536 -4.572,-5.134 C 88.501,103.377 75.874,98.214 63.8,92.056 48.225,84.113 34.686,73.34 22.512,60.572 6.164,43.428 0.815,22.671 0,0"
             style="fill:#b6383a;fill-opacity:1;fill-rule:nonzero;stroke:none"
             id="path5475"
             inkscape:connector-curvature="0" /></g><g
           id="g5477"
           transform="translate(208.02,310.7993)"><path
             d="m 0,0 c -6.013,-0.751 -11.95,-1.701 -16.654,-6.062 -0.437,-0.405 -0.959,-0.847 -1.511,-0.98 -15.343,-3.714 -25.398,-15.202 -36.392,-25.124 -8.844,-7.981 -17.652,-16.133 -24.496,-26.029 -8.079,-11.68 -15.381,-23.753 -18.647,-37.846 -0.404,-1.743 -0.359,-4.888 -2.833,-4.755 -3.41,0.183 -0.895,3.222 -1.388,4.903 -0.559,1.905 -0.454,4.005 -0.637,6.02 -0.967,5.447 1.054,10.437 2.815,15.306 3.082,8.514 3.268,17.914 8.047,25.878 2.128,3.343 5.1,5.578 8.95,6.482 2.747,0.646 4.487,1.867 3.862,5.021 -0.078,0.396 -0.108,0.815 -0.052,1.214 0.662,4.753 17.644,19.33 22.406,19.241 2.34,-0.044 3.381,-1.105 2.864,-3.72 0.915,2.991 2.473,4.3 5.883,4.604 5.974,0.532 10.529,4.981 15.636,7.745 6.561,3.55 12.888,7.372 20.056,9.698 3.952,1.283 7.75,2.046 11.791,0.844 L 0.175,2.206 0.174,1.676 C 0.647,1.062 0.589,0.504 0,0"
             style="fill:#e93f3d;fill-opacity:1;fill-rule:nonzero;stroke:none"
             id="path5479"
             inkscape:connector-curvature="0" /></g><g
           id="g5481"
           transform="translate(334.7988,120.6289)"><path
             d="m 0,0 c 1.22,0.407 2.438,0.814 3.656,1.221 14,5.705 27.132,12.734 37.906,23.68 2.763,2.808 6.639,4.406 8.773,8.069 1.016,1.74 3.024,3.021 5.16,2.433 2.071,-0.569 1.896,-2.857 2.328,-4.567 0.247,-0.975 0.501,-1.955 0.531,-2.975 C 56.635,22.897 53.793,18.574 51.185,14.043 46.215,5.412 36.693,2.951 30.241,-3.455 c -1.015,-1.027 -2.257,-1.76 -3.419,-2.597 -2.31,-1.279 -4.621,-2.557 -6.93,-3.836 -4.105,-1.508 -9.002,-0.209 -12.582,-3.565 l -0.356,-0.278 -0.409,0.189 c -5.789,-0.575 -11.534,-1.843 -17.071,-3.277 -8.697,-2.254 -17.636,-0.916 -26.235,-3.015 -1.045,-0.254 -2.024,-0.237 -2.565,0.878 -0.502,1.033 -0.083,1.951 0.536,2.793 0.868,1.179 2.072,1.979 3.407,2.428 9.935,3.339 19.051,8.902 29.465,10.893 C -3.629,-2.405 -1.781,-1.343 0,0"
             style="fill:#e4383a;fill-opacity:1;fill-rule:nonzero;stroke:none"
             id="path5483"
             inkscape:connector-curvature="0" /></g><g
           id="g5485"
           transform="translate(392.0937,148.667)"><path
             d="M 0,0 C -1.244,1.917 -1.264,4.174 -1.355,6.275 -3.563,6.602 -5.033,5.692 -5.859,4.367 -11.692,-4.985 -21.26,-10.496 -29.687,-16.56 c -6.738,-4.846 -14.63,-10.033 -23.952,-10.257 7.748,5.719 17.439,8.908 23.426,16.856 6.38,8.471 12.601,17.13 18.041,26.215 5.437,9.079 9.9,18.619 12.724,29.084 1.945,7.211 6.827,13.631 10.386,20.407 0.484,0.92 1.057,1.956 2.199,1.649 1.038,-0.28 1.412,-1.397 1.433,-2.456 0.078,-3.849 0.115,-7.697 0.166,-11.545 C 14.322,49.823 13.908,46.255 13.494,42.687 12.265,29.511 6.766,17.458 3.454,4.83 2.966,2.97 3.231,0.097 0,0"
             style="fill:#e5383a;fill-opacity:1;fill-rule:nonzero;stroke:none"
             id="path5487"
             inkscape:connector-curvature="0" /></g><g
           id="g5489"
           transform="translate(235.2798,304.894)"><path
             d="m 0,0 c -3.917,-2.327 -4.565,-6.7 -5.089,-10.33 -1.061,-7.355 -5.838,-11.587 -10.891,-15.912 -9.197,-7.874 -22.048,-7.983 -31.644,-14.737 -7.145,-5.028 -15.277,-8.013 -22.254,-13.783 -14.248,-11.783 -24.039,-26.645 -33.444,-41.928 -2.821,-4.583 -7.463,-7.304 -9.902,-12.006 -3.793,-7.31 -6.466,-15.234 -11.81,-21.695 -1.364,-1.651 -0.05,-3.09 0.303,-4.566 1.031,-4.309 3.443,-8.233 3.584,-12.797 -3.822,5.114 -4.022,11.789 -7.367,17.108 -0.047,1.171 -0.094,2.341 -0.141,3.512 0.077,0.274 0.153,0.548 0.227,0.823 8.826,19.489 19.714,37.751 32.423,54.961 3.92,5.308 8.955,9.575 12.972,14.758 3.49,4.667 8.651,7.293 13.65,9.488 6.328,2.779 11.783,6.919 17.946,9.932 8.619,4.214 17.027,8.806 25.009,14.401 6.794,4.762 9.23,10.873 10.56,17.999 1.439,7.705 1.895,8.319 9.75,7.159 C -3.765,2.395 -1.663,1.759 0,0"
             style="fill:#ee3c3b;fill-opacity:1;fill-rule:nonzero;stroke:none"
             id="path5491"
             inkscape:connector-curvature="0" /></g><g
           id="g5493"
           transform="translate(229.1621,307.2812)"><path
             d="m 0,0 c -5.231,0.439 -8.03,-1.194 -8.321,-7.202 -0.449,-9.262 -5.524,-15.623 -13.211,-21.148 -10.812,-7.771 -23.553,-11.689 -34.54,-19.165 -5.4,-3.675 -11.629,-6.93 -17.778,-9.797 -1.26,-0.587 -2.036,-1.195 -2.147,-2.561 -2.346,-1.405 -4.09,-4.011 -7.315,-3.657 1.477,4.637 3.954,8.51 8.988,9.65 4.082,0.924 5.591,4.851 8.595,7.044 5.704,4.164 11.999,7.354 18.083,10.311 6.593,3.204 11.968,6.846 15.889,12.871 0.309,0.476 0.928,1.048 1.419,1.064 9.082,0.298 7.924,7.613 7.428,12.67 -0.478,4.883 -0.983,9.213 1.768,13.438 0.058,0.558 0.116,1.117 0.174,1.676 C -13.923,3.686 -6.652,3.095 0,0"
             style="fill:#ef3f3c;fill-opacity:1;fill-rule:nonzero;stroke:none"
             id="path5495"
             inkscape:connector-curvature="0" /></g><g
           id="g5497"
           transform="translate(207.7192,313.2397)"><path
             d="m 0,0 c -7.603,0.33 -13.88,-3.226 -20.514,-6.323 -8.298,-3.873 -15.921,-8.821 -23.913,-13.16 -1.159,-0.629 -2.504,-1.293 -4.046,-0.633 -1.71,0.733 -3.286,1.1 -2.619,-1.857 0.346,-1.536 -0.348,-2.949 -2.004,-3.173 -0.858,-0.117 -2.106,0.35 -2.697,0.994 -1.66,1.811 2.645,1.759 1.206,3.806 -2.732,0.293 -4.598,-1.403 -6.84,-2.766 -5.043,-3.067 -8.854,-7.484 -13.313,-11.171 -1.985,-1.641 -3.993,-3.321 -1.876,-6.617 1.737,-2.703 -1.363,-4.64 -2.923,-4.645 -5.003,-0.019 -7.654,-4.342 -11.857,-5.584 2.045,7.692 6.726,13.663 12.389,18.996 11.545,10.873 24.603,19.684 38.043,27.984 3.024,1.867 6.427,2.648 9.802,2.965 C -20.806,-0.211 -10.477,2.084 0,0"
             style="fill:#e7403d;fill-opacity:1;fill-rule:nonzero;stroke:none"
             id="path5499"
             inkscape:connector-curvature="0" /></g><g
           id="g5501"
           transform="translate(250.4473,107.875)"><path
             d="m 0,0 c 2.233,3.19 1.153,9.646 7.251,8.94 5.172,-0.599 5.15,-6.017 6.606,-9.841 2.163,-3.171 5.769,-5.714 4.512,-10.372 C 11.77,-14.73 5.078,-12.826 -0.649,-9.928 -5.428,-7.511 -1.336,-3.317 0,0"
             style="fill:#b7393a;fill-opacity:1;fill-rule:nonzero;stroke:none"
             id="path5503"
             inkscape:connector-curvature="0" /></g><g
           id="g5505"
           transform="translate(334.7988,120.6289)"><path
             d="m 0,0 c -1.352,-2.427 -3.312,-3.69 -6.13,-4.336 -10.215,-2.338 -19.306,-7.771 -29.223,-10.989 -1.397,-0.453 -3.225,-0.969 -3.054,-3.279 12.781,0.079 25.354,1.704 37.773,4.44 2.426,0.534 4.753,0.768 7.178,0.622 -15.689,-4.457 -31.517,-7.814 -47.99,-6.025 -3.285,7.904 -2.691,9.111 5.015,11.07 C -24.343,-5.424 -12.337,-2.003 0,0"
             style="fill:#e7383a;fill-opacity:1;fill-rule:nonzero;stroke:none"
             id="path5507"
             inkscape:connector-curvature="0" /></g><g
           id="g5509"
           transform="translate(392.0937,148.667)"><path
             d="M 0,0 C 1.877,1.535 1.937,3.761 2.548,5.899 6.053,18.202 9.817,30.433 13.494,42.687 15.03,34.747 12.333,27.288 9.87,20.157 5.23,6.729 3.081,-7.89 -7.105,-18.952 c -5.13,-5.571 -11.471,-9.408 -18.082,-12.885 -0.975,-0.423 -1.941,-0.646 -2.855,0.145 2.173,4.506 6.757,6.69 10.429,9.277 2.925,2.061 5.272,3.496 7.651,6.644 3.063,4.053 5.86,8.25 8.525,12.56 C -0.826,-2.222 -0.473,-1.073 0,0"
             style="fill:#e73b3b;fill-opacity:1;fill-rule:nonzero;stroke:none"
             id="path5511"
             inkscape:connector-curvature="0" /></g><g
           id="g5513"
           transform="translate(342.1084,107.1758)"><path
             d="M 0,0 C 2.731,6.344 8.17,3.145 12.581,3.565 8.728,1.175 4.388,0.505 0,0"
             style="fill:#e63c3b;fill-opacity:1;fill-rule:nonzero;stroke:none"
             id="path5515"
             inkscape:connector-curvature="0" /></g><g
           id="g5517"
           transform="translate(247.0605,301.0195)"><path
             d="M 0,0 C 0.803,-1.624 1.606,-3.248 2.409,-4.872 0.74,-4.736 -0.657,-4.198 -1.21,-2.418 -0.806,-1.612 -0.403,-0.806 0,0"
             style="fill:#d46451;fill-opacity:1;fill-rule:nonzero;stroke:none"
             id="path5519"
             inkscape:connector-curvature="0" /></g><g
           id="g5521"
           transform="translate(364.0518,116.9746)"><path
             d="M 0,0 C 0.951,-0.048 1.903,-0.096 2.855,-0.144 1.25,-1.262 -0.184,-2.786 -2.432,-2.397 -1.62,-1.599 -0.811,-0.799 0,0"
             style="fill:#e63c3b;fill-opacity:1;fill-rule:nonzero;stroke:none"
             id="path5523"
             inkscape:connector-curvature="0" /></g><g
           id="g5525"
           transform="translate(105.4902,186.4512)"><path
             d="M 0,0 C 0.45,0.001 0.899,0.002 1.349,0.004 3.645,-2.718 2.742,-5.521 1.562,-8.332 L 1.135,-8.691 C -0.017,-5.895 -0.252,-2.979 0,0"
             style="fill:#ef463f;fill-opacity:1;fill-rule:nonzero;stroke:none"
             id="path5527"
             inkscape:connector-curvature="0" /></g><g
           id="g5529"
           transform="translate(107.0522,178.1191)"><path
             d="m 0,0 c -0.071,2.778 -0.142,5.557 -0.213,8.336 4.291,8.281 11.22,15.257 12.322,25.119 0.396,3.54 4.537,3.794 5.951,6.546 3.867,7.527 9.343,13.971 14.124,20.886 1.757,2.542 4.507,3.051 6.614,4.745 2.747,0.6 3.977,4.237 7.314,3.657 0.742,-0.522 1.246,-1.391 0.405,-1.92 C 34.305,59.668 28.406,46.855 20.711,35.521 17.024,30.091 12.923,24.924 10.217,18.836 7.844,13.499 6.193,7.832 2.942,2.879 2.141,1.658 1.377,0.559 0,0"
             style="fill:#ef3f3c;fill-opacity:1;fill-rule:nonzero;stroke:none"
             id="path5531"
             inkscape:connector-curvature="0" /></g></g></g><g
       id="g5533"
       transform="matrix(0.15612904,0,0,0.14736765,216.69509,217.71541)"
       style="filter:url(#filter3074)"><g
         id="g5535"
         clip-path="url(#clipPath5537)"><g
           id="g5541"
           transform="translate(292.2295,388.3325)"><path
             d="m 0,0 c -6.703,-5.169 -13.955,-10.052 -19.884,-16.126 -5.782,-5.924 -10.433,-12.942 -14.959,-19.837 -9.439,-14.38 -12.198,-33.833 -11.69,-50.748 0.038,-1.284 2.038,-1.289 2,0 -0.498,16.578 2.162,35.639 11.417,49.738 4.283,6.527 8.676,13.139 14.062,18.816 5.938,6.259 13.254,11.179 20.063,16.43 C 2.015,-0.952 1.021,0.786 0,0"
             style="fill:#292929;fill-opacity:1;fill-rule:nonzero;stroke:none"
             id="path5543"
             inkscape:connector-curvature="0" /></g><g
           id="g5545"
           transform="translate(245.8677,301.4961)"><path
             d="m 0,0 c 0.071,-2.926 1.789,-6.99 5.49,-5.622 3.209,1.186 3.616,6.035 3.647,8.878 0.014,1.287 -1.986,1.288 -2,0 C 7.116,1.312 6.965,-1.103 5.849,-2.781 5.152,-3.83 3.899,-4.252 2.918,-3.249 2.1,-2.413 2.027,-1.094 2,0 1.969,1.285 -0.031,1.29 0,0"
             style="fill:#292929;fill-opacity:1;fill-rule:nonzero;stroke:none"
             id="path5547"
             inkscape:connector-curvature="0" /></g><g
           id="g5549"
           transform="translate(255.0762,303.7583)"><path
             d="m 0,0 c -0.197,9.496 2.301,18.556 4.879,27.609 2.44,8.572 5.248,16.856 11.104,23.761 10.275,12.111 22.35,24.166 36.109,32.215 1.11,0.65 0.104,2.379 -1.009,1.727 C 43.616,80.944 36.952,75.516 30.714,69.545 24.533,63.633 18.024,57.454 12.821,50.649 7.744,44.008 5.211,36.081 2.949,28.141 0.321,18.912 -2.201,9.672 -2,0 -1.974,-1.285 0.026,-1.29 0,0"
             style="fill:#292929;fill-opacity:1;fill-rule:nonzero;stroke:none"
             id="path5551"
             inkscape:connector-curvature="0" /></g><g
           id="g5553"
           transform="translate(305.8252,386.4927)"><path
             d="m 0,0 c 10.811,6.254 21.872,12.174 33.601,16.537 5.273,1.961 10.628,3.364 16.05,4.812 2.985,0.797 5.745,1.856 6.569,5.119 0.316,1.248 -1.614,1.78 -1.928,0.531 C 53.918,25.52 51.113,23.934 49.744,23.423 48.808,23.074 47.719,22.956 46.751,22.716 44.141,22.07 41.555,21.333 38.994,20.514 34.644,19.123 30.37,17.498 26.171,15.702 16.79,11.69 7.814,6.832 -1.01,1.727 -2.123,1.083 -1.117,-0.646 0,0"
             style="fill:#292929;fill-opacity:1;fill-rule:nonzero;stroke:none"
             id="path5555"
             inkscape:connector-curvature="0" /></g><g
           id="g5557"
           transform="translate(293.0273,386.4731)"><path
             d="m 0,0 c 9.159,7.035 19.215,12.83 29.495,18.061 3.294,1.676 36.361,14.987 37.314,8.969 0.2,-1.268 2.129,-0.729 1.928,0.532 -0.736,4.648 -6.297,3.174 -9.62,2.467 C 51.723,28.455 44.21,26.503 37.162,23.746 23.687,18.476 10.443,10.523 -1.009,1.727 -2.016,0.954 -1.021,-0.784 0,0"
             style="fill:#292929;fill-opacity:1;fill-rule:nonzero;stroke:none"
             id="path5559"
             inkscape:connector-curvature="0" /></g><g
           id="g5561"
           transform="translate(254.584,301.2305)"><path
             d="m 0,0 c 4.792,0.507 8.781,3.436 13.089,5.395 6.037,2.746 12.363,4.843 18.837,6.278 12.909,2.863 25.794,0.827 38.748,-0.757 1.274,-0.156 1.264,1.845 0,2 C 58.824,14.365 46.696,16.437 34.83,14.295 29.087,13.258 23.427,11.668 17.976,9.589 12.258,7.409 6.019,2.636 0,2 -1.268,1.866 -1.281,-0.135 0,0"
             style="fill:#292929;fill-opacity:1;fill-rule:nonzero;stroke:none"
             id="path5563"
             inkscape:connector-curvature="0" /></g><g
           id="g5565"
           transform="translate(324.6709,312.2559)"><path
             d="m 0,0 c 8.121,-0.388 16.409,-3.798 23.858,-6.871 7.866,-3.243 15.452,-7.176 22.648,-11.711 6.974,-4.395 15.65,-9.416 20.098,-16.543 4.54,-7.273 7.168,-15.898 8.765,-24.261 0.241,-1.263 2.169,-0.728 1.928,0.532 -1.662,8.707 -4.455,17.893 -9.374,25.367 -4.364,6.63 -12.409,11.474 -18.959,15.707 -7.292,4.713 -14.995,8.784 -22.988,12.174 C 17.861,-2.165 8.905,1.575 0,2 -1.287,2.061 -1.283,0.061 0,0"
             style="fill:#292929;fill-opacity:1;fill-rule:nonzero;stroke:none"
             id="path5567"
             inkscape:connector-curvature="0" /></g><g
           id="g5569"
           transform="translate(399.7637,254.3296)"><path
             d="m 0,0 c 2.51,-10.327 6.466,-21.262 6.893,-31.925 0.446,-11.134 -1.037,-22.582 -2.202,-33.64 -0.133,-1.279 1.868,-1.268 2,0 1.222,11.587 3.033,23.857 2.094,35.512 C 7.958,-19.788 4.354,-9.447 1.929,0.532 1.625,1.782 -0.305,1.252 0,0"
             style="fill:#292929;fill-opacity:1;fill-rule:nonzero;stroke:none"
             id="path5571"
             inkscape:connector-curvature="0" /></g><g
           id="g5573"
           transform="translate(404.5508,189.5889)"><path
             d="m 0,0 c -1.565,-11.48 -4.994,-22.525 -8.496,-33.536 -3.278,-10.309 -6.935,-20.634 -14.558,-28.594 -0.89,-0.93 0.521,-2.347 1.414,-1.414 7.106,7.42 10.945,16.842 14.105,26.466 3.926,11.952 7.76,24.048 9.465,36.546 C 2.101,0.727 0.173,1.271 0,0"
             style="fill:#292929;fill-opacity:1;fill-rule:nonzero;stroke:none"
             id="path5575"
             inkscape:connector-curvature="0" /></g><g
           id="g5577"
           transform="translate(381.0156,126.9824)"><path
             d="m 0,0 c -1.558,-1.442 -3.126,-3.33 -5.292,-3.781 -1.261,-0.262 -0.728,-2.191 0.53,-1.928 2.529,0.524 4.361,2.612 6.176,4.295 C 2.36,-0.538 0.943,0.874 0,0"
             style="fill:#292929;fill-opacity:1;fill-rule:nonzero;stroke:none"
             id="path5579"
             inkscape:connector-curvature="0" /></g><g
           id="g5581"
           transform="translate(376.875,123.5527)"><path
             d="m 0,0 c -7.323,-3.637 -14.454,-7.323 -21.959,-10.652 -7.637,-3.387 -15.435,-5.603 -23.542,-7.547 -1.252,-0.3 -0.722,-2.23 0.531,-1.929 16.52,3.962 30.868,10.898 45.979,18.4 C 2.162,-1.154 1.15,0.57 0,0"
             style="fill:#292929;fill-opacity:1;fill-rule:nonzero;stroke:none"
             id="path5583"
             inkscape:connector-curvature="0" /></g><g
           id="g5585"
           transform="translate(264.1465,106.1084)"><path
             d="m 0,0 c 21.825,-7.021 44.977,-8.006 67.326,-2.911 1.255,0.286 0.724,2.216 -0.531,1.93 C 44.778,-6.002 22.026,-4.985 0.532,1.93 -0.696,2.324 -1.222,0.394 0,0"
             style="fill:#292929;fill-opacity:1;fill-rule:nonzero;stroke:none"
             id="path5587"
             inkscape:connector-curvature="0" /></g><g
           id="g5589"
           transform="translate(256.4258,115.6279)"><path
             d="m 0,0 c 5.518,0.313 4.256,-4.98 6.006,-8.191 2.055,-3.767 5.354,-5.656 5.023,-10.532 -0.087,-1.285 1.913,-1.28 2,0 0.41,6.04 -4.632,9.021 -6.05,14.33 C 5.889,-0.31 4.621,2.262 0,2 -1.28,1.927 -1.288,-0.073 0,0"
             style="fill:#292929;fill-opacity:1;fill-rule:nonzero;stroke:none"
             id="path5591"
             inkscape:connector-curvature="0" /></g><g
           id="g5593"
           transform="translate(256.833,115.917)"><path
             d="M 0,0 C 1.287,0 1.289,2 0,2 -1.287,2 -1.289,0 0,0"
             style="fill:#dd3539;fill-opacity:1;fill-rule:nonzero;stroke:none"
             id="path5595"
             inkscape:connector-curvature="0" /></g><g
           id="g5597"
           transform="translate(257.168,117.6992)"><path
             d="m 0,0 c -0.907,0.231 -1.419,0.495 -2.116,-0.166 -0.696,-0.66 -0.091,-1.606 0.707,-1.708 0.049,-0.006 0.097,-0.013 0.147,-0.019 -0.089,0.655 -0.177,1.31 -0.266,1.964 -4.327,-1.06 -4.885,-6.559 -6.608,-9.976 -1.547,-3.069 -4.532,-5.55 -1.934,-9.08 0.9,-1.222 2.217,-1.943 3.627,-2.409 2.165,-0.714 4.713,-1.634 6.929,-2.044 2.973,-0.55 9.589,-0.446 11.422,2.403 0.698,1.086 -1.031,2.089 -1.727,1.01 -1.305,-2.029 -7.489,-1.708 -9.413,-1.342 -1.526,0.29 -2.833,0.974 -4.314,1.377 -1.016,0.276 -2.885,0.303 -3.626,1.053 -1.022,1.033 -0.757,5.016 -0.257,6.253 0.411,1.019 1.12,1.991 1.572,3.022 1.071,2.443 1.793,7.053 4.861,7.805 1.185,0.291 0.773,1.833 -0.266,1.964 -0.05,0.006 -0.098,0.013 -0.147,0.019 0.235,-0.569 0.471,-1.139 0.707,-1.707 l 0.17,-0.349 C 0.716,-2.247 1.248,-0.319 0,0"
             style="fill:#292929;fill-opacity:1;fill-rule:nonzero;stroke:none"
             id="path5599"
             inkscape:connector-curvature="0" /></g><g
           id="g5601"
           transform="translate(129.6108,131.7676)"><path
             d="m 0,0 c 16.467,-12.813 33.647,-26.13 54.233,-31.39 22,-5.621 45.036,-1.22 66.046,6.188 1.206,0.425 0.687,2.357 -0.532,1.928 C 99.071,-30.563 76.425,-34.995 54.764,-29.461 34.526,-24.29 17.602,-11.182 1.414,1.414 0.41,2.195 -1.015,0.79 0,0"
             style="fill:#292929;fill-opacity:1;fill-rule:nonzero;stroke:none"
             id="path5603"
             inkscape:connector-curvature="0" /></g><g
           id="g5605"
           transform="translate(108.999,175.9531)"><path
             d="m 0,0 c -1.465,-0.79 -0.072,-3.215 0.525,-4.167 0.691,-1.105 2.276,-0.144 1.727,1.009 -0.258,0.541 -0.616,1.024 -1.047,1.44 -0.56,0.542 -1.823,0.201 -1.707,-0.707 0.112,-0.879 0.298,-2.182 1.262,-2.512 0.541,-0.185 1.054,0.215 1.23,0.699 0.006,0.014 0.011,0.03 0.017,0.045 0.2,0.549 -0.233,1.039 -0.699,1.23 -0.011,0.004 -0.022,0.009 -0.033,0.013 -0.5,0.205 -1.099,-0.222 -1.23,-0.698 -0.157,-0.574 0.197,-1.025 0.699,-1.231 l 0.033,-0.014 c -0.233,0.411 -0.466,0.821 -0.699,1.231 -0.005,-0.015 -0.011,-0.03 -0.016,-0.045 0.41,0.232 0.82,0.466 1.23,0.699 L 1.238,-2.99 C 1.437,-3.144 1.637,-3.296 1.836,-3.449 1.64,-3.175 1.54,-2.754 1.498,-2.425 0.929,-2.66 0.36,-2.896 -0.209,-3.132 c 0.322,-0.311 0.541,-0.631 0.734,-1.035 0.576,0.336 1.151,0.672 1.727,1.009 -0.349,0.557 -0.941,1.525 -0.89,2.14 C 1.317,-1.186 1.271,-1.354 1.226,-1.522 l 0.047,0.103 -0.358,-0.359 0.094,0.05 C 2.143,-1.116 1.134,0.61 0,0"
             style="fill:#ee3c3b;fill-opacity:1;fill-rule:nonzero;stroke:none"
             id="path5607"
             inkscape:connector-curvature="0" /></g><g
           id="g5609"
           transform="translate(104.0928,180.7451)"><path
             d="m 0,0 c 0.709,-8.303 5.776,-16.828 9.461,-24.183 4.311,-8.602 9.195,-17.394 15.802,-24.463 0.88,-0.942 2.293,0.475 1.414,1.415 -6.075,6.499 -10.626,14.597 -14.681,22.468 C 8.226,-17.445 2.703,-8.231 2,0 1.891,1.272 -0.11,1.284 0,0"
             style="fill:#292929;fill-opacity:1;fill-rule:nonzero;stroke:none"
             id="path5611"
             inkscape:connector-curvature="0" /></g><g
           id="g5613"
           transform="translate(104.5967,229.1279)"><path
             d="m 0,0 c -2.699,-15.65 -1.084,-32.588 -0.538,-48.391 0.045,-1.282 2.045,-1.289 2,0 -0.274,7.933 -0.451,15.867 -0.506,23.803 C 0.9,-16.593 0.565,-8.44 1.929,-0.532 2.146,0.727 0.219,1.268 0,0"
             style="fill:#292929;fill-opacity:1;fill-rule:nonzero;stroke:none"
             id="path5615"
             inkscape:connector-curvature="0" /></g><g
           id="g5617"
           transform="translate(129.7139,283.3257)"><path
             d="m 0,0 c -6.794,-6.407 -12.206,-14.054 -15.729,-22.725 -4.039,-9.942 -6.176,-20.922 -9.269,-31.209 -0.371,-1.234 1.558,-1.763 1.929,-0.531 2.803,9.323 4.923,19.023 8.132,28.2 3.333,9.53 9.024,17.941 16.351,24.851 C 2.353,-0.529 0.936,0.883 0,0"
             style="fill:#292929;fill-opacity:1;fill-rule:nonzero;stroke:none"
             id="path5619"
             inkscape:connector-curvature="0" /></g><g
           id="g5621"
           transform="translate(131.0635,281.8848)"><path
             d="m 0,0 c 5.357,6.272 12.03,11.09 18.683,15.889 6.788,4.897 13.778,9.393 21.688,12.261 1.2,0.435 0.682,2.368 -0.532,1.928 C 31.767,27.151 24.608,22.619 17.674,17.616 10.891,12.724 4.048,7.81 -1.414,1.414 -2.246,0.441 -0.838,-0.981 0,0"
             style="fill:#292929;fill-opacity:1;fill-rule:nonzero;stroke:none"
             id="path5623"
             inkscape:connector-curvature="0" /></g><g
           id="g5625"
           transform="translate(171.4341,310.0342)"><path
             d="m 0,0 c 25.865,7.369 55.171,1.758 76.718,-14.284 1.033,-0.769 2.032,0.966 1.009,1.727 C 55.732,3.819 25.859,9.447 -0.532,1.929 -1.767,1.577 -1.242,-0.354 0,0"
             style="fill:#292929;fill-opacity:1;fill-rule:nonzero;stroke:none"
             id="path5627"
             inkscape:connector-curvature="0" /></g></g></g></g></svg>