<?xml version="1.0" encoding="UTF-8" standalone="no"?>
<!-- Created with Inkscape (http://www.inkscape.org/) -->

<svg
   xmlns:dc="http://purl.org/dc/elements/1.1/"
   xmlns:cc="http://creativecommons.org/ns#"
   xmlns:rdf="http://www.w3.org/1999/02/22-rdf-syntax-ns#"
   xmlns:svg="http://www.w3.org/2000/svg"
   xmlns="http://www.w3.org/2000/svg"
   xmlns:sodipodi="http://sodipodi.sourceforge.net/DTD/sodipodi-0.dtd"
   xmlns:inkscape="http://www.inkscape.org/namespaces/inkscape"
   id="svg2"
   version="1.1"
   inkscape:version="0.48.5 r10040"
   width="80"
   height="80"
   xml:space="preserve"
   sodipodi:docname="Rjava_LESNIK.svg"><metadata
     id="metadata8"><rdf:RDF><cc:Work
         rdf:about=""><dc:format>image/svg+xml</dc:format><dc:type
           rdf:resource="http://purl.org/dc/dcmitype/StillImage" /><dc:title /></cc:Work></rdf:RDF></metadata><defs
     id="defs6"><clipPath
       clipPathUnits="userSpaceOnUse"
       id="clipPath16"><path
         d="m 50.286,76.937 402.126,0 0,343.178 -402.126,0 0,-343.178 z"
         id="path18"
         inkscape:connector-curvature="0" /></clipPath><clipPath
       clipPathUnits="userSpaceOnUse"
       id="clipPath72"><path
         d="M 0,0 500,0 500,500 0,500 0,0 z"
         id="path74"
         inkscape:connector-curvature="0" /></clipPath><filter
       inkscape:menu-tooltip="Make the lightest parts of the object progressively transparent"
       inkscape:menu="Transparency utilities"
       inkscape:label="Light eraser"
       height="1"
       width="1"
       y="0"
       x="0"
       color-interpolation-filters="sRGB"
       id="filter3048"><feColorMatrix
         result="result14"
         type="luminanceToAlpha"
         in="SourceGraphic"
         id="feColorMatrix3050" /><feComposite
         in="SourceGraphic"
         in2="result14"
         result="fbSourceGraphic"
         operator="out"
         id="feComposite3052" /><feBlend
         mode="normal"
         in2="fbSourceGraphic"
         result="result15"
         id="feBlend3054" /></filter></defs><sodipodi:namedview
     pagecolor="#ffffff"
     bordercolor="#666666"
     borderopacity="1"
     objecttolerance="10"
     gridtolerance="10"
     guidetolerance="10"
     inkscape:pageopacity="1"
     inkscape:pageshadow="2"
     inkscape:window-width="743"
     inkscape:window-height="480"
     id="namedview4"
     showgrid="false"
     inkscape:zoom="1.0680141"
     inkscape:cx="142.37535"
     inkscape:cy="41.843089"
     inkscape:window-x="0"
     inkscape:window-y="0"
     inkscape:window-maximized="0"
     inkscape:current-layer="g10"
     fit-margin-top="10"
     fit-margin-left="10"
     fit-margin-right="10"
     fit-margin-bottom="10" /><g
     id="g10"
     inkscape:groupmode="layer"
     inkscape:label="Rjava_LEŠNIK"
     transform="matrix(1.25,0,0,-1.25,-274.18642,350.65691)"><g
       id="g12"
       transform="matrix(0.11936565,0,0,0.13986949,221.34668,213.76439)"
       style="filter:url(#filter3048)"><g
         id="g14"
         clip-path="url(#clipPath16)"><g
           id="g20"
           transform="translate(251.2373,420)"><path
             d="m 0,0 c 65.637,0 131.273,-0.044 196.909,0.114 3.801,0.009 4.264,-1.019 4.259,-4.433 -0.098,-111.448 -0.1,-222.897 0.007,-334.346 0.004,-3.483 -0.565,-4.401 -4.291,-4.398 -131.274,0.127 -262.547,0.126 -393.819,0.003 -3.566,-0.003 -4.015,0.903 -4.012,4.172 0.101,111.616 0.102,223.23 -0.004,334.845 -0.004,3.325 0.527,4.153 4.042,4.145 C -131.272,-0.037 -65.636,0 0,0"
             style="fill:#fefefe;fill-opacity:1;fill-rule:nonzero;stroke:none"
             id="path22"
             inkscape:connector-curvature="0" /></g><g
           id="g24"
           transform="translate(338.4482,353.0591)"><path
             d="m 0,0 c 5.959,-3.291 7.575,-9.512 9.708,-15.146 3.505,-9.257 4.365,-19.051 5.017,-28.901 1.299,-19.62 2.384,-39.255 0.79,-58.872 -2.736,-33.637 -7.08,-66.967 -23.858,-97.169 -5.683,-10.228 -13.208,-19.176 -20.501,-28.262 -1.676,-2.088 -3.317,-4.169 -4.386,-6.648 -3.474,-8.057 -10.037,-13.527 -16.404,-19.047 -3.59,-3.112 -8.031,-3.348 -12.757,-2.276 -34.26,7.779 -61.964,26.677 -85.189,52.04 -14.899,16.269 -29.538,33.195 -38.457,53.824 -9.375,21.686 -13.368,44.459 -12.727,68.154 0.61,22.602 5.115,44.64 8.668,66.825 0.893,5.572 3.841,9.861 9.022,12.423 4.055,3.256 8.295,2.784 12.612,0.615 1.497,-0.752 2.936,-1.662 4.017,-2.923 12.754,-14.882 30.44,-17.96 48.434,-20.29 24.513,-3.175 47.589,2.512 69.949,11.832 7.499,3.126 14.591,7.182 20.708,12.777 4.315,3.946 9.512,5.272 15.294,3.663 C -6.721,1.691 -3.216,1.402 0,0"
             style="fill:#833e00;fill-opacity:1;fill-rule:nonzero;stroke:none"
             id="path26"
             inkscape:connector-curvature="0" /></g><g
           id="g28"
           transform="translate(338.4482,353.0591)"><path
             d="m 0,0 c -4.792,0.277 -9.323,2.284 -14.228,1.989 -3.421,-0.206 -6.856,-0.734 -9.269,-3.086 -8.941,-8.711 -20.056,-13.475 -31.427,-17.739 -16.448,-6.168 -33.532,-9.801 -51.081,-9.038 -17.251,0.75 -34.314,3.349 -49.579,12.529 -3.209,1.929 -5.615,4.723 -8.036,7.424 -4.86,5.422 -10.507,7.29 -17.454,4.866 4.088,4.121 8.592,7.54 13.693,10.496 21.619,12.526 45.205,18.015 69.744,19.73 11.845,0.828 23.871,1.381 35.548,-2.134 1.367,-1.614 0.716,-3.131 -0.386,-4.459 -5.252,-6.336 -9.668,-13.309 -14.992,-19.584 -1.048,-2.1 -2.861,-3.619 -4.187,-5.508 -1.465,-1.511 -2.553,-3.349 -4.057,-4.827 1.468,1.364 2.496,3.117 3.896,4.54 1.262,1.816 2.992,3.265 4.087,5.213 2.513,2.766 4.233,6.152 6.886,8.806 1.009,1.079 2.057,2.126 2.805,3.423 0.222,0.372 0.481,0.715 0.753,1.049 1.056,1.124 1.934,2.385 2.839,3.636 0.308,0.372 0.646,0.704 1.009,1.017 4.152,7.43 10.52,4.904 16.592,3.706 4.523,0.154 8.333,-1.929 12.12,-3.969 8.123,-4.375 17.162,-7.204 23.893,-13.94 C -9.1,2.407 -6.86,2.732 -4.815,2.232 -3.064,1.804 -1.197,1.623 0,0"
             style="fill:#925116;fill-opacity:1;fill-rule:nonzero;stroke:none"
             id="path30"
             inkscape:connector-curvature="0" /></g><g
           id="g32"
           transform="translate(145.3657,149.0361)"><path
             d="m 0,0 c -0.6,0.262 -1.219,0.486 -1.796,0.79 -1.511,0.795 -4.495,-0.866 -4.599,1.375 -0.115,2.481 1.676,4.901 4.353,5.906 2.275,0.855 4.504,1.983 7.04,1.923 C 4.173,6.242 3.18,2.574 0,0"
             style="fill:#fbf9f8;fill-opacity:1;fill-rule:nonzero;stroke:none"
             id="path34"
             inkscape:connector-curvature="0" /></g><g
           id="g36"
           transform="translate(268.3486,362.0059)"><path
             d="m 0,0 c -2.335,-2.998 -4.669,-5.995 -7.004,-8.993 -0.899,-0.234 -1.387,-0.055 -1.002,0.999 4.748,6.957 9.346,14.026 14.894,20.396 0.966,1.11 1.148,2.338 1.123,3.688 2.073,-0.092 4.194,0.087 6.089,-1.049 C 10.013,14.287 8.94,10.069 6,7.998 l 0.001,0 C 5.073,6.611 3.874,5.427 3.004,3.997 L 3.003,3.996 C 2.061,2.621 0.896,1.412 0,0"
             style="fill:#9b5f29;fill-opacity:1;fill-rule:nonzero;stroke:none"
             id="path38"
             inkscape:connector-curvature="0" /></g><g
           id="g40"
           transform="translate(145.3657,149.0361)"><path
             d="M 0,0 C 1.645,3.343 2.3,7.18 4.998,9.994 5.904,10.058 7.906,11.606 7.459,9.718 6.645,6.273 4.802,3.029 3.096,-0.141 2.384,-1.464 1.035,-0.403 0,0"
             style="fill:#f8f5f1;fill-opacity:1;fill-rule:nonzero;stroke:none"
             id="path42"
             inkscape:connector-curvature="0" /></g><g
           id="g44"
           transform="translate(274.3486,370.0039)"><path
             d="M 0,0 C 2.272,2.839 3.286,7.126 8.099,7.044 11.244,6.837 14.395,6.654 17.255,5.104 16.099,5.081 14.817,4.721 13.804,5.092 8.705,6.956 4.78,6.026 2.172,0.938 1.895,0.396 0.745,0.302 0,0"
             style="fill:#985922;fill-opacity:1;fill-rule:nonzero;stroke:none"
             id="path46"
             inkscape:connector-curvature="0" /></g><g
           id="g48"
           transform="translate(392.5205,197.3809)"><path
             d="m 0,0 c -1.362,0.353 -1.288,1.447 -1.049,2.354 0.31,1.176 0.438,2.89 2.157,2.694 C 1.997,4.947 2.551,3.669 2.474,2.676 2.362,1.23 1.297,0.454 0,0"
             style="fill:#faf7f5;fill-opacity:1;fill-rule:nonzero;stroke:none"
             id="path50"
             inkscape:connector-curvature="0" /></g><g
           id="g52"
           transform="translate(257.3516,348.0059)"><path
             d="m 0,0 c -2.03,-2.509 -4.061,-5.017 -6.09,-7.526 1.003,3.334 2.396,6.354 5.086,8.53 C -0.445,0.894 -0.107,0.563 0,0"
             style="fill:#95551b;fill-opacity:1;fill-rule:nonzero;stroke:none"
             id="path54"
             inkscape:connector-curvature="0" /></g><g
           id="g56"
           transform="translate(257.3516,348.0059)"><path
             d="M 0,0 C -0.335,0.335 -0.669,0.67 -1.004,1.004 0.328,2.672 1.66,4.339 2.99,6.006 3.324,5.673 3.66,5.34 3.994,5.007 2.662,3.338 1.331,1.669 0,0"
             style="fill:#985921;fill-opacity:1;fill-rule:nonzero;stroke:none"
             id="path58"
             inkscape:connector-curvature="0" /></g><g
           id="g60"
           transform="translate(271.3525,366.0029)"><path
             d="M 0,0 C 0.07,2.03 1.389,3.124 2.997,4.001 2.919,1.978 1.6,0.884 0,0"
             style="fill:#985922;fill-opacity:1;fill-rule:nonzero;stroke:none"
             id="path62"
             inkscape:connector-curvature="0" /></g><g
           id="g64"
           transform="translate(268.3486,362.0059)"><path
             d="M 0,0 C 0.078,2.026 1.393,3.123 3.003,3.996 2.919,1.976 1.604,0.88 0,0"
             style="fill:#985922;fill-opacity:1;fill-rule:nonzero;stroke:none"
             id="path66"
             inkscape:connector-curvature="0" /></g></g></g><g
       id="g68"
       transform="matrix(0.11936565,0,0,0.13986949,221.34668,213.76439)"><g
         id="g70"
         clip-path="url(#clipPath72)"><g
           id="g76"
           transform="translate(231.8481,345.8311)"><path
             d="M 0,0 C 2.806,-1.544 6.019,-0.285 8.963,0.416 13.942,1.603 18.739,3.04 23.894,3.231 23.305,4.653 22.716,6.076 22.126,7.499 18.275,3.69 14.683,-0.322 11.321,-4.568 9.339,-7.07 12.36,-10.217 14.857,-8.103 19.884,-3.846 24.911,0.412 29.938,4.669 28.759,5.848 27.582,7.026 26.402,8.205 23.577,4.977 20.424,1.882 18.325,-1.887 c -1.346,-2.417 1.944,-5.17 3.927,-3.029 3.77,4.071 7.25,8.352 10.494,12.853 1.644,2.28 -2.148,5.246 -3.927,3.029 -3.633,-4.527 -7.101,-9.241 -11.424,-13.144 1.308,-1.01 2.617,-2.019 3.926,-3.029 4.074,6.932 9.149,12.918 15.284,18.111 -1.178,1.179 -2.357,2.357 -3.535,3.536 -3.018,-3.057 -6.255,-5.635 -9.919,-7.879 1.141,-1.14 2.281,-2.28 3.421,-3.42 2.938,4.828 9.5,8.191 14.018,11.438 2.57,1.847 0.194,6.122 -2.523,4.318 -2.738,-1.818 -5.541,-3.474 -8.456,-4.993 l 3.03,-3.927 c 3.028,2.388 6.192,4.518 9.506,6.488 2.797,1.663 0.344,5.709 -2.524,4.317 -2.094,-1.016 -4.187,-2.032 -6.281,-3.048 0.841,-1.439 1.682,-2.879 2.524,-4.318 3.092,1.965 6.183,3.929 9.275,5.894 2.286,1.452 0.863,5.544 -1.927,4.569 -2.742,-0.958 -5.484,-1.916 -8.225,-2.874 0.642,-1.524 1.284,-3.047 1.927,-4.57 3.357,1.427 6.759,2.712 10.207,3.901 3.044,1.049 1.835,5.478 -1.329,4.821 -3.248,-0.674 -6.455,-1.462 -9.646,-2.372 -3.099,-0.883 -1.803,-5.559 1.33,-4.821 3.325,0.783 6.65,1.566 9.976,2.35 2.907,0.684 1.997,4.669 -0.665,4.91 -1.842,0.167 -3.62,0.243 -5.469,0.235 l 0.664,-4.91 c 2.495,0.725 4.858,1.635 7.215,2.716 2.069,0.948 1.289,3.982 -0.597,4.569 -1.989,0.619 -3.583,0.803 -5.681,0.571 -3.158,-0.349 -3.206,-5.339 0,-5 2.277,0.241 4.448,0.623 6.652,1.255 2.195,0.629 2.56,4.424 0,4.821 -1.934,0.3 -2.747,0.307 -4.674,-0.042 -2.749,-0.499 -2.148,-5.145 0.664,-4.911 1.309,0.109 2.184,0.231 3.463,0.533 2.682,0.633 2.179,5.22 -0.665,4.911 -2.332,-0.254 -4.668,1.013 -6.709,-0.419 -2.614,-1.834 -0.118,-6.171 2.524,-4.317 -0.673,-0.473 0.346,-0.201 1.2,-0.292 1.041,-0.11 1.932,-0.087 2.985,0.028 -0.221,1.637 -0.443,3.274 -0.664,4.91 -0.711,-0.118 -1.423,-0.236 -2.134,-0.354 0.222,-1.637 0.443,-3.274 0.665,-4.911 0.672,0.014 1.344,0.029 2.016,0.043 l 0,4.821 c -1.796,-0.514 -3.445,-0.877 -5.323,-1.076 l 0,-5 c 1.476,0.346 2.926,0.215 4.351,-0.392 -0.199,1.523 -0.397,3.046 -0.597,4.569 -2.012,-0.922 -3.913,-1.599 -6.02,-2.212 -2.681,-0.78 -2.198,-4.923 0.665,-4.911 1.849,0.008 3.627,-0.068 5.469,-0.235 -0.222,1.637 -0.443,3.274 -0.664,4.911 -3.326,-0.783 -6.651,-1.566 -9.977,-2.35 0.443,-1.607 0.887,-3.214 1.33,-4.821 3.19,0.909 6.397,1.698 9.645,2.372 -0.443,1.607 -0.886,3.214 -1.329,4.821 -3.861,-1.331 -7.645,-2.808 -11.403,-4.404 -2.589,-1.101 -0.74,-5.502 1.927,-4.57 2.742,0.958 5.484,1.916 8.225,2.875 -0.642,1.523 -1.284,3.046 -1.926,4.569 -3.092,-1.964 -6.183,-3.929 -9.275,-5.893 -2.741,-1.742 -0.356,-5.715 2.524,-4.318 2.093,1.017 4.187,2.033 6.281,3.049 -0.841,1.439 -1.683,2.878 -2.524,4.317 -3.683,-2.189 -7.154,-4.618 -10.518,-7.269 -2.318,-1.828 0.633,-5.176 3.03,-3.927 2.914,1.52 5.717,3.175 8.455,4.993 -0.84,1.439 -1.682,2.878 -2.523,4.318 C 32.853,17.149 25.67,13.276 22.255,7.664 c -1.293,-2.124 1.291,-4.725 3.42,-3.42 4.011,2.457 7.626,5.314 10.93,8.66 2.295,2.324 -1.11,5.589 -3.535,3.536 C 26.626,10.985 21.279,4.593 17.004,-2.684 c -1.476,-2.511 1.853,-4.901 3.926,-3.029 4.324,3.902 7.791,8.616 11.425,13.144 L 28.429,10.46 C 25.432,6.303 22.197,2.378 18.716,-1.381 20.025,-2.39 21.334,-3.4 22.642,-4.41 c 1.876,3.367 4.768,6.191 7.296,9.079 2.135,2.439 -1.083,5.612 -3.536,3.536 C 21.375,3.947 16.348,-0.31 11.321,-4.568 c 1.179,-1.178 2.357,-2.357 3.536,-3.535 3.362,4.246 6.954,8.257 10.805,12.066 1.5,1.484 0.421,4.349 -1.768,4.268 C 20.409,8.102 17.055,7.558 13.659,6.754 11.634,6.274 4.369,3.302 2.524,4.317 -0.298,5.869 -2.823,1.553 0,0"
             style="fill:#925116;fill-opacity:1;fill-rule:nonzero;stroke:none"
             id="path78"
             inkscape:connector-curvature="0" /></g><g
           id="g80"
           transform="translate(235.2529,111.0918)"><path
             d="m 0,0 c 14.704,-7.443 30.466,-14.994 47.182,-15.834 1.286,-0.064 1.283,1.936 0,2 C 30.82,-13.012 15.396,-5.556 1.009,1.728 -0.136,2.307 -1.15,0.582 0,0"
             style="fill:#000000;fill-opacity:1;fill-rule:nonzero;stroke:none"
             id="path82"
             inkscape:connector-curvature="0" /></g><g
           id="g84"
           transform="translate(314.4268,133.0098)"><path
             d="m 0,0 c -2.516,-2.698 -4.944,-5.479 -7.162,-8.428 -2.192,-2.914 -3.496,-6.154 -5.39,-9.228 -2.127,-3.454 -5.225,-6.469 -8.094,-9.323 -2.825,-2.807 -7.127,-8.344 -11.3,-8.68 -1.275,-0.102 -1.285,-2.103 0,-2 2.684,0.216 4.35,1.452 6.337,3.207 3.715,3.284 7.32,6.812 10.624,10.511 2.614,2.925 4.439,5.814 6.212,9.3 2.512,4.941 6.428,9.196 10.187,13.227 C 2.291,-0.475 0.88,0.943 0,0"
             style="fill:#000000;fill-opacity:1;fill-rule:nonzero;stroke:none"
             id="path86"
             inkscape:connector-curvature="0" /></g><g
           id="g88"
           transform="translate(341.377,184.9912)"><path
             d="m 0,0 c -6.256,-18.596 -14.229,-36.689 -26.821,-51.919 -0.815,-0.985 0.592,-2.407 1.414,-1.414 12.821,15.505 20.966,33.866 27.336,52.801 C 2.34,0.69 0.408,1.216 0,0"
             style="fill:#000000;fill-opacity:1;fill-rule:nonzero;stroke:none"
             id="path90"
             inkscape:connector-curvature="0" /></g><g
           id="g92"
           transform="translate(351.8174,237.4785)"><path
             d="m 0,0 c -1.966,-8.568 -2.72,-17.302 -4.104,-25.968 -1.439,-9.006 -3.609,-17.847 -6.372,-26.535 -0.391,-1.23 1.539,-1.756 1.928,-0.532 2.763,8.688 4.933,17.529 6.372,26.535 1.384,8.663 2.14,17.404 4.105,25.968 C 2.216,0.721 0.288,1.256 0,0"
             style="fill:#000000;fill-opacity:1;fill-rule:nonzero;stroke:none"
             id="path94"
             inkscape:connector-curvature="0" /></g><g
           id="g96"
           transform="translate(352.6875,295.874)"><path
             d="M 0,0 C 0.807,-18.997 2.02,-39.039 -0.765,-57.912 -0.95,-59.171 0.977,-59.714 1.164,-58.443 3.976,-39.388 2.814,-19.179 2,0 1.945,1.282 -0.056,1.289 0,0"
             style="fill:#000000;fill-opacity:1;fill-rule:nonzero;stroke:none"
             id="path98"
             inkscape:connector-curvature="0" /></g><g
           id="g100"
           transform="translate(342.498,347.7573)"><path
             d="m 0,0 c 3.975,-7.89 6.483,-16.287 8.194,-24.936 1.744,-8.815 1.131,-18.035 2.005,-26.973 0.124,-1.27 2.126,-1.282 2,0 -0.892,9.127 -0.261,18.504 -2.076,27.504 C 8.343,-15.576 5.784,-7.044 1.728,1.009 1.148,2.159 -0.578,1.148 0,0"
             style="fill:#000000;fill-opacity:1;fill-rule:nonzero;stroke:none"
             id="path102"
             inkscape:connector-curvature="0" /></g><g
           id="g104"
           transform="translate(263.7979,379.75)"><path
             d="m 0,0 c 14.572,-2.489 29.817,-3.528 43.021,-10.563 6.027,-3.212 11.703,-6.737 17.387,-10.506 5.894,-3.908 14.278,-4.43 18.181,-10.665 0.682,-1.088 2.413,-0.085 1.726,1.01 -3.745,5.981 -8.958,5.994 -14.816,8.919 -6.881,3.434 -13.042,8.447 -19.856,12.107 -6.463,3.472 -12.328,5.993 -19.59,7.266 C 17.552,-0.942 9.039,0.475 0.531,1.929 -0.728,2.144 -1.269,0.217 0,0"
             style="fill:#000000;fill-opacity:1;fill-rule:nonzero;stroke:none"
             id="path106"
             inkscape:connector-curvature="0" /></g><g
           id="g108"
           transform="translate(191.8657,369.1699)"><path
             d="m 0,0 c 11.356,3.594 22.933,6.411 34.697,8.302 12.322,1.981 25.346,3.697 37.802,2.123 1.272,-0.16 1.261,1.841 0,2 C 60.451,13.948 47.963,12.344 36.022,10.521 23.623,8.629 11.423,5.712 -0.532,1.929 -1.754,1.542 -1.232,-0.39 0,0"
             style="fill:#000000;fill-opacity:1;fill-rule:nonzero;stroke:none"
             id="path110"
             inkscape:connector-curvature="0" /></g><g
           id="g112"
           transform="translate(157.5186,348.6865)"><path
             d="m 0,0 c 5.101,4.843 10.81,8.851 16.837,12.452 5.76,3.441 11.681,5.644 17.744,8.383 1.171,0.53 0.156,2.254 -1.009,1.727 -3.127,-1.412 -6.471,-2.185 -9.541,-3.731 -3.3,-1.663 -6.513,-3.606 -9.662,-5.534 C 8.718,9.838 3.395,5.98 -1.414,1.414 -2.35,0.526 -0.934,-0.886 0,0"
             style="fill:#000000;fill-opacity:1;fill-rule:nonzero;stroke:none"
             id="path114"
             inkscape:connector-curvature="0" /></g><g
           id="g116"
           transform="translate(158.6187,349.3179)"><path
             d="m 0,0 c 10.784,3.121 16.679,-7.72 24.772,-12.692 6.91,-4.246 14.753,-6.779 22.618,-8.57 17.453,-3.974 36.638,-6.731 54.12,-1.692 1.234,0.356 0.709,2.287 -0.532,1.929 -18.815,-5.423 -40.799,-2.098 -59.335,3.304 -9.136,2.663 -17.425,6.782 -24.3,13.439 C 12.087,0.807 7.011,4.111 -0.532,1.929 -1.766,1.571 -1.241,-0.359 0,0"
             style="fill:#000000;fill-opacity:1;fill-rule:nonzero;stroke:none"
             id="path118"
             inkscape:connector-curvature="0" /></g><g
           id="g120"
           transform="translate(260.1279,326.2539)"><path
             d="m 0,0 c 12.879,3.54 25.889,7.148 37.817,13.292 6.006,3.094 11.049,7.135 16.546,10.971 7.378,5.148 14.307,2.387 22.502,2.479 1.286,0.014 1.29,2.014 0,2 -6.234,-0.07 -12.678,2.27 -18.734,-0.063 C 51.913,26.283 46.943,20.818 41.228,17.452 28.344,9.865 13.778,5.862 -0.532,1.929 -1.771,1.588 -1.245,-0.342 0,0"
             style="fill:#000000;fill-opacity:1;fill-rule:nonzero;stroke:none"
             id="path122"
             inkscape:connector-curvature="0" /></g><g
           id="g124"
           transform="translate(156.9028,350.749)"><path
             d="m 0,0 c -7.198,-4.557 -9.801,-10.791 -10.544,-19.117 -1.077,-12.07 -3.265,-23.719 -5.652,-35.591 -0.253,-1.256 1.675,-1.794 1.928,-0.531 1.818,9.039 3.94,18.084 4.992,27.253 1.188,10.353 0.437,20.024 10.285,26.259 C 2.094,-1.04 1.092,0.691 0,0"
             style="fill:#000000;fill-opacity:1;fill-rule:nonzero;stroke:none"
             id="path126"
             inkscape:connector-curvature="0" /></g><g
           id="g128"
           transform="translate(140.6709,296.2612)"><path
             d="m 0,0 c -1.099,-9.949 -1.72,-19.936 -1.759,-29.948 -0.033,-8.703 -0.263,-17.876 1.737,-26.4 0.294,-1.252 2.223,-0.722 1.929,0.532 -2.087,8.893 -1.751,18.72 -1.651,27.804 C 0.358,-18.647 0.972,-9.308 2,0 2.141,1.277 0.14,1.267 0,0"
             style="fill:#000000;fill-opacity:1;fill-rule:nonzero;stroke:none"
             id="path130"
             inkscape:connector-curvature="0" /></g><g
           id="g132"
           transform="translate(140.4404,240.4121)"><path
             d="m 0,0 c 4.646,-19.638 10.311,-37.946 21.087,-55.195 0.681,-1.089 2.412,-0.086 1.727,1.009 C 12.136,-37.094 6.529,-18.913 1.929,0.532 1.632,1.784 -0.297,1.254 0,0"
             style="fill:#000000;fill-opacity:1;fill-rule:nonzero;stroke:none"
             id="path134"
             inkscape:connector-curvature="0" /></g><g
           id="g136"
           transform="translate(161.4683,185.6514)"><path
             d="m 0,0 c 4.313,-9.584 12.428,-18.338 19.148,-26.334 7.616,-9.061 15.782,-17.63 24.395,-25.747 0.936,-0.882 2.353,0.529 1.414,1.414 -8.182,7.711 -15.963,15.828 -23.249,24.392 C 14.673,-18.004 6.219,-8.974 1.727,1.009 1.2,2.181 -0.524,1.165 0,0"
             style="fill:#000000;fill-opacity:1;fill-rule:nonzero;stroke:none"
             id="path138"
             inkscape:connector-curvature="0" /></g><g
           id="g140"
           transform="translate(204.7437,133.75)"><path
             d="m 0,0 c 9.674,-7.952 19.296,-15.934 30.032,-22.42 1.104,-0.668 2.111,1.062 1.009,1.728 C 20.452,-14.296 10.955,-6.428 1.414,1.414 0.427,2.226 -0.995,0.818 0,0"
             style="fill:#000000;fill-opacity:1;fill-rule:nonzero;stroke:none"
             id="path142"
             inkscape:connector-curvature="0" /></g></g></g></g></svg>