<?xml version="1.0" encoding="UTF-8" standalone="no"?>
<!-- Created with Inkscape (http://www.inkscape.org/) -->

<svg
   xmlns:dc="http://purl.org/dc/elements/1.1/"
   xmlns:cc="http://creativecommons.org/ns#"
   xmlns:rdf="http://www.w3.org/1999/02/22-rdf-syntax-ns#"
   xmlns:svg="http://www.w3.org/2000/svg"
   xmlns="http://www.w3.org/2000/svg"
   xmlns:sodipodi="http://sodipodi.sourceforge.net/DTD/sodipodi-0.dtd"
   xmlns:inkscape="http://www.inkscape.org/namespaces/inkscape"
   id="svg4591"
   version="1.1"
   inkscape:version="0.48.5 r10040"
   width="79.997086"
   height="80.030907"
   xml:space="preserve"
   sodipodi:docname="sir.svg"><metadata
     id="metadata4597"><rdf:RDF><cc:Work
         rdf:about=""><dc:format>image/svg+xml</dc:format><dc:type
           rdf:resource="http://purl.org/dc/dcmitype/StillImage" /><dc:title /></cc:Work></rdf:RDF></metadata><defs
     id="defs4595"><clipPath
       clipPathUnits="userSpaceOnUse"
       id="clipPath4605"><path
         d="m 0,566.93 566.93,0 L 566.93,0 0,0 0,566.93 z"
         id="path4607"
         inkscape:connector-curvature="0" /></clipPath></defs><sodipodi:namedview
     pagecolor="#ffffff"
     bordercolor="#666666"
     borderopacity="1"
     objecttolerance="10"
     gridtolerance="10"
     guidetolerance="10"
     inkscape:pageopacity="0"
     inkscape:pageshadow="2"
     inkscape:window-width="743"
     inkscape:window-height="480"
     id="namedview4593"
     showgrid="false"
     inkscape:zoom="0.33302172"
     inkscape:cx="560.98666"
     inkscape:cy="40.026587"
     inkscape:window-x="0"
     inkscape:window-y="0"
     inkscape:window-maximized="0"
     inkscape:current-layer="g4599"
     fit-margin-top="10"
     fit-margin-left="10"
     fit-margin-right="10"
     fit-margin-bottom="10" /><g
     id="g4599"
     inkscape:groupmode="layer"
     inkscape:label="sir"
     transform="matrix(1.25,0,0,-1.25,-314.33161,394.33558)"><g
       id="g4601"
       transform="matrix(0.11556976,0,0,0.11587206,250.70508,250.61924)"><g
         id="g4603"
         clip-path="url(#clipPath4605)"><g
           id="g4609"
           transform="translate(85.9814,440.6519)"><path
             d="m 0,0 332.702,49.438 c 0,0 161.664,-108.429 0,-192.566 L 0,0 z"
             style="fill:#fff215;fill-opacity:1;fill-rule:nonzero;stroke:none"
             id="path4611"
             inkscape:connector-curvature="0" /></g><g
           id="g4613"
           transform="translate(85.9814,440.6519)"><path
             d="m 0,0 332.702,49.438 c 0,0 161.664,-108.429 0,-192.566 L 0,0 z"
             style="fill:none;stroke:#fcb24c;stroke-width:1;stroke-linecap:butt;stroke-linejoin:miter;stroke-miterlimit:10;stroke-opacity:1;stroke-dasharray:none"
             id="path4615"
             inkscape:connector-curvature="0" /></g><g
           id="g4617"
           transform="translate(85.9814,232.1289)"><path
             d="m 0,0 c 0,0 330.358,-155.289 332.702,-155.289 2.345,0 0,220.684 0,220.684 L 0,208.523 c 0,0 -21.787,-70.149 0,-84.206 C 21.791,110.259 0,75.113 0,75.113 L 0,0 z"
             style="fill:#fff215;fill-opacity:1;fill-rule:nonzero;stroke:none"
             id="path4619"
             inkscape:connector-curvature="0" /></g><g
           id="g4621"
           transform="translate(85.9814,232.1289)"><path
             d="m 0,0 c 0,0 330.358,-155.289 332.702,-155.289 2.345,0 0,220.684 0,220.684 L 0,208.523 c 0,0 -21.787,-70.149 0,-84.206 C 21.791,110.259 0,75.113 0,75.113 L 0,0 z"
             style="fill:none;stroke:#fcb24c;stroke-width:1;stroke-linecap:butt;stroke-linejoin:miter;stroke-miterlimit:10;stroke-opacity:1;stroke-dasharray:none"
             id="path4623"
             inkscape:connector-curvature="0" /></g><g
           id="g4625"
           transform="translate(490.5332,383.001)"><path
             d="m 0,0 c -3.183,46.08 0,-219.47 0,-219.47 0,0 -5.401,-66.388 -71.85,-86.691 l 0,220.684 c 0,0 75.036,39.396 71.85,85.477"
             style="fill:#fff215;fill-opacity:1;fill-rule:nonzero;stroke:none"
             id="path4627"
             inkscape:connector-curvature="0" /></g><g
           id="g4629"
           transform="translate(490.5332,383.001)"><path
             d="m 0,0 c -3.183,46.08 0,-219.47 0,-219.47 0,0 -5.401,-66.388 -71.85,-86.691 l 0,220.684 c 0,0 75.036,39.396 71.85,85.477 z"
             style="fill:none;stroke:#fcb24c;stroke-width:1;stroke-linecap:butt;stroke-linejoin:miter;stroke-miterlimit:10;stroke-opacity:1;stroke-dasharray:none"
             id="path4631"
             inkscape:connector-curvature="0" /></g><g
           id="g4633"
           transform="translate(378.7891,183.834)"><path
             d="m 0,0 c 0,-16.916 -15.039,-30.629 -33.585,-30.629 -18.546,0 -33.583,13.713 -33.583,30.629 0,16.917 15.037,30.63 33.583,30.63 C -15.039,30.63 0,16.917 0,0"
             style="fill:#fcb24c;fill-opacity:1;fill-rule:nonzero;stroke:none"
             id="path4635"
             inkscape:connector-curvature="0" /></g><g
           id="g4637"
           transform="translate(317.7119,297.5239)"><path
             d="m 0,0 c 0,-10.137 -15.601,-18.354 -34.847,-18.354 -19.252,0 -34.853,8.217 -34.853,18.354 0,10.138 15.601,18.351 34.853,18.351 C -15.601,18.351 0,10.138 0,0"
             style="fill:#fcb24c;fill-opacity:1;fill-rule:nonzero;stroke:none"
             id="path4639"
             inkscape:connector-curvature="0" /></g><g
           id="g4641"
           transform="translate(382.6953,265.0674)"><path
             d="m 0,0 c 0,-7.765 -6.471,-14.06 -14.453,-14.06 -7.979,0 -14.446,6.295 -14.446,14.06 0,7.761 6.467,14.058 14.446,14.058 C -6.471,14.058 0,7.761 0,0"
             style="fill:#fcb24c;fill-opacity:1;fill-rule:nonzero;stroke:none"
             id="path4643"
             inkscape:connector-curvature="0" /></g><g
           id="g4645"
           transform="translate(187.439,274.2656)"><path
             d="m 0,0 c 0,-12.846 -11.369,-23.258 -25.386,-23.258 -14.02,0 -25.382,10.412 -25.382,23.258 0,12.843 11.362,23.258 25.382,23.258 C -11.369,23.258 0,12.843 0,0"
             style="fill:#fcb24c;fill-opacity:1;fill-rule:nonzero;stroke:none"
             id="path4647"
             inkscape:connector-curvature="0" /></g><g
           id="g4649"
           transform="translate(162.0532,365.4292)"><path
             d="m 0,0 c 0,-2.807 -3.41,-5.077 -7.616,-5.077 -4.205,0 -7.616,2.27 -7.616,5.077 0,2.803 3.411,5.073 7.616,5.073 C -3.41,5.073 0,2.803 0,0"
             style="fill:#fcb24c;fill-opacity:1;fill-rule:nonzero;stroke:none"
             id="path4651"
             inkscape:connector-curvature="0" /></g></g></g></g></svg>